<svg xmlns="http://www.w3.org/2000/svg" xmlns:xlink="http://www.w3.org/1999/xlink" width="1000" zoomAndPan="magnify" viewBox="0 0 750 749.999995" height="1000" preserveAspectRatio="xMidYMid meet" version="1.0"><defs><g/><clipPath id="875bc4e5f1"><path d="M 147.882812 319.234375 L 602.289062 319.234375 L 602.289062 430.765625 L 147.882812 430.765625 Z M 147.882812 319.234375 " clip-rule="nonzero"/></clipPath><clipPath id="6db67aa764"><path d="M 154.632812 319.234375 L 595.367188 319.234375 C 599.09375 319.234375 602.117188 322.253906 602.117188 325.984375 L 602.117188 424.015625 C 602.117188 427.746094 599.09375 430.765625 595.367188 430.765625 L 154.632812 430.765625 C 150.90625 430.765625 147.882812 427.746094 147.882812 424.015625 L 147.882812 325.984375 C 147.882812 322.253906 150.90625 319.234375 154.632812 319.234375 Z M 154.632812 319.234375 " clip-rule="nonzero"/></clipPath><clipPath id="d137767ca2"><path d="M 147.882812 319.234375 L 602.382812 319.234375 L 602.382812 430.984375 L 147.882812 430.984375 Z M 147.882812 319.234375 " clip-rule="nonzero"/></clipPath><clipPath id="196d3c3f99"><path d="M 154.640625 319.234375 L 595.355469 319.234375 C 599.082031 319.234375 602.105469 322.253906 602.105469 325.984375 L 602.105469 424.011719 C 602.105469 427.738281 599.082031 430.761719 595.355469 430.761719 L 154.640625 430.761719 C 150.914062 430.761719 147.890625 427.738281 147.890625 424.011719 L 147.890625 325.984375 C 147.890625 322.253906 150.914062 319.234375 154.640625 319.234375 Z M 154.640625 319.234375 " clip-rule="nonzero"/></clipPath><clipPath id="315d14706a"><path d="M 155.644531 326.085938 L 594.621094 326.085938 L 594.621094 423.550781 L 155.644531 423.550781 Z M 155.644531 326.085938 " clip-rule="nonzero"/></clipPath><clipPath id="ec14476a05"><path d="M 162.394531 326.085938 L 587.605469 326.085938 C 591.335938 326.085938 594.355469 329.105469 594.355469 332.835938 L 594.355469 416.800781 C 594.355469 420.527344 591.335938 423.550781 587.605469 423.550781 L 162.394531 423.550781 C 158.664062 423.550781 155.644531 420.527344 155.644531 416.800781 L 155.644531 332.835938 C 155.644531 329.105469 158.664062 326.085938 162.394531 326.085938 Z M 162.394531 326.085938 " clip-rule="nonzero"/></clipPath><clipPath id="a3087ace72"><path d="M 155.644531 326.085938 L 594.394531 326.085938 L 594.394531 423.585938 L 155.644531 423.585938 Z M 155.644531 326.085938 " clip-rule="nonzero"/></clipPath><clipPath id="21167be174"><path d="M 162.394531 326.085938 L 587.597656 326.085938 C 591.324219 326.085938 594.347656 329.105469 594.347656 332.835938 L 594.347656 416.796875 C 594.347656 420.527344 591.324219 423.546875 587.597656 423.546875 L 162.394531 423.546875 C 158.664062 423.546875 155.644531 420.527344 155.644531 416.796875 L 155.644531 332.835938 C 155.644531 329.105469 158.664062 326.085938 162.394531 326.085938 Z M 162.394531 326.085938 " clip-rule="nonzero"/></clipPath><clipPath id="2bfe7f43ef"><path d="M 156.929688 327.433594 L 593.191406 327.433594 L 593.191406 422.160156 L 156.929688 422.160156 Z M 156.929688 327.433594 " clip-rule="nonzero"/></clipPath><clipPath id="1513c24761"><path d="M 162.179688 327.433594 L 587.789062 327.433594 C 590.6875 327.433594 593.039062 329.785156 593.039062 332.683594 L 593.039062 416.910156 C 593.039062 419.8125 590.6875 422.160156 587.789062 422.160156 L 162.179688 422.160156 C 159.28125 422.160156 156.929688 419.8125 156.929688 416.910156 L 156.929688 332.683594 C 156.929688 329.785156 159.28125 327.433594 162.179688 327.433594 Z M 162.179688 327.433594 " clip-rule="nonzero"/></clipPath><clipPath id="ce6987f71d"><path d="M 156.933594 327.433594 L 592.679688 327.433594 L 592.679688 421.933594 L 156.933594 421.933594 Z M 156.933594 327.433594 " clip-rule="nonzero"/></clipPath><clipPath id="becddb7673"><path d="M 162.183594 327.433594 L 587.773438 327.433594 C 590.675781 327.433594 593.023438 329.785156 593.023438 332.683594 L 593.023438 416.90625 C 593.023438 419.808594 590.675781 422.15625 587.773438 422.15625 L 162.183594 422.15625 C 159.285156 422.15625 156.933594 419.808594 156.933594 416.90625 L 156.933594 332.683594 C 156.933594 329.785156 159.285156 327.433594 162.183594 327.433594 Z M 162.183594 327.433594 " clip-rule="nonzero"/></clipPath><radialGradient gradientTransform="matrix(1.333333, 0, 0, 1.333333, 0.00000151862, 0.0000272575)" gradientUnits="userSpaceOnUse" r="223.130058" cx="218.044469" id="034ed5036d" cy="47.360973" fx="218.044469" fy="47.360973"><stop stop-opacity="1" stop-color="rgb(92.346191%, 93.62793%, 95.643616%)" offset="0"/><stop stop-opacity="1" stop-color="rgb(92.115784%, 93.519592%, 95.561218%)" offset="0.0078125"/><stop stop-opacity="1" stop-color="rgb(91.963196%, 93.44635%, 95.506287%)" offset="0.0117188"/><stop stop-opacity="1" stop-color="rgb(91.810608%, 93.374634%, 95.451355%)" offset="0.015625"/><stop stop-opacity="1" stop-color="rgb(91.656494%, 93.302917%, 95.396423%)" offset="0.0195312"/><stop stop-opacity="1" stop-color="rgb(91.503906%, 93.231201%, 95.341492%)" offset="0.0234375"/><stop stop-opacity="1" stop-color="rgb(91.349792%, 93.159485%, 95.28656%)" offset="0.0273438"/><stop stop-opacity="1" stop-color="rgb(91.197205%, 93.087769%, 95.231628%)" offset="0.03125"/><stop stop-opacity="1" stop-color="rgb(91.044617%, 93.016052%, 95.175171%)" offset="0.0351562"/><stop stop-opacity="1" stop-color="rgb(90.890503%, 92.944336%, 95.120239%)" offset="0.0390625"/><stop stop-opacity="1" stop-color="rgb(90.737915%, 92.87262%, 95.065308%)" offset="0.0429688"/><stop stop-opacity="1" stop-color="rgb(90.585327%, 92.799377%, 95.010376%)" offset="0.046875"/><stop stop-opacity="1" stop-color="rgb(90.431213%, 92.727661%, 94.955444%)" offset="0.0507812"/><stop stop-opacity="1" stop-color="rgb(90.278625%, 92.655945%, 94.900513%)" offset="0.0546875"/><stop stop-opacity="1" stop-color="rgb(90.126038%, 92.584229%, 94.845581%)" offset="0.0585938"/><stop stop-opacity="1" stop-color="rgb(89.971924%, 92.512512%, 94.790649%)" offset="0.0625"/><stop stop-opacity="1" stop-color="rgb(89.819336%, 92.440796%, 94.735718%)" offset="0.0664062"/><stop stop-opacity="1" stop-color="rgb(89.666748%, 92.36908%, 94.680786%)" offset="0.0703125"/><stop stop-opacity="1" stop-color="rgb(89.512634%, 92.297363%, 94.625854%)" offset="0.0742188"/><stop stop-opacity="1" stop-color="rgb(89.360046%, 92.225647%, 94.569397%)" offset="0.078125"/><stop stop-opacity="1" stop-color="rgb(89.207458%, 92.153931%, 94.514465%)" offset="0.0820312"/><stop stop-opacity="1" stop-color="rgb(89.053345%, 92.080688%, 94.459534%)" offset="0.0859375"/><stop stop-opacity="1" stop-color="rgb(88.900757%, 92.008972%, 94.404602%)" offset="0.0898438"/><stop stop-opacity="1" stop-color="rgb(88.748169%, 91.937256%, 94.34967%)" offset="0.09375"/><stop stop-opacity="1" stop-color="rgb(88.594055%, 91.86554%, 94.294739%)" offset="0.0976562"/><stop stop-opacity="1" stop-color="rgb(88.441467%, 91.793823%, 94.239807%)" offset="0.101562"/><stop stop-opacity="1" stop-color="rgb(88.287354%, 91.722107%, 94.184875%)" offset="0.105469"/><stop stop-opacity="1" stop-color="rgb(88.134766%, 91.650391%, 94.129944%)" offset="0.109375"/><stop stop-opacity="1" stop-color="rgb(87.982178%, 91.578674%, 94.075012%)" offset="0.113281"/><stop stop-opacity="1" stop-color="rgb(87.828064%, 91.506958%, 94.018555%)" offset="0.117188"/><stop stop-opacity="1" stop-color="rgb(87.675476%, 91.435242%, 93.963623%)" offset="0.121094"/><stop stop-opacity="1" stop-color="rgb(87.522888%, 91.362%, 93.908691%)" offset="0.125"/><stop stop-opacity="1" stop-color="rgb(87.368774%, 91.290283%, 93.85376%)" offset="0.128906"/><stop stop-opacity="1" stop-color="rgb(87.216187%, 91.218567%, 93.798828%)" offset="0.132812"/><stop stop-opacity="1" stop-color="rgb(87.063599%, 91.146851%, 93.743896%)" offset="0.136719"/><stop stop-opacity="1" stop-color="rgb(86.909485%, 91.075134%, 93.688965%)" offset="0.140625"/><stop stop-opacity="1" stop-color="rgb(86.756897%, 91.003418%, 93.634033%)" offset="0.144531"/><stop stop-opacity="1" stop-color="rgb(86.604309%, 90.931702%, 93.579102%)" offset="0.148438"/><stop stop-opacity="1" stop-color="rgb(86.450195%, 90.859985%, 93.52417%)" offset="0.152344"/><stop stop-opacity="1" stop-color="rgb(86.297607%, 90.788269%, 93.469238%)" offset="0.15625"/><stop stop-opacity="1" stop-color="rgb(86.14502%, 90.715027%, 93.412781%)" offset="0.160156"/><stop stop-opacity="1" stop-color="rgb(85.990906%, 90.643311%, 93.357849%)" offset="0.164062"/><stop stop-opacity="1" stop-color="rgb(85.838318%, 90.571594%, 93.302917%)" offset="0.167969"/><stop stop-opacity="1" stop-color="rgb(85.684204%, 90.499878%, 93.247986%)" offset="0.171875"/><stop stop-opacity="1" stop-color="rgb(85.531616%, 90.428162%, 93.193054%)" offset="0.175781"/><stop stop-opacity="1" stop-color="rgb(85.379028%, 90.356445%, 93.138123%)" offset="0.179688"/><stop stop-opacity="1" stop-color="rgb(85.224915%, 90.284729%, 93.083191%)" offset="0.183594"/><stop stop-opacity="1" stop-color="rgb(85.072327%, 90.213013%, 93.028259%)" offset="0.1875"/><stop stop-opacity="1" stop-color="rgb(84.919739%, 90.141296%, 92.973328%)" offset="0.191406"/><stop stop-opacity="1" stop-color="rgb(84.765625%, 90.06958%, 92.918396%)" offset="0.195312"/><stop stop-opacity="1" stop-color="rgb(84.613037%, 89.996338%, 92.861938%)" offset="0.199219"/><stop stop-opacity="1" stop-color="rgb(84.460449%, 89.924622%, 92.807007%)" offset="0.203125"/><stop stop-opacity="1" stop-color="rgb(84.306335%, 89.852905%, 92.752075%)" offset="0.207031"/><stop stop-opacity="1" stop-color="rgb(84.153748%, 89.781189%, 92.697144%)" offset="0.210938"/><stop stop-opacity="1" stop-color="rgb(84.00116%, 89.709473%, 92.642212%)" offset="0.214844"/><stop stop-opacity="1" stop-color="rgb(83.847046%, 89.637756%, 92.58728%)" offset="0.21875"/><stop stop-opacity="1" stop-color="rgb(83.694458%, 89.56604%, 92.532349%)" offset="0.222656"/><stop stop-opacity="1" stop-color="rgb(83.54187%, 89.494324%, 92.477417%)" offset="0.226562"/><stop stop-opacity="1" stop-color="rgb(83.387756%, 89.422607%, 92.422485%)" offset="0.230469"/><stop stop-opacity="1" stop-color="rgb(83.235168%, 89.349365%, 92.367554%)" offset="0.234375"/><stop stop-opacity="1" stop-color="rgb(83.081055%, 89.277649%, 92.312622%)" offset="0.238281"/><stop stop-opacity="1" stop-color="rgb(82.928467%, 89.205933%, 92.256165%)" offset="0.242188"/><stop stop-opacity="1" stop-color="rgb(82.775879%, 89.134216%, 92.201233%)" offset="0.246094"/><stop stop-opacity="1" stop-color="rgb(82.621765%, 89.0625%, 92.146301%)" offset="0.25"/><stop stop-opacity="1" stop-color="rgb(82.392883%, 88.955688%, 92.063904%)" offset="0.253906"/><stop stop-opacity="1" stop-color="rgb(82.086182%, 88.812256%, 91.954041%)" offset="0.261719"/><stop stop-opacity="1" stop-color="rgb(81.77948%, 88.667297%, 91.844177%)" offset="0.269531"/><stop stop-opacity="1" stop-color="rgb(81.474304%, 88.523865%, 91.732788%)" offset="0.277344"/><stop stop-opacity="1" stop-color="rgb(81.167603%, 88.380432%, 91.622925%)" offset="0.285156"/><stop stop-opacity="1" stop-color="rgb(80.860901%, 88.237%, 91.513062%)" offset="0.292969"/><stop stop-opacity="1" stop-color="rgb(80.554199%, 88.093567%, 91.403198%)" offset="0.300781"/><stop stop-opacity="1" stop-color="rgb(80.249023%, 87.948608%, 91.293335%)" offset="0.308594"/><stop stop-opacity="1" stop-color="rgb(79.942322%, 87.805176%, 91.181946%)" offset="0.316406"/><stop stop-opacity="1" stop-color="rgb(79.63562%, 87.661743%, 91.072083%)" offset="0.324219"/><stop stop-opacity="1" stop-color="rgb(79.330444%, 87.518311%, 90.962219%)" offset="0.332031"/><stop stop-opacity="1" stop-color="rgb(79.023743%, 87.373352%, 90.852356%)" offset="0.339844"/><stop stop-opacity="1" stop-color="rgb(78.717041%, 87.229919%, 90.742493%)" offset="0.347656"/><stop stop-opacity="1" stop-color="rgb(78.411865%, 87.086487%, 90.632629%)" offset="0.355469"/><stop stop-opacity="1" stop-color="rgb(78.105164%, 86.943054%, 90.52124%)" offset="0.363281"/><stop stop-opacity="1" stop-color="rgb(77.798462%, 86.799622%, 90.411377%)" offset="0.371094"/><stop stop-opacity="1" stop-color="rgb(77.49176%, 86.654663%, 90.301514%)" offset="0.378906"/><stop stop-opacity="1" stop-color="rgb(77.186584%, 86.51123%, 90.19165%)" offset="0.386719"/><stop stop-opacity="1" stop-color="rgb(76.879883%, 86.367798%, 90.081787%)" offset="0.394531"/><stop stop-opacity="1" stop-color="rgb(76.573181%, 86.224365%, 89.970398%)" offset="0.402344"/><stop stop-opacity="1" stop-color="rgb(76.268005%, 86.080933%, 89.860535%)" offset="0.410156"/><stop stop-opacity="1" stop-color="rgb(75.961304%, 85.935974%, 89.750671%)" offset="0.417969"/><stop stop-opacity="1" stop-color="rgb(75.654602%, 85.792542%, 89.640808%)" offset="0.425781"/><stop stop-opacity="1" stop-color="rgb(75.349426%, 85.649109%, 89.530945%)" offset="0.433594"/><stop stop-opacity="1" stop-color="rgb(75.042725%, 85.505676%, 89.419556%)" offset="0.441406"/><stop stop-opacity="1" stop-color="rgb(74.736023%, 85.362244%, 89.309692%)" offset="0.449219"/><stop stop-opacity="1" stop-color="rgb(74.429321%, 85.217285%, 89.199829%)" offset="0.457031"/><stop stop-opacity="1" stop-color="rgb(74.124146%, 85.073853%, 89.089966%)" offset="0.464844"/><stop stop-opacity="1" stop-color="rgb(73.817444%, 84.93042%, 88.980103%)" offset="0.472656"/><stop stop-opacity="1" stop-color="rgb(73.510742%, 84.786987%, 88.868713%)" offset="0.480469"/><stop stop-opacity="1" stop-color="rgb(73.205566%, 84.643555%, 88.75885%)" offset="0.488281"/><stop stop-opacity="1" stop-color="rgb(72.898865%, 84.498596%, 88.648987%)" offset="0.496094"/><stop stop-opacity="1" stop-color="rgb(72.669983%, 84.390259%, 88.566589%)" offset="0.503906"/><stop stop-opacity="1" stop-color="rgb(72.515869%, 84.318542%, 88.511658%)" offset="0.507812"/><stop stop-opacity="1" stop-color="rgb(72.363281%, 84.246826%, 88.456726%)" offset="0.511719"/><stop stop-opacity="1" stop-color="rgb(72.209167%, 84.17511%, 88.401794%)" offset="0.515625"/><stop stop-opacity="1" stop-color="rgb(72.05658%, 84.103394%, 88.346863%)" offset="0.519531"/><stop stop-opacity="1" stop-color="rgb(71.903992%, 84.031677%, 88.290405%)" offset="0.523438"/><stop stop-opacity="1" stop-color="rgb(71.749878%, 83.959961%, 88.235474%)" offset="0.527344"/><stop stop-opacity="1" stop-color="rgb(71.59729%, 83.888245%, 88.180542%)" offset="0.53125"/><stop stop-opacity="1" stop-color="rgb(71.444702%, 83.815002%, 88.12561%)" offset="0.535156"/><stop stop-opacity="1" stop-color="rgb(71.290588%, 83.743286%, 88.070679%)" offset="0.539062"/><stop stop-opacity="1" stop-color="rgb(71.138%, 83.67157%, 88.015747%)" offset="0.542969"/><stop stop-opacity="1" stop-color="rgb(70.985413%, 83.599854%, 87.960815%)" offset="0.546875"/><stop stop-opacity="1" stop-color="rgb(70.831299%, 83.528137%, 87.905884%)" offset="0.550781"/><stop stop-opacity="1" stop-color="rgb(70.678711%, 83.456421%, 87.850952%)" offset="0.554688"/><stop stop-opacity="1" stop-color="rgb(70.526123%, 83.384705%, 87.796021%)" offset="0.558594"/><stop stop-opacity="1" stop-color="rgb(70.372009%, 83.312988%, 87.741089%)" offset="0.5625"/><stop stop-opacity="1" stop-color="rgb(70.219421%, 83.241272%, 87.684631%)" offset="0.566406"/><stop stop-opacity="1" stop-color="rgb(70.066833%, 83.169556%, 87.6297%)" offset="0.570312"/><stop stop-opacity="1" stop-color="rgb(69.91272%, 83.096313%, 87.574768%)" offset="0.574219"/><stop stop-opacity="1" stop-color="rgb(69.760132%, 83.024597%, 87.519836%)" offset="0.578125"/><stop stop-opacity="1" stop-color="rgb(69.607544%, 82.952881%, 87.464905%)" offset="0.582031"/><stop stop-opacity="1" stop-color="rgb(69.45343%, 82.881165%, 87.409973%)" offset="0.585938"/><stop stop-opacity="1" stop-color="rgb(69.300842%, 82.809448%, 87.355042%)" offset="0.589844"/><stop stop-opacity="1" stop-color="rgb(69.146729%, 82.737732%, 87.30011%)" offset="0.59375"/><stop stop-opacity="1" stop-color="rgb(68.994141%, 82.666016%, 87.245178%)" offset="0.597656"/><stop stop-opacity="1" stop-color="rgb(68.841553%, 82.594299%, 87.190247%)" offset="0.601562"/><stop stop-opacity="1" stop-color="rgb(68.687439%, 82.522583%, 87.133789%)" offset="0.605469"/><stop stop-opacity="1" stop-color="rgb(68.534851%, 82.450867%, 87.078857%)" offset="0.609375"/><stop stop-opacity="1" stop-color="rgb(68.382263%, 82.377625%, 87.023926%)" offset="0.613281"/><stop stop-opacity="1" stop-color="rgb(68.228149%, 82.305908%, 86.968994%)" offset="0.617188"/><stop stop-opacity="1" stop-color="rgb(68.075562%, 82.234192%, 86.914062%)" offset="0.621094"/><stop stop-opacity="1" stop-color="rgb(67.922974%, 82.162476%, 86.859131%)" offset="0.625"/><stop stop-opacity="1" stop-color="rgb(67.692566%, 82.055664%, 86.776733%)" offset="0.628906"/><stop stop-opacity="1" stop-color="rgb(67.385864%, 81.912231%, 86.66687%)" offset="0.636719"/><stop stop-opacity="1" stop-color="rgb(67.080688%, 81.767273%, 86.555481%)" offset="0.644531"/><stop stop-opacity="1" stop-color="rgb(66.773987%, 81.62384%, 86.445618%)" offset="0.652344"/><stop stop-opacity="1" stop-color="rgb(66.467285%, 81.480408%, 86.335754%)" offset="0.660156"/><stop stop-opacity="1" stop-color="rgb(66.160583%, 81.336975%, 86.225891%)" offset="0.667969"/><stop stop-opacity="1" stop-color="rgb(65.855408%, 81.193542%, 86.116028%)" offset="0.675781"/><stop stop-opacity="1" stop-color="rgb(65.548706%, 81.048584%, 86.004639%)" offset="0.683594"/><stop stop-opacity="1" stop-color="rgb(65.242004%, 80.905151%, 85.894775%)" offset="0.691406"/><stop stop-opacity="1" stop-color="rgb(64.936829%, 80.761719%, 85.784912%)" offset="0.699219"/><stop stop-opacity="1" stop-color="rgb(64.630127%, 80.618286%, 85.675049%)" offset="0.707031"/><stop stop-opacity="1" stop-color="rgb(64.323425%, 80.473328%, 85.565186%)" offset="0.714844"/><stop stop-opacity="1" stop-color="rgb(64.016724%, 80.329895%, 85.455322%)" offset="0.722656"/><stop stop-opacity="1" stop-color="rgb(63.711548%, 80.186462%, 85.343933%)" offset="0.730469"/><stop stop-opacity="1" stop-color="rgb(63.404846%, 80.04303%, 85.23407%)" offset="0.738281"/><stop stop-opacity="1" stop-color="rgb(63.098145%, 79.899597%, 85.124207%)" offset="0.746094"/><stop stop-opacity="1" stop-color="rgb(62.869263%, 79.79126%, 85.041809%)" offset="0.753906"/><stop stop-opacity="1" stop-color="rgb(62.716675%, 79.719543%, 84.986877%)" offset="0.757812"/><stop stop-opacity="1" stop-color="rgb(62.562561%, 79.646301%, 84.931946%)" offset="0.761719"/><stop stop-opacity="1" stop-color="rgb(62.409973%, 79.574585%, 84.877014%)" offset="0.765625"/><stop stop-opacity="1" stop-color="rgb(62.257385%, 79.502869%, 84.820557%)" offset="0.769531"/><stop stop-opacity="1" stop-color="rgb(62.103271%, 79.431152%, 84.765625%)" offset="0.773438"/><stop stop-opacity="1" stop-color="rgb(61.950684%, 79.359436%, 84.710693%)" offset="0.777344"/><stop stop-opacity="1" stop-color="rgb(61.798096%, 79.28772%, 84.655762%)" offset="0.78125"/><stop stop-opacity="1" stop-color="rgb(61.643982%, 79.216003%, 84.60083%)" offset="0.785156"/><stop stop-opacity="1" stop-color="rgb(61.491394%, 79.144287%, 84.545898%)" offset="0.789062"/><stop stop-opacity="1" stop-color="rgb(61.33728%, 79.072571%, 84.490967%)" offset="0.792969"/><stop stop-opacity="1" stop-color="rgb(61.184692%, 79.000854%, 84.436035%)" offset="0.796875"/><stop stop-opacity="1" stop-color="rgb(61.032104%, 78.927612%, 84.381104%)" offset="0.800781"/><stop stop-opacity="1" stop-color="rgb(60.877991%, 78.855896%, 84.326172%)" offset="0.804688"/><stop stop-opacity="1" stop-color="rgb(60.725403%, 78.78418%, 84.269714%)" offset="0.808594"/><stop stop-opacity="1" stop-color="rgb(60.572815%, 78.712463%, 84.214783%)" offset="0.8125"/><stop stop-opacity="1" stop-color="rgb(60.342407%, 78.605652%, 84.132385%)" offset="0.816406"/><stop stop-opacity="1" stop-color="rgb(60.035706%, 78.462219%, 84.022522%)" offset="0.824219"/><stop stop-opacity="1" stop-color="rgb(59.73053%, 78.317261%, 83.912659%)" offset="0.832031"/><stop stop-opacity="1" stop-color="rgb(59.423828%, 78.173828%, 83.802795%)" offset="0.839844"/><stop stop-opacity="1" stop-color="rgb(59.117126%, 78.030396%, 83.691406%)" offset="0.847656"/><stop stop-opacity="1" stop-color="rgb(58.811951%, 77.886963%, 83.581543%)" offset="0.855469"/><stop stop-opacity="1" stop-color="rgb(58.505249%, 77.74353%, 83.47168%)" offset="0.863281"/><stop stop-opacity="1" stop-color="rgb(58.198547%, 77.598572%, 83.361816%)" offset="0.871094"/><stop stop-opacity="1" stop-color="rgb(57.969666%, 77.490234%, 83.279419%)" offset="0.878906"/><stop stop-opacity="1" stop-color="rgb(57.815552%, 77.418518%, 83.224487%)" offset="0.882812"/><stop stop-opacity="1" stop-color="rgb(57.662964%, 77.346802%, 83.169556%)" offset="0.886719"/><stop stop-opacity="1" stop-color="rgb(57.510376%, 77.275085%, 83.113098%)" offset="0.890625"/><stop stop-opacity="1" stop-color="rgb(57.356262%, 77.203369%, 83.058167%)" offset="0.894531"/><stop stop-opacity="1" stop-color="rgb(57.203674%, 77.131653%, 83.003235%)" offset="0.898438"/><stop stop-opacity="1" stop-color="rgb(57.051086%, 77.059937%, 82.948303%)" offset="0.902344"/><stop stop-opacity="1" stop-color="rgb(56.896973%, 76.98822%, 82.893372%)" offset="0.90625"/><stop stop-opacity="1" stop-color="rgb(56.668091%, 76.879883%, 82.810974%)" offset="0.910156"/><stop stop-opacity="1" stop-color="rgb(56.361389%, 76.73645%, 82.701111%)" offset="0.917969"/><stop stop-opacity="1" stop-color="rgb(56.054688%, 76.593018%, 82.591248%)" offset="0.925781"/><stop stop-opacity="1" stop-color="rgb(55.747986%, 76.449585%, 82.479858%)" offset="0.933594"/><stop stop-opacity="1" stop-color="rgb(55.519104%, 76.341248%, 82.397461%)" offset="0.941406"/><stop stop-opacity="1" stop-color="rgb(55.366516%, 76.269531%, 82.342529%)" offset="0.945312"/><stop stop-opacity="1" stop-color="rgb(55.212402%, 76.196289%, 82.287598%)" offset="0.949219"/><stop stop-opacity="1" stop-color="rgb(55.059814%, 76.124573%, 82.232666%)" offset="0.953125"/><stop stop-opacity="1" stop-color="rgb(54.829407%, 76.017761%, 82.150269%)" offset="0.957031"/><stop stop-opacity="1" stop-color="rgb(54.524231%, 75.874329%, 82.040405%)" offset="0.964844"/><stop stop-opacity="1" stop-color="rgb(54.293823%, 75.765991%, 81.956482%)" offset="0.972656"/><stop stop-opacity="1" stop-color="rgb(54.141235%, 75.694275%, 81.90155%)" offset="0.976562"/><stop stop-opacity="1" stop-color="rgb(53.910828%, 75.585938%, 81.819153%)" offset="0.980469"/><stop stop-opacity="1" stop-color="rgb(53.681946%, 75.4776%, 81.736755%)" offset="0.988281"/><stop stop-opacity="1" stop-color="rgb(53.451538%, 75.370789%, 81.654358%)" offset="0.992188"/><stop stop-opacity="1" stop-color="rgb(53.29895%, 75.299072%, 81.599426%)" offset="1"/></radialGradient></defs><g clip-path="url(#875bc4e5f1)"><g clip-path="url(#6db67aa764)"><path fill="#d9d9d9" d="M 147.882812 319.234375 L 602.289062 319.234375 L 602.289062 430.765625 L 147.882812 430.765625 Z M 147.882812 319.234375 " fill-opacity="1" fill-rule="nonzero"/></g></g><g clip-path="url(#d137767ca2)"><g clip-path="url(#196d3c3f99)"><path stroke-linecap="butt" transform="matrix(0.75, 0, 0, 0.75, 147.891778, 319.233756)" fill="none" stroke-linejoin="miter" d="M 8.998463 0.00082581 L 596.618284 0.00082581 C 601.587034 0.00082581 605.618284 4.026868 605.618284 9.000826 L 605.618284 139.703958 C 605.618284 144.672708 601.587034 148.703958 596.618284 148.703958 L 8.998463 148.703958 C 4.029713 148.703958 -0.00153712 144.672708 -0.00153712 139.703958 L -0.00153712 9.000826 C -0.00153712 4.026868 4.029713 0.00082581 8.998463 0.00082581 Z M 8.998463 0.00082581 " stroke="#000000" stroke-width="4" stroke-opacity="1" stroke-miterlimit="4"/></g></g><g clip-path="url(#315d14706a)"><g clip-path="url(#ec14476a05)"><path fill="#bf616a" d="M 155.644531 326.085938 L 594.238281 326.085938 L 594.238281 423.550781 L 155.644531 423.550781 Z M 155.644531 326.085938 " fill-opacity="1" fill-rule="nonzero"/></g></g><g clip-path="url(#a3087ace72)"><g clip-path="url(#21167be174)"><path stroke-linecap="butt" transform="matrix(0.75, 0, 0, 0.75, 155.643189, 326.085208)" fill="none" stroke-linejoin="miter" d="M 9.001789 0.000972522 L 575.93928 0.000972522 C 580.90803 0.000972522 584.93928 4.027014 584.93928 9.000972 L 584.93928 120.948887 C 584.93928 125.922846 580.90803 129.948887 575.93928 129.948887 L 9.001789 129.948887 C 4.027831 129.948887 0.00178905 125.922846 0.00178905 120.948887 L 0.00178905 9.000972 C 0.00178905 4.027014 4.027831 0.000972522 9.001789 0.000972522 Z M 9.001789 0.000972522 " stroke="#000000" stroke-width="4" stroke-opacity="1" stroke-miterlimit="4"/></g></g><g clip-path="url(#2bfe7f43ef)"><g clip-path="url(#1513c24761)"><path fill="#88c0d0" d="M 156.929688 327.433594 L 593.191406 327.433594 L 593.191406 422.160156 L 156.929688 422.160156 Z M 156.929688 327.433594 " fill-opacity="1" fill-rule="nonzero"/></g></g><g clip-path="url(#ce6987f71d)"><g clip-path="url(#becddb7673)"><path stroke-linecap="butt" transform="matrix(0.75, 0, 0, 0.75, 156.935181, 327.434447)" fill="none" stroke-linejoin="miter" d="M 6.997883 -0.00113799 L 574.450999 -0.00113799 C 578.320791 -0.00113799 581.450999 3.134279 581.450999 6.998862 L 581.450999 119.295735 C 581.450999 123.165527 578.320791 126.295735 574.450999 126.295735 L 6.997883 126.295735 C 3.1333 126.295735 -0.00211687 123.165527 -0.00211687 119.295735 L -0.00211687 6.998862 C -0.00211687 3.134279 3.1333 -0.00113799 6.997883 -0.00113799 Z M 6.997883 -0.00113799 " stroke="url(#034ed5036d)" stroke-width="16" stroke-miterlimit="4"/></g></g><g fill="#eceff4" fill-opacity="1"><g transform="translate(211.518204, 387.402848)"><g><path d="M 6.234375 -4.265625 C 3.148438 -7.285156 1.609375 -11.113281 1.609375 -15.75 C 1.609375 -20.382812 3.15625 -24.210938 6.25 -27.234375 C 9.351562 -30.253906 13.144531 -31.765625 17.625 -31.765625 C 21.039062 -31.765625 24.070312 -30.894531 26.71875 -29.15625 C 29.363281 -27.425781 31.253906 -24.988281 32.390625 -21.84375 L 24.8125 -21.84375 C 23.40625 -24.59375 21.007812 -25.96875 17.625 -25.96875 C 14.789062 -25.96875 12.484375 -25.03125 10.703125 -23.15625 C 8.921875 -21.289062 8.03125 -18.8125 8.03125 -15.71875 C 8.03125 -12.625 8.921875 -10.140625 10.703125 -8.265625 C 12.484375 -6.398438 14.789062 -5.46875 17.625 -5.46875 C 20.976562 -5.46875 23.375 -6.84375 24.8125 -9.59375 L 32.390625 -9.59375 C 31.253906 -6.457031 29.363281 -4.03125 26.71875 -2.3125 C 24.070312 -0.59375 21.039062 0.265625 17.625 0.265625 C 13.113281 0.265625 9.316406 -1.242188 6.234375 -4.265625 Z M 6.234375 -4.265625 "/></g></g></g><g fill="#eceff4" fill-opacity="1"><g transform="translate(246.011392, 387.402848)"><g><path d="M 9.6875 -33.203125 L 9.6875 -21.125 C 11.269531 -23.851562 13.84375 -25.21875 17.40625 -25.21875 C 20.25 -25.21875 22.566406 -24.28125 24.359375 -22.40625 C 26.148438 -20.539062 27.046875 -17.945312 27.046875 -14.625 L 27.046875 0 L 20.765625 0 L 20.765625 -13.734375 C 20.765625 -15.671875 20.269531 -17.15625 19.28125 -18.1875 C 18.300781 -19.21875 16.957031 -19.734375 15.25 -19.734375 C 13.539062 -19.734375 12.1875 -19.21875 11.1875 -18.1875 C 10.1875 -17.15625 9.6875 -15.671875 9.6875 -13.734375 L 9.6875 0 L 3.359375 0 L 3.359375 -33.203125 Z M 9.6875 -33.203125 "/></g></g></g><g fill="#eceff4" fill-opacity="1"><g transform="translate(276.198539, 387.402848)"><g><path d="M 19.1875 -7.0625 C 20.507812 -8.363281 21.171875 -10.148438 21.171875 -12.421875 C 21.171875 -14.691406 20.507812 -16.476562 19.1875 -17.78125 C 17.875 -19.082031 16.335938 -19.734375 14.578125 -19.734375 C 12.816406 -19.734375 11.285156 -19.085938 9.984375 -17.796875 C 8.679688 -16.515625 8.03125 -14.738281 8.03125 -12.46875 C 8.03125 -10.195312 8.6875 -8.398438 10 -7.078125 C 11.320312 -5.765625 12.851562 -5.109375 14.59375 -5.109375 C 16.34375 -5.109375 17.875 -5.757812 19.1875 -7.0625 Z M 4.953125 -3.25 C 2.722656 -5.65625 1.609375 -8.726562 1.609375 -12.46875 C 1.609375 -16.207031 2.710938 -19.265625 4.921875 -21.640625 C 7.140625 -24.023438 9.953125 -25.21875 13.359375 -25.21875 C 16.773438 -25.21875 19.378906 -23.8125 21.171875 -21 L 21.171875 -24.859375 L 27.453125 -24.859375 L 27.453125 0 L 21.171875 0 L 21.171875 -4.171875 C 19.285156 -1.148438 16.664062 0.359375 13.3125 0.359375 C 9.96875 0.359375 7.179688 -0.84375 4.953125 -3.25 Z M 4.953125 -3.25 "/></g></g></g><g fill="#eceff4" fill-opacity="1"><g transform="translate(307.013648, 387.402848)"><g><path d="M 9.6875 -24.859375 L 9.6875 -21.125 C 11.269531 -23.851562 13.84375 -25.21875 17.40625 -25.21875 C 20.25 -25.21875 22.566406 -24.28125 24.359375 -22.40625 C 26.148438 -20.539062 27.046875 -17.945312 27.046875 -14.625 L 27.046875 0 L 20.765625 0 L 20.765625 -13.734375 C 20.765625 -15.671875 20.269531 -17.15625 19.28125 -18.1875 C 18.300781 -19.21875 16.957031 -19.734375 15.25 -19.734375 C 13.539062 -19.734375 12.1875 -19.21875 11.1875 -18.1875 C 10.1875 -17.15625 9.6875 -15.671875 9.6875 -13.734375 L 9.6875 0 L 3.359375 0 L 3.359375 -24.859375 Z M 9.6875 -24.859375 "/></g></g></g><g fill="#eceff4" fill-opacity="1"><g transform="translate(337.200795, 387.402848)"><g><path d="M 4.953125 -3.25 C 2.722656 -5.65625 1.609375 -8.726562 1.609375 -12.46875 C 1.609375 -16.207031 2.710938 -19.265625 4.921875 -21.640625 C 7.140625 -24.023438 9.953125 -25.21875 13.359375 -25.21875 C 16.773438 -25.21875 19.378906 -23.8125 21.171875 -21 L 21.171875 -24.859375 L 27.453125 -24.859375 L 27.453125 0.171875 C 27.453125 3.734375 26.40625 6.644531 24.3125 8.90625 C 22.21875 11.164062 19.28125 12.296875 15.5 12.296875 C 11.71875 12.296875 8.710938 11.507812 6.484375 9.9375 C 4.253906 8.363281 2.988281 6.128906 2.6875 3.234375 L 8.875 3.234375 C 9.269531 4.335938 10.019531 5.207031 11.125 5.84375 C 12.226562 6.488281 13.617188 6.8125 15.296875 6.8125 C 16.972656 6.8125 18.367188 6.257812 19.484375 5.15625 C 20.609375 4.050781 21.171875 2.390625 21.171875 0.171875 L 21.171875 -4.171875 C 19.285156 -1.148438 16.664062 0.359375 13.3125 0.359375 C 9.96875 0.359375 7.179688 -0.84375 4.953125 -3.25 Z M 19.1875 -7.0625 C 20.507812 -8.363281 21.171875 -10.148438 21.171875 -12.421875 C 21.171875 -14.691406 20.507812 -16.476562 19.1875 -17.78125 C 17.875 -19.082031 16.335938 -19.734375 14.578125 -19.734375 C 12.816406 -19.734375 11.285156 -19.085938 9.984375 -17.796875 C 8.679688 -16.515625 8.03125 -14.738281 8.03125 -12.46875 C 8.03125 -10.195312 8.6875 -8.398438 10 -7.078125 C 11.320312 -5.765625 12.851562 -5.109375 14.59375 -5.109375 C 16.34375 -5.109375 17.875 -5.757812 19.1875 -7.0625 Z M 19.1875 -7.0625 "/></g></g></g><g fill="#eceff4" fill-opacity="1"><g transform="translate(368.015903, 387.402848)"><g><path d="M 13.859375 0.359375 C 10.242188 0.359375 7.296875 -0.8125 5.015625 -3.15625 C 2.742188 -5.507812 1.609375 -8.613281 1.609375 -12.46875 C 1.609375 -16.320312 2.753906 -19.410156 5.046875 -21.734375 C 7.335938 -24.054688 10.296875 -25.21875 13.921875 -25.21875 C 17.554688 -25.21875 20.539062 -24.085938 22.875 -21.828125 C 25.207031 -19.566406 26.375 -16.550781 26.375 -12.78125 C 26.375 -11.914062 26.316406 -11.109375 26.203125 -10.359375 L 8.078125 -10.359375 C 8.222656 -8.742188 8.816406 -7.441406 9.859375 -6.453125 C 10.910156 -5.472656 12.242188 -4.984375 13.859375 -4.984375 C 16.046875 -4.984375 17.660156 -5.878906 18.703125 -7.671875 L 25.53125 -7.671875 C 24.8125 -5.304688 23.414062 -3.375 21.34375 -1.875 C 19.28125 -0.382812 16.785156 0.359375 13.859375 0.359375 Z M 19.828125 -14.4375 C 19.734375 -16.082031 19.125 -17.398438 18 -18.390625 C 16.882812 -19.378906 15.535156 -19.875 13.953125 -19.875 C 12.367188 -19.875 11.046875 -19.378906 9.984375 -18.390625 C 8.921875 -17.398438 8.285156 -16.082031 8.078125 -14.4375 Z M 19.828125 -14.4375 "/></g></g></g><g fill="#eceff4" fill-opacity="1"><g transform="translate(396.005176, 387.402848)"><g/></g></g><g fill="#eceff4" fill-opacity="1"><g transform="translate(409.461557, 387.402848)"><g><path d="M 21.4375 -31.40625 L 21.4375 -26.5625 L 9.6875 -26.5625 L 9.6875 -18.34375 L 20.09375 -18.34375 L 20.09375 -13.5 L 9.6875 -13.5 L 9.6875 -4.84375 L 21.4375 -4.84375 L 21.4375 0 L 3.359375 0 L 3.359375 -31.40625 Z M 21.4375 -31.40625 "/></g></g></g><g fill="#eceff4" fill-opacity="1"><g transform="translate(433.997009, 387.402848)"><g><path d="M 9.6875 -24.859375 L 9.6875 -21.125 C 11.269531 -23.851562 13.84375 -25.21875 17.40625 -25.21875 C 19.289062 -25.21875 20.972656 -24.78125 22.453125 -23.90625 C 23.929688 -23.039062 25.078125 -21.800781 25.890625 -20.1875 C 26.753906 -21.738281 27.941406 -22.960938 29.453125 -23.859375 C 30.960938 -24.765625 32.660156 -25.21875 34.546875 -25.21875 C 37.503906 -25.21875 39.882812 -24.285156 41.6875 -22.421875 C 43.5 -20.566406 44.40625 -17.96875 44.40625 -14.625 L 44.40625 0 L 38.125 0 L 38.125 -13.734375 C 38.125 -15.671875 37.628906 -17.15625 36.640625 -18.1875 C 35.660156 -19.21875 34.316406 -19.734375 32.609375 -19.734375 C 30.910156 -19.734375 29.554688 -19.21875 28.546875 -18.1875 C 27.546875 -17.15625 27.046875 -15.671875 27.046875 -13.734375 L 27.046875 0 L 20.765625 0 L 20.765625 -13.734375 C 20.765625 -15.671875 20.269531 -17.15625 19.28125 -18.1875 C 18.300781 -19.21875 16.957031 -19.734375 15.25 -19.734375 C 13.539062 -19.734375 12.1875 -19.21875 11.1875 -18.1875 C 10.1875 -17.15625 9.6875 -15.671875 9.6875 -13.734375 L 9.6875 0 L 3.359375 0 L 3.359375 -24.859375 Z M 9.6875 -24.859375 "/></g></g></g><g fill="#eceff4" fill-opacity="1"><g transform="translate(481.542885, 387.402848)"><g><path d="M 19.1875 -7.0625 C 20.507812 -8.363281 21.171875 -10.148438 21.171875 -12.421875 C 21.171875 -14.691406 20.507812 -16.476562 19.1875 -17.78125 C 17.875 -19.082031 16.335938 -19.734375 14.578125 -19.734375 C 12.816406 -19.734375 11.285156 -19.085938 9.984375 -17.796875 C 8.679688 -16.515625 8.03125 -14.738281 8.03125 -12.46875 C 8.03125 -10.195312 8.6875 -8.398438 10 -7.078125 C 11.320312 -5.765625 12.851562 -5.109375 14.59375 -5.109375 C 16.34375 -5.109375 17.875 -5.757812 19.1875 -7.0625 Z M 4.953125 -3.25 C 2.722656 -5.65625 1.609375 -8.726562 1.609375 -12.46875 C 1.609375 -16.207031 2.710938 -19.265625 4.921875 -21.640625 C 7.140625 -24.023438 9.953125 -25.21875 13.359375 -25.21875 C 16.773438 -25.21875 19.378906 -23.8125 21.171875 -21 L 21.171875 -24.859375 L 27.453125 -24.859375 L 27.453125 0 L 21.171875 0 L 21.171875 -4.171875 C 19.285156 -1.148438 16.664062 0.359375 13.3125 0.359375 C 9.96875 0.359375 7.179688 -0.84375 4.953125 -3.25 Z M 4.953125 -3.25 "/></g></g></g><g fill="#eceff4" fill-opacity="1"><g transform="translate(512.357982, 387.402848)"><g><path d="M 10.359375 -31.171875 C 10.359375 -30.097656 9.984375 -29.1875 9.234375 -28.4375 C 8.492188 -27.6875 7.59375 -27.3125 6.53125 -27.3125 C 5.46875 -27.3125 4.5625 -27.6875 3.8125 -28.4375 C 3.0625 -29.1875 2.6875 -30.097656 2.6875 -31.171875 C 2.6875 -32.253906 3.0625 -33.164062 3.8125 -33.90625 C 4.5625 -34.65625 5.46875 -35.03125 6.53125 -35.03125 C 7.59375 -35.03125 8.492188 -34.65625 9.234375 -33.90625 C 9.984375 -33.164062 10.359375 -32.253906 10.359375 -31.171875 Z M 3.359375 0 L 3.359375 -24.859375 L 9.6875 -24.859375 L 9.6875 0 Z M 3.359375 0 "/></g></g></g><g fill="#eceff4" fill-opacity="1"><g transform="translate(525.410658, 387.402848)"><g><path d="M 3.359375 0 L 3.359375 -33.203125 L 9.6875 -33.203125 L 9.6875 0 Z M 3.359375 0 "/></g></g></g></svg>