<svg xmlns="http://www.w3.org/2000/svg" xmlns:xlink="http://www.w3.org/1999/xlink" width="1000" zoomAndPan="magnify" viewBox="0 0 750 749.999995" height="1000" preserveAspectRatio="xMidYMid meet" version="1.0"><defs><g/><clipPath id="7e32b08813"><path d="M 187.097656 319.234375 L 563 319.234375 L 563 430.765625 L 187.097656 430.765625 Z M 187.097656 319.234375 " clip-rule="nonzero"/></clipPath><clipPath id="4ab21db98e"><path d="M 193.847656 319.234375 L 556.152344 319.234375 C 559.882812 319.234375 562.902344 322.253906 562.902344 325.984375 L 562.902344 424.015625 C 562.902344 427.746094 559.882812 430.765625 556.152344 430.765625 L 193.847656 430.765625 C 190.117188 430.765625 187.097656 427.746094 187.097656 424.015625 L 187.097656 325.984375 C 187.097656 322.253906 190.117188 319.234375 193.847656 319.234375 Z M 193.847656 319.234375 " clip-rule="nonzero"/></clipPath><clipPath id="27ba5f8e93"><path d="M 187.097656 319.234375 L 562.84375 319.234375 L 562.84375 430.984375 L 187.097656 430.984375 Z M 187.097656 319.234375 " clip-rule="nonzero"/></clipPath><clipPath id="a03101ba11"><path d="M 193.847656 319.234375 L 556.140625 319.234375 C 559.867188 319.234375 562.890625 322.253906 562.890625 325.984375 L 562.890625 424.011719 C 562.890625 427.738281 559.867188 430.761719 556.140625 430.761719 L 193.847656 430.761719 C 190.121094 430.761719 187.097656 427.738281 187.097656 424.011719 L 187.097656 325.984375 C 187.097656 322.253906 190.121094 319.234375 193.847656 319.234375 Z M 193.847656 319.234375 " clip-rule="nonzero"/></clipPath><clipPath id="22d0eb86df"><path d="M 193.515625 326.085938 L 556.726562 326.085938 L 556.726562 423.550781 L 193.515625 423.550781 Z M 193.515625 326.085938 " clip-rule="nonzero"/></clipPath><clipPath id="6786e8e978"><path d="M 200.265625 326.085938 L 549.734375 326.085938 C 553.460938 326.085938 556.484375 329.105469 556.484375 332.835938 L 556.484375 416.800781 C 556.484375 420.527344 553.460938 423.550781 549.734375 423.550781 L 200.265625 423.550781 C 196.539062 423.550781 193.515625 420.527344 193.515625 416.800781 L 193.515625 332.835938 C 193.515625 329.105469 196.539062 326.085938 200.265625 326.085938 Z M 200.265625 326.085938 " clip-rule="nonzero"/></clipPath><clipPath id="7c9eaf2588"><path d="M 193.515625 326.085938 L 556.515625 326.085938 L 556.515625 423.585938 L 193.515625 423.585938 Z M 193.515625 326.085938 " clip-rule="nonzero"/></clipPath><clipPath id="b5a0a95222"><path d="M 200.265625 326.085938 L 549.730469 326.085938 C 553.457031 326.085938 556.480469 329.105469 556.480469 332.835938 L 556.480469 416.800781 C 556.480469 420.527344 553.457031 423.550781 549.730469 423.550781 L 200.265625 423.550781 C 196.539062 423.550781 193.515625 420.527344 193.515625 416.800781 L 193.515625 332.835938 C 193.515625 329.105469 196.539062 326.085938 200.265625 326.085938 Z M 200.265625 326.085938 " clip-rule="nonzero"/></clipPath><clipPath id="8eee606933"><path d="M 194.578125 327.433594 L 555.726562 327.433594 L 555.726562 422.160156 L 194.578125 422.160156 Z M 194.578125 327.433594 " clip-rule="nonzero"/></clipPath><clipPath id="9b178108b2"><path d="M 199.828125 327.433594 L 550.144531 327.433594 C 553.042969 327.433594 555.394531 329.785156 555.394531 332.683594 L 555.394531 416.910156 C 555.394531 419.8125 553.042969 422.160156 550.144531 422.160156 L 199.828125 422.160156 C 196.929688 422.160156 194.578125 419.8125 194.578125 416.910156 L 194.578125 332.683594 C 194.578125 329.785156 196.929688 327.433594 199.828125 327.433594 Z M 199.828125 327.433594 " clip-rule="nonzero"/></clipPath><clipPath id="641eab4e3c"><path d="M 194.585938 327.433594 L 555.328125 327.433594 L 555.328125 421.933594 L 194.585938 421.933594 Z M 194.585938 327.433594 " clip-rule="nonzero"/></clipPath><clipPath id="7185088431"><path d="M 199.835938 327.433594 L 550.132812 327.433594 C 553.03125 327.433594 555.382812 329.785156 555.382812 332.683594 L 555.382812 416.90625 C 555.382812 419.808594 553.03125 422.15625 550.132812 422.15625 L 199.835938 422.15625 C 196.9375 422.15625 194.585938 419.808594 194.585938 416.90625 L 194.585938 332.683594 C 194.585938 329.785156 196.9375 327.433594 199.835938 327.433594 Z M 199.835938 327.433594 " clip-rule="nonzero"/></clipPath><radialGradient gradientTransform="matrix(1.333333, 0, 0, 1.333333, -0.00000465634, 0.0000272575)" gradientUnits="userSpaceOnUse" r="186.512048" cx="180.399009" id="958aa29d00" cy="47.360973" fx="180.399009" fy="47.360973"><stop stop-opacity="1" stop-color="rgb(92.346191%, 93.62793%, 95.643616%)" offset="0"/><stop stop-opacity="1" stop-color="rgb(92.115784%, 93.519592%, 95.561218%)" offset="0.0078125"/><stop stop-opacity="1" stop-color="rgb(91.963196%, 93.44635%, 95.506287%)" offset="0.0117188"/><stop stop-opacity="1" stop-color="rgb(91.810608%, 93.374634%, 95.451355%)" offset="0.015625"/><stop stop-opacity="1" stop-color="rgb(91.656494%, 93.302917%, 95.396423%)" offset="0.0195312"/><stop stop-opacity="1" stop-color="rgb(91.503906%, 93.231201%, 95.341492%)" offset="0.0234375"/><stop stop-opacity="1" stop-color="rgb(91.349792%, 93.159485%, 95.28656%)" offset="0.0273438"/><stop stop-opacity="1" stop-color="rgb(91.197205%, 93.087769%, 95.231628%)" offset="0.03125"/><stop stop-opacity="1" stop-color="rgb(91.044617%, 93.016052%, 95.175171%)" offset="0.0351562"/><stop stop-opacity="1" stop-color="rgb(90.890503%, 92.944336%, 95.120239%)" offset="0.0390625"/><stop stop-opacity="1" stop-color="rgb(90.737915%, 92.87262%, 95.065308%)" offset="0.0429688"/><stop stop-opacity="1" stop-color="rgb(90.585327%, 92.799377%, 95.010376%)" offset="0.046875"/><stop stop-opacity="1" stop-color="rgb(90.431213%, 92.727661%, 94.955444%)" offset="0.0507812"/><stop stop-opacity="1" stop-color="rgb(90.278625%, 92.655945%, 94.900513%)" offset="0.0546875"/><stop stop-opacity="1" stop-color="rgb(90.126038%, 92.584229%, 94.845581%)" offset="0.0585938"/><stop stop-opacity="1" stop-color="rgb(89.971924%, 92.512512%, 94.790649%)" offset="0.0625"/><stop stop-opacity="1" stop-color="rgb(89.819336%, 92.440796%, 94.735718%)" offset="0.0664062"/><stop stop-opacity="1" stop-color="rgb(89.666748%, 92.36908%, 94.680786%)" offset="0.0703125"/><stop stop-opacity="1" stop-color="rgb(89.512634%, 92.297363%, 94.625854%)" offset="0.0742188"/><stop stop-opacity="1" stop-color="rgb(89.360046%, 92.225647%, 94.569397%)" offset="0.078125"/><stop stop-opacity="1" stop-color="rgb(89.207458%, 92.153931%, 94.514465%)" offset="0.0820312"/><stop stop-opacity="1" stop-color="rgb(89.053345%, 92.080688%, 94.459534%)" offset="0.0859375"/><stop stop-opacity="1" stop-color="rgb(88.900757%, 92.008972%, 94.404602%)" offset="0.0898438"/><stop stop-opacity="1" stop-color="rgb(88.748169%, 91.937256%, 94.34967%)" offset="0.09375"/><stop stop-opacity="1" stop-color="rgb(88.594055%, 91.86554%, 94.294739%)" offset="0.0976562"/><stop stop-opacity="1" stop-color="rgb(88.441467%, 91.793823%, 94.239807%)" offset="0.101562"/><stop stop-opacity="1" stop-color="rgb(88.287354%, 91.722107%, 94.184875%)" offset="0.105469"/><stop stop-opacity="1" stop-color="rgb(88.134766%, 91.650391%, 94.129944%)" offset="0.109375"/><stop stop-opacity="1" stop-color="rgb(87.982178%, 91.578674%, 94.075012%)" offset="0.113281"/><stop stop-opacity="1" stop-color="rgb(87.828064%, 91.506958%, 94.018555%)" offset="0.117188"/><stop stop-opacity="1" stop-color="rgb(87.675476%, 91.435242%, 93.963623%)" offset="0.121094"/><stop stop-opacity="1" stop-color="rgb(87.522888%, 91.362%, 93.908691%)" offset="0.125"/><stop stop-opacity="1" stop-color="rgb(87.368774%, 91.290283%, 93.85376%)" offset="0.128906"/><stop stop-opacity="1" stop-color="rgb(87.216187%, 91.218567%, 93.798828%)" offset="0.132812"/><stop stop-opacity="1" stop-color="rgb(87.063599%, 91.146851%, 93.743896%)" offset="0.136719"/><stop stop-opacity="1" stop-color="rgb(86.909485%, 91.075134%, 93.688965%)" offset="0.140625"/><stop stop-opacity="1" stop-color="rgb(86.756897%, 91.003418%, 93.634033%)" offset="0.144531"/><stop stop-opacity="1" stop-color="rgb(86.604309%, 90.931702%, 93.579102%)" offset="0.148438"/><stop stop-opacity="1" stop-color="rgb(86.450195%, 90.859985%, 93.52417%)" offset="0.152344"/><stop stop-opacity="1" stop-color="rgb(86.297607%, 90.788269%, 93.469238%)" offset="0.15625"/><stop stop-opacity="1" stop-color="rgb(86.14502%, 90.715027%, 93.412781%)" offset="0.160156"/><stop stop-opacity="1" stop-color="rgb(85.990906%, 90.643311%, 93.357849%)" offset="0.164062"/><stop stop-opacity="1" stop-color="rgb(85.838318%, 90.571594%, 93.302917%)" offset="0.167969"/><stop stop-opacity="1" stop-color="rgb(85.684204%, 90.499878%, 93.247986%)" offset="0.171875"/><stop stop-opacity="1" stop-color="rgb(85.531616%, 90.428162%, 93.193054%)" offset="0.175781"/><stop stop-opacity="1" stop-color="rgb(85.379028%, 90.356445%, 93.138123%)" offset="0.179688"/><stop stop-opacity="1" stop-color="rgb(85.224915%, 90.284729%, 93.083191%)" offset="0.183594"/><stop stop-opacity="1" stop-color="rgb(85.072327%, 90.213013%, 93.028259%)" offset="0.1875"/><stop stop-opacity="1" stop-color="rgb(84.919739%, 90.141296%, 92.973328%)" offset="0.191406"/><stop stop-opacity="1" stop-color="rgb(84.765625%, 90.06958%, 92.918396%)" offset="0.195312"/><stop stop-opacity="1" stop-color="rgb(84.613037%, 89.996338%, 92.861938%)" offset="0.199219"/><stop stop-opacity="1" stop-color="rgb(84.460449%, 89.924622%, 92.807007%)" offset="0.203125"/><stop stop-opacity="1" stop-color="rgb(84.306335%, 89.852905%, 92.752075%)" offset="0.207031"/><stop stop-opacity="1" stop-color="rgb(84.153748%, 89.781189%, 92.697144%)" offset="0.210938"/><stop stop-opacity="1" stop-color="rgb(84.00116%, 89.709473%, 92.642212%)" offset="0.214844"/><stop stop-opacity="1" stop-color="rgb(83.847046%, 89.637756%, 92.58728%)" offset="0.21875"/><stop stop-opacity="1" stop-color="rgb(83.694458%, 89.56604%, 92.532349%)" offset="0.222656"/><stop stop-opacity="1" stop-color="rgb(83.54187%, 89.494324%, 92.477417%)" offset="0.226562"/><stop stop-opacity="1" stop-color="rgb(83.387756%, 89.422607%, 92.422485%)" offset="0.230469"/><stop stop-opacity="1" stop-color="rgb(83.235168%, 89.349365%, 92.367554%)" offset="0.234375"/><stop stop-opacity="1" stop-color="rgb(83.081055%, 89.277649%, 92.312622%)" offset="0.238281"/><stop stop-opacity="1" stop-color="rgb(82.928467%, 89.205933%, 92.256165%)" offset="0.242188"/><stop stop-opacity="1" stop-color="rgb(82.775879%, 89.134216%, 92.201233%)" offset="0.246094"/><stop stop-opacity="1" stop-color="rgb(82.621765%, 89.0625%, 92.146301%)" offset="0.25"/><stop stop-opacity="1" stop-color="rgb(82.392883%, 88.955688%, 92.063904%)" offset="0.253906"/><stop stop-opacity="1" stop-color="rgb(82.086182%, 88.812256%, 91.954041%)" offset="0.261719"/><stop stop-opacity="1" stop-color="rgb(81.77948%, 88.667297%, 91.844177%)" offset="0.269531"/><stop stop-opacity="1" stop-color="rgb(81.474304%, 88.523865%, 91.732788%)" offset="0.277344"/><stop stop-opacity="1" stop-color="rgb(81.167603%, 88.380432%, 91.622925%)" offset="0.285156"/><stop stop-opacity="1" stop-color="rgb(80.860901%, 88.237%, 91.513062%)" offset="0.292969"/><stop stop-opacity="1" stop-color="rgb(80.554199%, 88.093567%, 91.403198%)" offset="0.300781"/><stop stop-opacity="1" stop-color="rgb(80.249023%, 87.948608%, 91.293335%)" offset="0.308594"/><stop stop-opacity="1" stop-color="rgb(79.942322%, 87.805176%, 91.181946%)" offset="0.316406"/><stop stop-opacity="1" stop-color="rgb(79.63562%, 87.661743%, 91.072083%)" offset="0.324219"/><stop stop-opacity="1" stop-color="rgb(79.330444%, 87.518311%, 90.962219%)" offset="0.332031"/><stop stop-opacity="1" stop-color="rgb(79.023743%, 87.373352%, 90.852356%)" offset="0.339844"/><stop stop-opacity="1" stop-color="rgb(78.717041%, 87.229919%, 90.742493%)" offset="0.347656"/><stop stop-opacity="1" stop-color="rgb(78.411865%, 87.086487%, 90.632629%)" offset="0.355469"/><stop stop-opacity="1" stop-color="rgb(78.105164%, 86.943054%, 90.52124%)" offset="0.363281"/><stop stop-opacity="1" stop-color="rgb(77.798462%, 86.799622%, 90.411377%)" offset="0.371094"/><stop stop-opacity="1" stop-color="rgb(77.49176%, 86.654663%, 90.301514%)" offset="0.378906"/><stop stop-opacity="1" stop-color="rgb(77.186584%, 86.51123%, 90.19165%)" offset="0.386719"/><stop stop-opacity="1" stop-color="rgb(76.879883%, 86.367798%, 90.081787%)" offset="0.394531"/><stop stop-opacity="1" stop-color="rgb(76.573181%, 86.224365%, 89.970398%)" offset="0.402344"/><stop stop-opacity="1" stop-color="rgb(76.268005%, 86.080933%, 89.860535%)" offset="0.410156"/><stop stop-opacity="1" stop-color="rgb(75.961304%, 85.935974%, 89.750671%)" offset="0.417969"/><stop stop-opacity="1" stop-color="rgb(75.654602%, 85.792542%, 89.640808%)" offset="0.425781"/><stop stop-opacity="1" stop-color="rgb(75.349426%, 85.649109%, 89.530945%)" offset="0.433594"/><stop stop-opacity="1" stop-color="rgb(75.042725%, 85.505676%, 89.419556%)" offset="0.441406"/><stop stop-opacity="1" stop-color="rgb(74.736023%, 85.362244%, 89.309692%)" offset="0.449219"/><stop stop-opacity="1" stop-color="rgb(74.429321%, 85.217285%, 89.199829%)" offset="0.457031"/><stop stop-opacity="1" stop-color="rgb(74.124146%, 85.073853%, 89.089966%)" offset="0.464844"/><stop stop-opacity="1" stop-color="rgb(73.817444%, 84.93042%, 88.980103%)" offset="0.472656"/><stop stop-opacity="1" stop-color="rgb(73.510742%, 84.786987%, 88.868713%)" offset="0.480469"/><stop stop-opacity="1" stop-color="rgb(73.205566%, 84.643555%, 88.75885%)" offset="0.488281"/><stop stop-opacity="1" stop-color="rgb(72.898865%, 84.498596%, 88.648987%)" offset="0.496094"/><stop stop-opacity="1" stop-color="rgb(72.669983%, 84.390259%, 88.566589%)" offset="0.503906"/><stop stop-opacity="1" stop-color="rgb(72.515869%, 84.318542%, 88.511658%)" offset="0.507812"/><stop stop-opacity="1" stop-color="rgb(72.363281%, 84.246826%, 88.456726%)" offset="0.511719"/><stop stop-opacity="1" stop-color="rgb(72.209167%, 84.17511%, 88.401794%)" offset="0.515625"/><stop stop-opacity="1" stop-color="rgb(72.05658%, 84.103394%, 88.346863%)" offset="0.519531"/><stop stop-opacity="1" stop-color="rgb(71.903992%, 84.031677%, 88.290405%)" offset="0.523438"/><stop stop-opacity="1" stop-color="rgb(71.749878%, 83.959961%, 88.235474%)" offset="0.527344"/><stop stop-opacity="1" stop-color="rgb(71.59729%, 83.888245%, 88.180542%)" offset="0.53125"/><stop stop-opacity="1" stop-color="rgb(71.444702%, 83.815002%, 88.12561%)" offset="0.535156"/><stop stop-opacity="1" stop-color="rgb(71.290588%, 83.743286%, 88.070679%)" offset="0.539062"/><stop stop-opacity="1" stop-color="rgb(71.138%, 83.67157%, 88.015747%)" offset="0.542969"/><stop stop-opacity="1" stop-color="rgb(70.985413%, 83.599854%, 87.960815%)" offset="0.546875"/><stop stop-opacity="1" stop-color="rgb(70.831299%, 83.528137%, 87.905884%)" offset="0.550781"/><stop stop-opacity="1" stop-color="rgb(70.678711%, 83.456421%, 87.850952%)" offset="0.554688"/><stop stop-opacity="1" stop-color="rgb(70.526123%, 83.384705%, 87.796021%)" offset="0.558594"/><stop stop-opacity="1" stop-color="rgb(70.372009%, 83.312988%, 87.741089%)" offset="0.5625"/><stop stop-opacity="1" stop-color="rgb(70.219421%, 83.241272%, 87.684631%)" offset="0.566406"/><stop stop-opacity="1" stop-color="rgb(70.066833%, 83.169556%, 87.6297%)" offset="0.570312"/><stop stop-opacity="1" stop-color="rgb(69.91272%, 83.096313%, 87.574768%)" offset="0.574219"/><stop stop-opacity="1" stop-color="rgb(69.760132%, 83.024597%, 87.519836%)" offset="0.578125"/><stop stop-opacity="1" stop-color="rgb(69.607544%, 82.952881%, 87.464905%)" offset="0.582031"/><stop stop-opacity="1" stop-color="rgb(69.45343%, 82.881165%, 87.409973%)" offset="0.585938"/><stop stop-opacity="1" stop-color="rgb(69.300842%, 82.809448%, 87.355042%)" offset="0.589844"/><stop stop-opacity="1" stop-color="rgb(69.146729%, 82.737732%, 87.30011%)" offset="0.59375"/><stop stop-opacity="1" stop-color="rgb(68.994141%, 82.666016%, 87.245178%)" offset="0.597656"/><stop stop-opacity="1" stop-color="rgb(68.841553%, 82.594299%, 87.190247%)" offset="0.601562"/><stop stop-opacity="1" stop-color="rgb(68.687439%, 82.522583%, 87.133789%)" offset="0.605469"/><stop stop-opacity="1" stop-color="rgb(68.534851%, 82.450867%, 87.078857%)" offset="0.609375"/><stop stop-opacity="1" stop-color="rgb(68.382263%, 82.377625%, 87.023926%)" offset="0.613281"/><stop stop-opacity="1" stop-color="rgb(68.228149%, 82.305908%, 86.968994%)" offset="0.617188"/><stop stop-opacity="1" stop-color="rgb(68.075562%, 82.234192%, 86.914062%)" offset="0.621094"/><stop stop-opacity="1" stop-color="rgb(67.922974%, 82.162476%, 86.859131%)" offset="0.625"/><stop stop-opacity="1" stop-color="rgb(67.692566%, 82.055664%, 86.776733%)" offset="0.628906"/><stop stop-opacity="1" stop-color="rgb(67.385864%, 81.912231%, 86.66687%)" offset="0.636719"/><stop stop-opacity="1" stop-color="rgb(67.080688%, 81.767273%, 86.555481%)" offset="0.644531"/><stop stop-opacity="1" stop-color="rgb(66.773987%, 81.62384%, 86.445618%)" offset="0.652344"/><stop stop-opacity="1" stop-color="rgb(66.467285%, 81.480408%, 86.335754%)" offset="0.660156"/><stop stop-opacity="1" stop-color="rgb(66.160583%, 81.336975%, 86.225891%)" offset="0.667969"/><stop stop-opacity="1" stop-color="rgb(65.855408%, 81.193542%, 86.116028%)" offset="0.675781"/><stop stop-opacity="1" stop-color="rgb(65.548706%, 81.048584%, 86.004639%)" offset="0.683594"/><stop stop-opacity="1" stop-color="rgb(65.242004%, 80.905151%, 85.894775%)" offset="0.691406"/><stop stop-opacity="1" stop-color="rgb(64.936829%, 80.761719%, 85.784912%)" offset="0.699219"/><stop stop-opacity="1" stop-color="rgb(64.630127%, 80.618286%, 85.675049%)" offset="0.707031"/><stop stop-opacity="1" stop-color="rgb(64.323425%, 80.473328%, 85.565186%)" offset="0.714844"/><stop stop-opacity="1" stop-color="rgb(64.016724%, 80.329895%, 85.455322%)" offset="0.722656"/><stop stop-opacity="1" stop-color="rgb(63.711548%, 80.186462%, 85.343933%)" offset="0.730469"/><stop stop-opacity="1" stop-color="rgb(63.404846%, 80.04303%, 85.23407%)" offset="0.738281"/><stop stop-opacity="1" stop-color="rgb(63.098145%, 79.899597%, 85.124207%)" offset="0.746094"/><stop stop-opacity="1" stop-color="rgb(62.869263%, 79.79126%, 85.041809%)" offset="0.753906"/><stop stop-opacity="1" stop-color="rgb(62.716675%, 79.719543%, 84.986877%)" offset="0.757812"/><stop stop-opacity="1" stop-color="rgb(62.562561%, 79.646301%, 84.931946%)" offset="0.761719"/><stop stop-opacity="1" stop-color="rgb(62.409973%, 79.574585%, 84.877014%)" offset="0.765625"/><stop stop-opacity="1" stop-color="rgb(62.257385%, 79.502869%, 84.820557%)" offset="0.769531"/><stop stop-opacity="1" stop-color="rgb(62.103271%, 79.431152%, 84.765625%)" offset="0.773438"/><stop stop-opacity="1" stop-color="rgb(61.950684%, 79.359436%, 84.710693%)" offset="0.777344"/><stop stop-opacity="1" stop-color="rgb(61.798096%, 79.28772%, 84.655762%)" offset="0.78125"/><stop stop-opacity="1" stop-color="rgb(61.643982%, 79.216003%, 84.60083%)" offset="0.785156"/><stop stop-opacity="1" stop-color="rgb(61.491394%, 79.144287%, 84.545898%)" offset="0.789062"/><stop stop-opacity="1" stop-color="rgb(61.33728%, 79.072571%, 84.490967%)" offset="0.792969"/><stop stop-opacity="1" stop-color="rgb(61.184692%, 79.000854%, 84.436035%)" offset="0.796875"/><stop stop-opacity="1" stop-color="rgb(61.032104%, 78.927612%, 84.381104%)" offset="0.800781"/><stop stop-opacity="1" stop-color="rgb(60.877991%, 78.855896%, 84.326172%)" offset="0.804688"/><stop stop-opacity="1" stop-color="rgb(60.725403%, 78.78418%, 84.269714%)" offset="0.808594"/><stop stop-opacity="1" stop-color="rgb(60.572815%, 78.712463%, 84.214783%)" offset="0.8125"/><stop stop-opacity="1" stop-color="rgb(60.342407%, 78.605652%, 84.132385%)" offset="0.816406"/><stop stop-opacity="1" stop-color="rgb(60.035706%, 78.462219%, 84.022522%)" offset="0.824219"/><stop stop-opacity="1" stop-color="rgb(59.73053%, 78.317261%, 83.912659%)" offset="0.832031"/><stop stop-opacity="1" stop-color="rgb(59.423828%, 78.173828%, 83.802795%)" offset="0.839844"/><stop stop-opacity="1" stop-color="rgb(59.117126%, 78.030396%, 83.691406%)" offset="0.847656"/><stop stop-opacity="1" stop-color="rgb(58.811951%, 77.886963%, 83.581543%)" offset="0.855469"/><stop stop-opacity="1" stop-color="rgb(58.505249%, 77.74353%, 83.47168%)" offset="0.863281"/><stop stop-opacity="1" stop-color="rgb(58.198547%, 77.598572%, 83.361816%)" offset="0.871094"/><stop stop-opacity="1" stop-color="rgb(57.969666%, 77.490234%, 83.279419%)" offset="0.878906"/><stop stop-opacity="1" stop-color="rgb(57.815552%, 77.418518%, 83.224487%)" offset="0.882812"/><stop stop-opacity="1" stop-color="rgb(57.662964%, 77.346802%, 83.169556%)" offset="0.886719"/><stop stop-opacity="1" stop-color="rgb(57.510376%, 77.275085%, 83.113098%)" offset="0.890625"/><stop stop-opacity="1" stop-color="rgb(57.356262%, 77.203369%, 83.058167%)" offset="0.894531"/><stop stop-opacity="1" stop-color="rgb(57.203674%, 77.131653%, 83.003235%)" offset="0.898438"/><stop stop-opacity="1" stop-color="rgb(57.051086%, 77.059937%, 82.948303%)" offset="0.902344"/><stop stop-opacity="1" stop-color="rgb(56.896973%, 76.98822%, 82.893372%)" offset="0.90625"/><stop stop-opacity="1" stop-color="rgb(56.668091%, 76.879883%, 82.810974%)" offset="0.910156"/><stop stop-opacity="1" stop-color="rgb(56.361389%, 76.73645%, 82.701111%)" offset="0.917969"/><stop stop-opacity="1" stop-color="rgb(56.054688%, 76.593018%, 82.591248%)" offset="0.925781"/><stop stop-opacity="1" stop-color="rgb(55.747986%, 76.449585%, 82.479858%)" offset="0.933594"/><stop stop-opacity="1" stop-color="rgb(55.519104%, 76.341248%, 82.397461%)" offset="0.941406"/><stop stop-opacity="1" stop-color="rgb(55.366516%, 76.269531%, 82.342529%)" offset="0.945312"/><stop stop-opacity="1" stop-color="rgb(55.212402%, 76.196289%, 82.287598%)" offset="0.949219"/><stop stop-opacity="1" stop-color="rgb(55.059814%, 76.124573%, 82.232666%)" offset="0.953125"/><stop stop-opacity="1" stop-color="rgb(54.829407%, 76.017761%, 82.150269%)" offset="0.957031"/><stop stop-opacity="1" stop-color="rgb(54.524231%, 75.874329%, 82.040405%)" offset="0.964844"/><stop stop-opacity="1" stop-color="rgb(54.293823%, 75.765991%, 81.956482%)" offset="0.972656"/><stop stop-opacity="1" stop-color="rgb(54.141235%, 75.694275%, 81.90155%)" offset="0.976562"/><stop stop-opacity="1" stop-color="rgb(53.910828%, 75.585938%, 81.819153%)" offset="0.980469"/><stop stop-opacity="1" stop-color="rgb(53.681946%, 75.4776%, 81.736755%)" offset="0.988281"/><stop stop-opacity="1" stop-color="rgb(53.451538%, 75.370789%, 81.654358%)" offset="0.992188"/><stop stop-opacity="1" stop-color="rgb(53.29895%, 75.299072%, 81.599426%)" offset="1"/></radialGradient></defs><g clip-path="url(#7e32b08813)"><g clip-path="url(#4ab21db98e)"><path fill="#d9d9d9" d="M 187.097656 319.234375 L 563.082031 319.234375 L 563.082031 430.765625 L 187.097656 430.765625 Z M 187.097656 319.234375 " fill-opacity="1" fill-rule="nonzero"/></g></g><g clip-path="url(#27ba5f8e93)"><g clip-path="url(#a03101ba11)"><path stroke-linecap="butt" transform="matrix(0.75, 0, 0, 0.75, 187.098627, 319.233756)" fill="none" stroke-linejoin="miter" d="M 8.998706 0.00082581 L 492.056021 0.00082581 C 497.024771 0.00082581 501.056022 4.026868 501.056022 9.000826 L 501.056022 139.703958 C 501.056022 144.672708 497.024771 148.703958 492.056021 148.703958 L 8.998706 148.703958 C 4.029956 148.703958 -0.00129451 144.672708 -0.00129451 139.703958 L -0.00129451 9.000826 C -0.00129451 4.026868 4.029956 0.00082581 8.998706 0.00082581 Z M 8.998706 0.00082581 " stroke="#000000" stroke-width="4" stroke-opacity="1" stroke-miterlimit="4"/></g></g><g clip-path="url(#22d0eb86df)"><g clip-path="url(#6786e8e978)"><path fill="#bf616a" d="M 193.515625 326.085938 L 556.347656 326.085938 L 556.347656 423.550781 L 193.515625 423.550781 Z M 193.515625 326.085938 " fill-opacity="1" fill-rule="nonzero"/></g></g><g clip-path="url(#7c9eaf2588)"><g clip-path="url(#b5a0a95222)"><path stroke-linecap="butt" transform="matrix(0.75, 0, 0, 0.75, 193.516164, 326.084447)" fill="none" stroke-linejoin="miter" d="M 8.999282 0.00198692 L 474.952459 0.00198692 C 479.92121 0.00198692 483.95246 4.028029 483.95246 9.001988 L 483.95246 120.955126 C 483.95246 125.923876 479.92121 129.955127 474.952459 129.955127 L 8.999282 129.955127 C 4.030531 129.955127 -0.000719226 125.923876 -0.000719226 120.955126 L -0.000719226 9.001988 C -0.000719226 4.028029 4.030531 0.00198692 8.999282 0.00198692 Z M 8.999282 0.00198692 " stroke="#000000" stroke-width="4" stroke-opacity="1" stroke-miterlimit="4"/></g></g><g clip-path="url(#8eee606933)"><g clip-path="url(#9b178108b2)"><path fill="#88c0d0" d="M 194.578125 327.433594 L 555.355469 327.433594 L 555.355469 422.160156 L 194.578125 422.160156 Z M 194.578125 327.433594 " fill-opacity="1" fill-rule="nonzero"/></g></g><g clip-path="url(#641eab4e3c)"><g clip-path="url(#7185088431)"><path stroke-linecap="butt" transform="matrix(0.75, 0, 0, 0.75, 194.585955, 327.434447)" fill="none" stroke-linejoin="miter" d="M 6.999977 -0.00113799 L 474.06247 -0.00113799 C 477.927053 -0.00113799 481.06247 3.134279 481.06247 6.998862 L 481.06247 119.295735 C 481.06247 123.165527 477.927053 126.295735 474.06247 126.295735 L 6.999977 126.295735 C 3.135394 126.295735 -0.0000230229 123.165527 -0.0000230229 119.295735 L -0.0000230229 6.998862 C -0.0000230229 3.134279 3.135394 -0.00113799 6.999977 -0.00113799 Z M 6.999977 -0.00113799 " stroke="url(#958aa29d00)" stroke-width="16" stroke-miterlimit="4"/></g></g><g fill="#eceff4" fill-opacity="1"><g transform="translate(262.896904, 391.670598)"><g><path d="M 11.5 -14.796875 L 11.5 0 L 3.984375 0 L 3.984375 -37.140625 L 17.671875 -37.140625 C 21.960938 -37.140625 25.269531 -36.066406 27.59375 -33.921875 C 29.914062 -31.773438 31.078125 -29.125 31.078125 -25.96875 C 31.078125 -23.625 30.367188 -21.441406 28.953125 -19.421875 C 27.535156 -17.398438 25.300781 -16.019531 22.25 -15.28125 L 31.71875 0 L 22.828125 0 L 13.9375 -14.796875 Z M 11.5 -31.40625 L 11.5 -20.546875 L 17.671875 -20.546875 C 19.546875 -20.546875 20.976562 -21.03125 21.96875 -22 C 22.96875 -22.976562 23.46875 -24.300781 23.46875 -25.96875 C 23.46875 -27.632812 22.96875 -28.957031 21.96875 -29.9375 C 20.976562 -30.914062 19.546875 -31.40625 17.671875 -31.40625 Z M 11.5 -31.40625 "/></g></g></g><g fill="#eceff4" fill-opacity="1"><g transform="translate(297.425684, 391.670598)"><g><path d="M 16.4375 0.421875 C 12.144531 0.421875 8.648438 -0.96875 5.953125 -3.75 C 3.265625 -6.53125 1.921875 -10.207031 1.921875 -14.78125 C 1.921875 -19.363281 3.273438 -23.03125 5.984375 -25.78125 C 8.703125 -28.53125 12.210938 -29.90625 16.515625 -29.90625 C 20.828125 -29.90625 24.367188 -28.566406 27.140625 -25.890625 C 29.910156 -23.210938 31.296875 -19.640625 31.296875 -15.171875 C 31.296875 -14.140625 31.222656 -13.179688 31.078125 -12.296875 L 9.578125 -12.296875 C 9.753906 -10.378906 10.460938 -8.832031 11.703125 -7.65625 C 12.953125 -6.488281 14.53125 -5.90625 16.4375 -5.90625 C 19.03125 -5.90625 20.945312 -6.96875 22.1875 -9.09375 L 30.28125 -9.09375 C 29.425781 -6.289062 27.773438 -4.003906 25.328125 -2.234375 C 22.878906 -0.460938 19.914062 0.421875 16.4375 0.421875 Z M 23.515625 -17.140625 C 23.410156 -19.085938 22.691406 -20.644531 21.359375 -21.8125 C 20.035156 -22.988281 18.429688 -23.578125 16.546875 -23.578125 C 14.671875 -23.578125 13.101562 -22.988281 11.84375 -21.8125 C 10.582031 -20.644531 9.828125 -19.085938 9.578125 -17.140625 Z M 23.515625 -17.140625 "/></g></g></g><g fill="#eceff4" fill-opacity="1"><g transform="translate(330.624386, 391.670598)"><g><path d="M 5.875 -3.859375 C 3.238281 -6.710938 1.921875 -10.359375 1.921875 -14.796875 C 1.921875 -19.234375 3.234375 -22.859375 5.859375 -25.671875 C 8.484375 -28.492188 11.816406 -29.90625 15.859375 -29.90625 C 19.898438 -29.90625 22.988281 -28.238281 25.125 -24.90625 L 25.125 -29.484375 L 32.5625 -29.484375 L 32.5625 0.21875 C 32.5625 4.4375 31.320312 7.882812 28.84375 10.5625 C 26.363281 13.238281 22.878906 14.578125 18.390625 14.578125 C 13.898438 14.578125 10.332031 13.644531 7.6875 11.78125 C 5.039062 9.925781 3.539062 7.273438 3.1875 3.828125 L 10.53125 3.828125 C 11 5.140625 11.890625 6.175781 13.203125 6.9375 C 14.515625 7.707031 16.160156 8.09375 18.140625 8.09375 C 20.128906 8.09375 21.789062 7.4375 23.125 6.125 C 24.457031 4.8125 25.125 2.84375 25.125 0.21875 L 25.125 -4.953125 C 22.882812 -1.367188 19.773438 0.421875 15.796875 0.421875 C 11.828125 0.421875 8.519531 -1.003906 5.875 -3.859375 Z M 22.78125 -8.375 C 24.34375 -9.925781 25.125 -12.046875 25.125 -14.734375 C 25.125 -17.429688 24.34375 -19.550781 22.78125 -21.09375 C 21.21875 -22.644531 19.390625 -23.421875 17.296875 -23.421875 C 15.203125 -23.421875 13.382812 -22.65625 11.84375 -21.125 C 10.300781 -19.601562 9.53125 -17.492188 9.53125 -14.796875 C 9.53125 -12.097656 10.304688 -9.96875 11.859375 -8.40625 C 13.421875 -6.84375 15.238281 -6.0625 17.3125 -6.0625 C 19.394531 -6.0625 21.21875 -6.832031 22.78125 -8.375 Z M 22.78125 -8.375 "/></g></g></g><g fill="#eceff4" fill-opacity="1"><g transform="translate(367.17488, 391.670598)"><g><path d="M 12.296875 -36.984375 C 12.296875 -35.710938 11.847656 -34.628906 10.953125 -33.734375 C 10.066406 -32.847656 8.992188 -32.40625 7.734375 -32.40625 C 6.484375 -32.40625 5.410156 -32.847656 4.515625 -33.734375 C 3.628906 -34.628906 3.1875 -35.710938 3.1875 -36.984375 C 3.1875 -38.265625 3.628906 -39.347656 4.515625 -40.234375 C 5.410156 -41.117188 6.484375 -41.5625 7.734375 -41.5625 C 8.992188 -41.5625 10.066406 -41.117188 10.953125 -40.234375 C 11.847656 -39.347656 12.296875 -38.265625 12.296875 -36.984375 Z M 3.984375 0 L 3.984375 -29.484375 L 11.5 -29.484375 L 11.5 0 Z M 3.984375 0 "/></g></g></g><g fill="#eceff4" fill-opacity="1"><g transform="translate(382.656961, 391.670598)"><g><path d="M 2.34375 -20.859375 C 2.34375 -23.410156 3.421875 -25.554688 5.578125 -27.296875 C 7.742188 -29.035156 10.617188 -29.90625 14.203125 -29.90625 C 17.785156 -29.90625 20.660156 -29.046875 22.828125 -27.328125 C 24.992188 -25.609375 26.148438 -23.273438 26.296875 -20.328125 L 18.625 -20.328125 C 18.414062 -22.816406 16.890625 -24.0625 14.046875 -24.0625 C 12.628906 -24.0625 11.53125 -23.773438 10.75 -23.203125 C 9.96875 -22.640625 9.578125 -21.859375 9.578125 -20.859375 C 9.578125 -19.867188 10.160156 -19.085938 11.328125 -18.515625 C 12.503906 -17.953125 13.925781 -17.507812 15.59375 -17.1875 C 17.257812 -16.863281 18.914062 -16.460938 20.5625 -15.984375 C 22.21875 -15.515625 23.628906 -14.664062 24.796875 -13.4375 C 25.972656 -12.21875 26.5625 -10.59375 26.5625 -8.5625 C 26.5625 -5.90625 25.429688 -3.742188 23.171875 -2.078125 C 20.921875 -0.410156 18.046875 0.421875 14.546875 0.421875 C 11.054688 0.421875 8.191406 -0.398438 5.953125 -2.046875 C 3.722656 -3.703125 2.5 -6.070312 2.28125 -9.15625 L 9.953125 -9.15625 C 10.234375 -6.664062 11.8125 -5.421875 14.6875 -5.421875 C 16.070312 -5.421875 17.1875 -5.734375 18.03125 -6.359375 C 18.882812 -6.984375 19.3125 -7.800781 19.3125 -8.8125 C 19.3125 -9.820312 18.726562 -10.617188 17.5625 -11.203125 C 16.394531 -11.785156 14.972656 -12.234375 13.296875 -12.546875 C 11.628906 -12.867188 9.972656 -13.257812 8.328125 -13.71875 C 6.679688 -14.1875 5.269531 -15.015625 4.09375 -16.203125 C 2.925781 -17.390625 2.34375 -18.941406 2.34375 -20.859375 Z M 2.34375 -20.859375 "/></g></g></g><g fill="#eceff4" fill-opacity="1"><g transform="translate(411.599423, 391.670598)"><g><path d="M 15.4375 -6.28125 L 19 -6.28125 L 19 0 L 14.265625 0 C 11.242188 0 8.914062 -0.691406 7.28125 -2.078125 C 5.65625 -3.460938 4.84375 -5.75 4.84375 -8.9375 L 4.84375 -23.359375 L 1.703125 -23.359375 L 1.703125 -29.484375 L 4.84375 -29.484375 L 4.84375 -36.78125 L 12.34375 -36.78125 L 12.34375 -29.484375 L 18.953125 -29.484375 L 18.953125 -23.359375 L 12.34375 -23.359375 L 12.34375 -8.9375 C 12.34375 -7.976562 12.570312 -7.296875 13.03125 -6.890625 C 13.5 -6.484375 14.300781 -6.28125 15.4375 -6.28125 Z M 15.4375 -6.28125 "/></g></g></g><g fill="#eceff4" fill-opacity="1"><g transform="translate(432.455021, 391.670598)"><g><path d="M 16.4375 0.421875 C 12.144531 0.421875 8.648438 -0.96875 5.953125 -3.75 C 3.265625 -6.53125 1.921875 -10.207031 1.921875 -14.78125 C 1.921875 -19.363281 3.273438 -23.03125 5.984375 -25.78125 C 8.703125 -28.53125 12.210938 -29.90625 16.515625 -29.90625 C 20.828125 -29.90625 24.367188 -28.566406 27.140625 -25.890625 C 29.910156 -23.210938 31.296875 -19.640625 31.296875 -15.171875 C 31.296875 -14.140625 31.222656 -13.179688 31.078125 -12.296875 L 9.578125 -12.296875 C 9.753906 -10.378906 10.460938 -8.832031 11.703125 -7.65625 C 12.953125 -6.488281 14.53125 -5.90625 16.4375 -5.90625 C 19.03125 -5.90625 20.945312 -6.96875 22.1875 -9.09375 L 30.28125 -9.09375 C 29.425781 -6.289062 27.773438 -4.003906 25.328125 -2.234375 C 22.878906 -0.460938 19.914062 0.421875 16.4375 0.421875 Z M 23.515625 -17.140625 C 23.410156 -19.085938 22.691406 -20.644531 21.359375 -21.8125 C 20.035156 -22.988281 18.429688 -23.578125 16.546875 -23.578125 C 14.671875 -23.578125 13.101562 -22.988281 11.84375 -21.8125 C 10.582031 -20.644531 9.828125 -19.085938 9.578125 -17.140625 Z M 23.515625 -17.140625 "/></g></g></g><g fill="#eceff4" fill-opacity="1"><g transform="translate(465.653723, 391.670598)"><g><path d="M 11.5 -29.484375 L 11.5 -24.265625 C 13.476562 -28.023438 16.347656 -29.90625 20.109375 -29.90625 L 20.109375 -22.25 L 18.25 -22.25 C 16.019531 -22.25 14.335938 -21.6875 13.203125 -20.5625 C 12.066406 -19.445312 11.5 -17.523438 11.5 -14.796875 L 11.5 0 L 3.984375 0 L 3.984375 -29.484375 Z M 11.5 -29.484375 "/></g></g></g></svg>