<svg id="b971e1b8-6381-4672-a22e-39beafde3a54" data-name="Layer 1" xmlns="http://www.w3.org/2000/svg" xmlns:xlink="http://www.w3.org/1999/xlink" viewBox="0 0 606 203.65"><defs><style>.abdbf8db-44b7-4855-9852-efb8d6b52db5,.b01c5549-736c-45ea-8db4-d830c6c37b63,.b4699c69-5b72-46bd-a68a-9fd00ff66722{fill:none;}.a76321ea-3e8d-4e10-b935-37b13c00acd2{clip-path:url(#f18b7bfc-1a07-4a2f-8279-b7ed189cf419);}.b0a2366c-c606-4665-87a4-ae59a1d48e2d{clip-path:url(#b010b6f0-66e4-4170-84a0-f1f9b8c542bc);}.bec4d2a4-dad1-49a1-83ae-c6454f5da5ad{fill:#d9d9d9;}.b9385197-a4a6-4739-a623-cbb4a11b1b66{clip-path:url(#fe1dd2cc-4da9-4de4-a60a-0576fec693a7);}.ac2af2ff-af4a-497f-9809-31047f9da8d1{clip-path:url(#ed0003ad-9072-4dbb-8dcf-06a26d68cdcb);}.abdbf8db-44b7-4855-9852-efb8d6b52db5{stroke:#000;stroke-width:4px;}.b35b3c88-2054-412c-8ddd-36e7ec5db32c{clip-path:url(#ef9e5d7c-4fcc-41d1-a8d1-4ef2049c39a6);}.fe6c84fb-bf0f-4492-a09d-9a8fdf255bb2{clip-path:url(#a98e6c30-585d-4946-80fb-e00cf5077af2);}.ee050004-2f97-497b-b4be-7f46c7e57dc6{fill:#bf616a;}.a2f00c96-40a9-4d76-acf1-cd5e2db31b34{clip-path:url(#b26ae8ca-683a-4ea3-8cf5-8016e831b115);}.e91e1e1f-2e13-4f36-a9d6-79b7a75406ff{clip-path:url(#a6af624f-0b72-4daa-b508-9057f7d0e658);}.e2b4d40d-eaf2-4dc2-a914-380c9b147892{clip-path:url(#fedbc3fc-248b-4091-8120-2c3e8895c871);}.e763e23c-9496-4bfa-9611-6b90adaf7978{clip-path:url(#b4581832-c6cf-4e95-bc05-dbdd0fa7e836);}.f808d3f2-0a57-466d-8ac4-589e495d4265{fill:#88c0d0;}.a717aeaf-64b9-401d-8a0d-6718cacf55b0{clip-path:url(#f09693a1-faa4-4470-aa9f-28135d72f98d);}.a894ee3b-7fb2-437c-b568-638deeb901fa{clip-path:url(#b325e429-7f3f-4393-b027-bc23e0f05298);}.b01c5549-736c-45ea-8db4-d830c6c37b63{stroke-width:16px;stroke:url(#ed93e53d-a270-4827-8a34-3b348656adc2);}.bec9d3ef-4125-4c3a-9352-81570940aa96{fill:#eceff4;}</style><clipPath id="f18b7bfc-1a07-4a2f-8279-b7ed189cf419"><rect class="b4699c69-5b72-46bd-a68a-9fd00ff66722" y="54.65" width="605.88" height="148.71"/></clipPath><clipPath id="b010b6f0-66e4-4170-84a0-f1f9b8c542bc"><rect class="b4699c69-5b72-46bd-a68a-9fd00ff66722" y="54.65" width="605.65" height="148.71" rx="9"/></clipPath><clipPath id="fe1dd2cc-4da9-4de4-a60a-0576fec693a7"><rect class="b4699c69-5b72-46bd-a68a-9fd00ff66722" y="54.65" width="606" height="149"/></clipPath><clipPath id="ed0003ad-9072-4dbb-8dcf-06a26d68cdcb"><rect class="b4699c69-5b72-46bd-a68a-9fd00ff66722" x="0.01" y="54.65" width="605.62" height="148.7" rx="9"/></clipPath><clipPath id="ef9e5d7c-4fcc-41d1-a8d1-4ef2049c39a6"><rect class="b4699c69-5b72-46bd-a68a-9fd00ff66722" x="10.35" y="63.78" width="585.3" height="129.95"/></clipPath><clipPath id="a98e6c30-585d-4946-80fb-e00cf5077af2"><rect class="b4699c69-5b72-46bd-a68a-9fd00ff66722" x="10.35" y="63.78" width="584.95" height="129.95" rx="9"/></clipPath><clipPath id="b26ae8ca-683a-4ea3-8cf5-8016e831b115"><rect class="b4699c69-5b72-46bd-a68a-9fd00ff66722" x="10.35" y="63.78" width="585" height="130"/></clipPath><clipPath id="a6af624f-0b72-4daa-b508-9057f7d0e658"><rect class="b4699c69-5b72-46bd-a68a-9fd00ff66722" x="10.35" y="63.78" width="584.94" height="129.95" rx="9"/></clipPath><clipPath id="fedbc3fc-248b-4091-8120-2c3e8895c871"><rect class="b4699c69-5b72-46bd-a68a-9fd00ff66722" x="12.06" y="65.58" width="581.68" height="126.3"/></clipPath><clipPath id="b4581832-c6cf-4e95-bc05-dbdd0fa7e836"><rect class="b4699c69-5b72-46bd-a68a-9fd00ff66722" x="12.06" y="65.58" width="581.48" height="126.3" rx="7"/></clipPath><clipPath id="f09693a1-faa4-4470-aa9f-28135d72f98d"><rect class="b4699c69-5b72-46bd-a68a-9fd00ff66722" x="12.07" y="65.58" width="580.99" height="126"/></clipPath><clipPath id="b325e429-7f3f-4393-b027-bc23e0f05298"><rect class="b4699c69-5b72-46bd-a68a-9fd00ff66722" x="12.07" y="65.58" width="581.45" height="126.3" rx="7"/></clipPath><radialGradient id="ed93e53d-a270-4827-8a34-3b348656adc2" cx="69.37" cy="555.64" r="223.13" gradientTransform="matrix(1.33, 0, 0, -1.33, 210.31, 869.58)" gradientUnits="userSpaceOnUse"><stop offset="0" stop-color="#ebeff4"/><stop offset="0.01" stop-color="#ebeef4"/><stop offset="0.01" stop-color="#ebeef4"/><stop offset="0.02" stop-color="#eaeef3"/><stop offset="0.02" stop-color="#eaeef3"/><stop offset="0.02" stop-color="#e9eef3"/><stop offset="0.03" stop-color="#e9eef3"/><stop offset="0.03" stop-color="#e9edf3"/><stop offset="0.04" stop-color="#e8edf3"/><stop offset="0.04" stop-color="#e8edf3"/><stop offset="0.04" stop-color="#e7edf2"/><stop offset="0.05" stop-color="#e7edf2"/><stop offset="0.05" stop-color="#e7ecf2"/><stop offset="0.05" stop-color="#e6ecf2"/><stop offset="0.06" stop-color="#e6ecf2"/><stop offset="0.06" stop-color="#e5ecf2"/><stop offset="0.07" stop-color="#e5ecf2"/><stop offset="0.07" stop-color="#e5ecf1"/><stop offset="0.07" stop-color="#e4ebf1"/><stop offset="0.08" stop-color="#e4ebf1"/><stop offset="0.08" stop-color="#e3ebf1"/><stop offset="0.09" stop-color="#e3ebf1"/><stop offset="0.09" stop-color="#e3ebf1"/><stop offset="0.09" stop-color="#e2eaf1"/><stop offset="0.1" stop-color="#e2eaf0"/><stop offset="0.1" stop-color="#e2eaf0"/><stop offset="0.11" stop-color="#e1eaf0"/><stop offset="0.11" stop-color="#e1eaf0"/><stop offset="0.11" stop-color="#e0eaf0"/><stop offset="0.12" stop-color="#e0e9f0"/><stop offset="0.12" stop-color="#e0e9f0"/><stop offset="0.13" stop-color="#dfe9ef"/><stop offset="0.13" stop-color="#dfe9ef"/><stop offset="0.13" stop-color="#dee9ef"/><stop offset="0.14" stop-color="#dee8ef"/><stop offset="0.14" stop-color="#dee8ef"/><stop offset="0.14" stop-color="#dde8ef"/><stop offset="0.15" stop-color="#dde8ef"/><stop offset="0.15" stop-color="#dce8ee"/><stop offset="0.16" stop-color="#dce8ee"/><stop offset="0.16" stop-color="#dce7ee"/><stop offset="0.16" stop-color="#dbe7ee"/><stop offset="0.17" stop-color="#dbe7ee"/><stop offset="0.17" stop-color="#dae7ee"/><stop offset="0.18" stop-color="#dae7ee"/><stop offset="0.18" stop-color="#dae6ee"/><stop offset="0.18" stop-color="#d9e6ed"/><stop offset="0.19" stop-color="#d9e6ed"/><stop offset="0.19" stop-color="#d9e6ed"/><stop offset="0.2" stop-color="#d8e6ed"/><stop offset="0.2" stop-color="#d8e5ed"/><stop offset="0.2" stop-color="#d7e5ed"/><stop offset="0.21" stop-color="#d7e5ed"/><stop offset="0.21" stop-color="#d7e5ec"/><stop offset="0.21" stop-color="#d6e5ec"/><stop offset="0.22" stop-color="#d6e5ec"/><stop offset="0.22" stop-color="#d5e4ec"/><stop offset="0.23" stop-color="#d5e4ec"/><stop offset="0.23" stop-color="#d5e4ec"/><stop offset="0.23" stop-color="#d4e4ec"/><stop offset="0.24" stop-color="#d4e4eb"/><stop offset="0.24" stop-color="#d3e3eb"/><stop offset="0.25" stop-color="#d3e3eb"/><stop offset="0.25" stop-color="#d3e3eb"/><stop offset="0.25" stop-color="#d2e3eb"/><stop offset="0.26" stop-color="#d1e2ea"/><stop offset="0.27" stop-color="#d1e2ea"/><stop offset="0.28" stop-color="#d0e2ea"/><stop offset="0.29" stop-color="#cfe1ea"/><stop offset="0.29" stop-color="#cee1e9"/><stop offset="0.3" stop-color="#cde1e9"/><stop offset="0.31" stop-color="#cde0e9"/><stop offset="0.32" stop-color="#cce0e9"/><stop offset="0.32" stop-color="#cbe0e8"/><stop offset="0.33" stop-color="#cadfe8"/><stop offset="0.34" stop-color="#cadfe8"/><stop offset="0.35" stop-color="#c9dee7"/><stop offset="0.36" stop-color="#c8dee7"/><stop offset="0.36" stop-color="#c7dee7"/><stop offset="0.37" stop-color="#c6dde7"/><stop offset="0.38" stop-color="#c6dde6"/><stop offset="0.39" stop-color="#c5dde6"/><stop offset="0.39" stop-color="#c4dce6"/><stop offset="0.4" stop-color="#c3dce5"/><stop offset="0.41" stop-color="#c2dce5"/><stop offset="0.42" stop-color="#c2dbe5"/><stop offset="0.43" stop-color="#c1dbe5"/><stop offset="0.43" stop-color="#c0dae4"/><stop offset="0.44" stop-color="#bfdae4"/><stop offset="0.45" stop-color="#bfdae4"/><stop offset="0.46" stop-color="#bed9e3"/><stop offset="0.46" stop-color="#bdd9e3"/><stop offset="0.47" stop-color="#bcd9e3"/><stop offset="0.48" stop-color="#bbd8e3"/><stop offset="0.49" stop-color="#bbd8e2"/><stop offset="0.5" stop-color="#bad7e2"/><stop offset="0.5" stop-color="#b9d7e2"/><stop offset="0.51" stop-color="#b9d7e2"/><stop offset="0.51" stop-color="#b9d7e2"/><stop offset="0.52" stop-color="#b8d7e1"/><stop offset="0.52" stop-color="#b8d6e1"/><stop offset="0.52" stop-color="#b7d6e1"/><stop offset="0.53" stop-color="#b7d6e1"/><stop offset="0.53" stop-color="#b7d6e1"/><stop offset="0.54" stop-color="#b6d6e1"/><stop offset="0.54" stop-color="#b6d6e1"/><stop offset="0.54" stop-color="#b5d5e0"/><stop offset="0.55" stop-color="#b5d5e0"/><stop offset="0.55" stop-color="#b5d5e0"/><stop offset="0.55" stop-color="#b4d5e0"/><stop offset="0.56" stop-color="#b4d5e0"/><stop offset="0.56" stop-color="#b3d4e0"/><stop offset="0.57" stop-color="#b3d4e0"/><stop offset="0.57" stop-color="#b3d4df"/><stop offset="0.57" stop-color="#b2d4df"/><stop offset="0.58" stop-color="#b2d4df"/><stop offset="0.58" stop-color="#b1d4df"/><stop offset="0.59" stop-color="#b1d3df"/><stop offset="0.59" stop-color="#b1d3df"/><stop offset="0.59" stop-color="#b0d3df"/><stop offset="0.6" stop-color="#b0d3de"/><stop offset="0.6" stop-color="#b0d3de"/><stop offset="0.61" stop-color="#afd2de"/><stop offset="0.61" stop-color="#afd2de"/><stop offset="0.61" stop-color="#aed2de"/><stop offset="0.62" stop-color="#aed2de"/><stop offset="0.62" stop-color="#aed2de"/><stop offset="0.63" stop-color="#add2dd"/><stop offset="0.63" stop-color="#add1dd"/><stop offset="0.64" stop-color="#acd1dd"/><stop offset="0.64" stop-color="#abd1dd"/><stop offset="0.65" stop-color="#aad0dc"/><stop offset="0.66" stop-color="#a9d0dc"/><stop offset="0.67" stop-color="#a9cfdc"/><stop offset="0.68" stop-color="#a8cfdc"/><stop offset="0.68" stop-color="#a7cfdb"/><stop offset="0.69" stop-color="#a6cedb"/><stop offset="0.7" stop-color="#a6cedb"/><stop offset="0.71" stop-color="#a5ceda"/><stop offset="0.71" stop-color="#a4cdda"/><stop offset="0.72" stop-color="#a3cdda"/><stop offset="0.73" stop-color="#a2ccda"/><stop offset="0.74" stop-color="#a2ccd9"/><stop offset="0.75" stop-color="#a1ccd9"/><stop offset="0.75" stop-color="#a0cbd9"/><stop offset="0.76" stop-color="#a0cbd9"/><stop offset="0.76" stop-color="#a0cbd9"/><stop offset="0.77" stop-color="#9fcbd8"/><stop offset="0.77" stop-color="#9fcbd8"/><stop offset="0.77" stop-color="#9ecbd8"/><stop offset="0.78" stop-color="#9ecad8"/><stop offset="0.78" stop-color="#9ecad8"/><stop offset="0.79" stop-color="#9dcad8"/><stop offset="0.79" stop-color="#9dcad8"/><stop offset="0.79" stop-color="#9ccad7"/><stop offset="0.8" stop-color="#9cc9d7"/><stop offset="0.8" stop-color="#9cc9d7"/><stop offset="0.8" stop-color="#9bc9d7"/><stop offset="0.81" stop-color="#9bc9d7"/><stop offset="0.81" stop-color="#9ac9d7"/><stop offset="0.82" stop-color="#9ac8d7"/><stop offset="0.82" stop-color="#99c8d6"/><stop offset="0.83" stop-color="#98c8d6"/><stop offset="0.84" stop-color="#98c7d6"/><stop offset="0.85" stop-color="#97c7d5"/><stop offset="0.86" stop-color="#96c7d5"/><stop offset="0.86" stop-color="#95c6d5"/><stop offset="0.87" stop-color="#94c6d5"/><stop offset="0.88" stop-color="#94c6d4"/><stop offset="0.88" stop-color="#93c5d4"/><stop offset="0.89" stop-color="#93c5d4"/><stop offset="0.89" stop-color="#93c5d4"/><stop offset="0.89" stop-color="#92c5d4"/><stop offset="0.9" stop-color="#92c5d4"/><stop offset="0.9" stop-color="#91c5d4"/><stop offset="0.91" stop-color="#91c4d3"/><stop offset="0.91" stop-color="#91c4d3"/><stop offset="0.92" stop-color="#90c4d3"/><stop offset="0.93" stop-color="#8fc3d3"/><stop offset="0.93" stop-color="#8ec3d2"/><stop offset="0.94" stop-color="#8ec3d2"/><stop offset="0.95" stop-color="#8dc2d2"/><stop offset="0.95" stop-color="#8dc2d2"/><stop offset="0.95" stop-color="#8cc2d2"/><stop offset="0.96" stop-color="#8cc2d1"/><stop offset="0.96" stop-color="#8bc1d1"/><stop offset="0.97" stop-color="#8ac1d1"/><stop offset="0.98" stop-color="#8ac1d1"/><stop offset="0.98" stop-color="#89c1d1"/><stop offset="0.99" stop-color="#89c0d0"/><stop offset="0.99" stop-color="#88c0d0"/><stop offset="1" stop-color="#88c0d0"/></radialGradient></defs><g class="a76321ea-3e8d-4e10-b935-37b13c00acd2"><g class="b0a2366c-c606-4665-87a4-ae59a1d48e2d"><path class="bec4d2a4-dad1-49a1-83ae-c6454f5da5ad" d="M0,54.65H605.88v148.7H0Z"/></g></g><g class="b9385197-a4a6-4739-a623-cbb4a11b1b66"><g class="ac2af2ff-af4a-497f-9809-31047f9da8d1"><path class="abdbf8db-44b7-4855-9852-efb8d6b52db5" d="M9,54.65H596.63a9,9,0,0,1,9,9v130.7a9,9,0,0,1-9,9H9a9,9,0,0,1-9-9V63.65A9,9,0,0,1,9,54.65Z"/></g></g><g class="b35b3c88-2054-412c-8ddd-36e7ec5db32c"><g class="fe6c84fb-bf0f-4492-a09d-9a8fdf255bb2"><path class="ee050004-2f97-497b-b4be-7f46c7e57dc6" d="M10.35,63.78H595.14v130H10.35Z"/></g></g><g class="a2f00c96-40a9-4d76-acf1-cd5e2db31b34"><g class="e91e1e1f-2e13-4f36-a9d6-79b7a75406ff"><path class="abdbf8db-44b7-4855-9852-efb8d6b52db5" d="M19.35,63.78H586.29a9,9,0,0,1,9,9v112a9,9,0,0,1-9,9H19.35a9,9,0,0,1-9-9V72.78A9,9,0,0,1,19.35,63.78Z"/></g></g><g class="e2b4d40d-eaf2-4dc2-a914-380c9b147892"><g class="e763e23c-9496-4bfa-9611-6b90adaf7978"><path class="f808d3f2-0a57-466d-8ac4-589e495d4265" d="M12.06,65.58H593.74v126.3H12.06Z"/></g></g><g class="a717aeaf-64b9-401d-8a0d-6718cacf55b0"><g class="a894ee3b-7fb2-437c-b568-638deeb901fa"><path class="b01c5549-736c-45ea-8db4-d830c6c37b63" d="M19.07,65.58H586.52a7,7,0,0,1,7,7v112.3a7,7,0,0,1-7,7H19.07a7,7,0,0,1-7-7V72.58A7,7,0,0,1,19.07,65.58Z"/></g></g><path class="bec9d3ef-4125-4c3a-9352-81570940aa96" d="M76.66,132v16.4H68.35V107.21H83.51q7.13,0,11,3.58a11.46,11.46,0,0,1,3.88,8.79A12.49,12.49,0,0,1,96,126.86a12.23,12.23,0,0,1-7.43,4.6l10.5,16.92H89.22L79.39,132Zm0-18.4v12h6.85A6.58,6.58,0,0,0,88.29,124a6.71,6.71,0,0,0,0-8.79,6.54,6.54,0,0,0-4.78-1.63Z"/><path class="bec9d3ef-4125-4c3a-9352-81570940aa96" d="M120.43,148.86a15.46,15.46,0,0,1-11.62-4.63q-4.49-4.64-4.48-12.25t4.5-12.17a15.69,15.69,0,0,1,11.68-4.58,16.27,16.27,0,0,1,11.78,4.46q4.59,4.44,4.6,11.87a18.77,18.77,0,0,1-.25,3.19H112.83a7.81,7.81,0,0,0,2.35,5.15,7.38,7.38,0,0,0,5.25,1.93,6.89,6.89,0,0,0,6.38-3.54h8.95a14.33,14.33,0,0,1-5.5,7.63A16.31,16.31,0,0,1,120.43,148.86Zm7.83-19.48a7,7,0,0,0-2.39-5.17,7.8,7.8,0,0,0-5.33-2,7.39,7.39,0,0,0-5.23,2,8.13,8.13,0,0,0-2.48,5.17Z"/><path class="bec9d3ef-4125-4c3a-9352-81570940aa96" d="M141.6,125.25a8.79,8.79,0,0,1,3.59-7.12q3.6-2.89,9.56-2.9t9.54,2.88a10,10,0,0,1,3.85,7.75h-8.5q-.36-4.15-5.08-4.15a6,6,0,0,0-3.64,1,3,3,0,0,0-1.3,2.6,2.88,2.88,0,0,0,1.94,2.59,19.1,19.1,0,0,0,4.71,1.47,55.46,55.46,0,0,1,5.52,1.34,10.29,10.29,0,0,1,4.69,2.83,7.43,7.43,0,0,1,2,5.38,8.56,8.56,0,0,1-3.75,7.2,17.86,17.86,0,0,1-19.09,0,10.15,10.15,0,0,1-4.06-7.88H150q.48,4.13,5.25,4.13a6.19,6.19,0,0,0,3.73-1,3.21,3.21,0,0,0,1.42-2.7,3,3,0,0,0-2-2.67,18,18,0,0,0-4.71-1.5q-2.77-.54-5.52-1.29a10.27,10.27,0,0,1-4.69-2.75A7.08,7.08,0,0,1,141.6,125.25Z"/><path class="bec9d3ef-4125-4c3a-9352-81570940aa96" d="M189.31,148.86a15.49,15.49,0,0,1-11.63-4.63q-4.49-4.64-4.48-12.25t4.5-12.17a15.71,15.71,0,0,1,11.69-4.58,16.23,16.23,0,0,1,11.77,4.46q4.6,4.44,4.6,11.87a18.77,18.77,0,0,1-.25,3.19H181.7a7.82,7.82,0,0,0,2.36,5.15,7.35,7.35,0,0,0,5.25,1.93,6.88,6.88,0,0,0,6.37-3.54h9a14.38,14.38,0,0,1-5.5,7.63A16.33,16.33,0,0,1,189.31,148.86Zm7.83-19.48a7,7,0,0,0-2.4-5.17,7.78,7.78,0,0,0-5.33-2,7.41,7.41,0,0,0-5.23,2,8.13,8.13,0,0,0-2.48,5.17Z"/><path class="bec9d3ef-4125-4c3a-9352-81570940aa96" d="M225,141.42h4v7h-5.25c-3.35,0-5.93-.76-7.73-2.3s-2.71-4.08-2.71-7.62v-16h-3.48v-6.77h3.48v-8.08h8.31v8.08h7.31v6.77h-7.31v16a3,3,0,0,0,.75,2.29A4.07,4.07,0,0,0,225,141.42Z"/><path class="bec9d3ef-4125-4c3a-9352-81570940aa96" d="M280,127.73a10.49,10.49,0,0,1-4.62,3.1,20,20,0,0,1-7.11,1.15h-6.85v16.4H253.1V107.21h15.16q7.13,0,11,3.58a11.06,11.06,0,0,1,3.88,8.4A12.84,12.84,0,0,1,280,127.73Zm-18.58-2.12h6.85A6.54,6.54,0,0,0,273,124a6.68,6.68,0,0,0,0-8.79,6.5,6.5,0,0,0-4.77-1.63h-6.85Z"/><path class="bec9d3ef-4125-4c3a-9352-81570940aa96" d="M310.18,139.08a10.83,10.83,0,0,0,0-14.08,8.44,8.44,0,0,0-12.11,0,9.45,9.45,0,0,0-2.56,7,9.6,9.6,0,0,0,2.58,7.08,8.37,8.37,0,0,0,12.09,0Zm-18.71,5a17.12,17.12,0,0,1-4.4-12.13,17,17,0,0,1,4.36-12.06,14.46,14.46,0,0,1,11.08-4.69,11.48,11.48,0,0,1,10.27,5.54v-5.06h8.27v32.67h-8.27V142.9q-3.7,6-10.31,6A14.36,14.36,0,0,1,291.47,144.11Z"/><path class="bec9d3ef-4125-4c3a-9352-81570940aa96" d="M328.06,125.25a8.76,8.76,0,0,1,3.59-7.12q3.6-2.89,9.56-2.9t9.54,2.88a10,10,0,0,1,3.85,7.75h-8.5q-.36-4.15-5.08-4.15a6,6,0,0,0-3.65,1,3,3,0,0,0-1.29,2.6,2.88,2.88,0,0,0,1.94,2.59,19.1,19.1,0,0,0,4.71,1.47,55.46,55.46,0,0,1,5.52,1.34,10.29,10.29,0,0,1,4.69,2.83,7.43,7.43,0,0,1,2,5.38,8.56,8.56,0,0,1-3.75,7.2,17.86,17.86,0,0,1-19.09,0,10.15,10.15,0,0,1-4.06-7.88h8.48q.48,4.13,5.25,4.13a6.19,6.19,0,0,0,3.73-1,3.2,3.2,0,0,0,1.41-2.7,3,3,0,0,0-1.95-2.67,18.12,18.12,0,0,0-4.71-1.5q-2.77-.54-5.52-1.29a10.27,10.27,0,0,1-4.69-2.75A7.08,7.08,0,0,1,328.06,125.25Z"/><path class="bec9d3ef-4125-4c3a-9352-81570940aa96" d="M360.14,125.25a8.78,8.78,0,0,1,3.58-7.12c2.41-1.93,5.59-2.9,9.57-2.9s7.15,1,9.54,2.88a10,10,0,0,1,3.85,7.75h-8.5q-.36-4.15-5.08-4.15a6,6,0,0,0-3.65,1,3,3,0,0,0-1.29,2.6,2.88,2.88,0,0,0,1.94,2.59,19.1,19.1,0,0,0,4.71,1.47,55.46,55.46,0,0,1,5.52,1.34A10.34,10.34,0,0,1,385,133.5a7.42,7.42,0,0,1,2,5.38,8.56,8.56,0,0,1-3.75,7.2,17.84,17.84,0,0,1-19.08,0,10.15,10.15,0,0,1-4.06-7.88h8.48q.48,4.13,5.25,4.13a6.19,6.19,0,0,0,3.73-1,3.2,3.2,0,0,0,1.41-2.7A3,3,0,0,0,377,136a18.12,18.12,0,0,0-4.71-1.5q-2.78-.54-5.52-1.29a10.27,10.27,0,0,1-4.69-2.75A7.08,7.08,0,0,1,360.14,125.25Z"/><path class="bec9d3ef-4125-4c3a-9352-81570940aa96" d="M431.07,115.71h8l-10,32.67h-8.85l-5.59-21.94-5.66,21.94h-8.86l-10-32.67h8.38l6,24.81,6-24.81h8.73l5.89,24.77Z"/><path class="bec9d3ef-4125-4c3a-9352-81570940aa96" d="M458.32,141.83a8,8,0,0,0,6-2.56q2.51-2.58,2.5-7.27t-2.48-7.21a8,8,0,0,0-6-2.54,7.85,7.85,0,0,0-5.91,2.54c-1.62,1.69-2.42,4.1-2.42,7.25s.8,5.56,2.42,7.25A7.79,7.79,0,0,0,458.32,141.83Zm-12,2.36q-4.77-4.66-4.77-12.21c0-5,1.61-9.07,4.84-12.15a18,18,0,0,1,24,0,17.71,17.71,0,0,1-.05,24.36,16.74,16.74,0,0,1-12.06,4.67A16.42,16.42,0,0,1,446.34,144.19Z"/><path class="bec9d3ef-4125-4c3a-9352-81570940aa96" d="M490.15,115.71v5.77q3.32-6.26,9.56-6.25v8.5h-2.06a7.72,7.72,0,0,0-5.6,1.85q-1.91,1.86-1.9,6.4v16.4h-8.31V115.71Z"/><path class="bec9d3ef-4125-4c3a-9352-81570940aa96" d="M526.41,139.08a10.8,10.8,0,0,0,0-14.08,8.43,8.43,0,0,0-12.1,0,9.45,9.45,0,0,0-2.56,7,9.6,9.6,0,0,0,2.58,7.08,8.36,8.36,0,0,0,12.08,0Zm-18.7,5a17.12,17.12,0,0,1-4.4-12.13,17,17,0,0,1,4.35-12.06,14.5,14.5,0,0,1,11.09-4.69A11.48,11.48,0,0,1,529,120.77v-16h8.27v43.65H529V142.9q-3.72,6-10.31,6A14.36,14.36,0,0,1,507.71,144.11Z"/></svg>