<svg xmlns="http://www.w3.org/2000/svg" xmlns:xlink="http://www.w3.org/1999/xlink" width="1000" zoomAndPan="magnify" viewBox="0 0 750 749.999995" height="1000" preserveAspectRatio="xMidYMid meet" version="1.0"><defs><g/><clipPath id="7fcf116311"><path d="M 228.117188 319.234375 L 522 319.234375 L 522 430.765625 L 228.117188 430.765625 Z M 228.117188 319.234375 " clip-rule="nonzero"/></clipPath><clipPath id="3cf5ec811c"><path d="M 234.867188 319.234375 L 515.132812 319.234375 C 518.859375 319.234375 521.882812 322.253906 521.882812 325.984375 L 521.882812 424.015625 C 521.882812 427.746094 518.859375 430.765625 515.132812 430.765625 L 234.867188 430.765625 C 231.140625 430.765625 228.117188 427.746094 228.117188 424.015625 L 228.117188 325.984375 C 228.117188 322.253906 231.140625 319.234375 234.867188 319.234375 Z M 234.867188 319.234375 " clip-rule="nonzero"/></clipPath><clipPath id="42d20c31c6"><path d="M 228.117188 319.234375 L 522 319.234375 L 522 430.984375 L 228.117188 430.984375 Z M 228.117188 319.234375 " clip-rule="nonzero"/></clipPath><clipPath id="737b3445b3"><path d="M 234.871094 319.234375 L 515.121094 319.234375 C 518.847656 319.234375 521.871094 322.253906 521.871094 325.984375 L 521.871094 424.011719 C 521.871094 427.738281 518.847656 430.761719 515.121094 430.761719 L 234.871094 430.761719 C 231.144531 430.761719 228.121094 427.738281 228.121094 424.011719 L 228.121094 325.984375 C 228.121094 322.253906 231.144531 319.234375 234.871094 319.234375 Z M 234.871094 319.234375 " clip-rule="nonzero"/></clipPath><clipPath id="78fe5c16fa"><path d="M 235.699219 326.085938 L 515 326.085938 L 515 423.550781 L 235.699219 423.550781 Z M 235.699219 326.085938 " clip-rule="nonzero"/></clipPath><clipPath id="cc3e661565"><path d="M 242.449219 326.085938 L 508.027344 326.085938 C 511.753906 326.085938 514.777344 329.105469 514.777344 332.835938 L 514.777344 416.800781 C 514.777344 420.527344 511.753906 423.550781 508.027344 423.550781 L 242.449219 423.550781 C 238.722656 423.550781 235.699219 420.527344 235.699219 416.800781 L 235.699219 332.835938 C 235.699219 329.105469 238.722656 326.085938 242.449219 326.085938 Z M 242.449219 326.085938 " clip-rule="nonzero"/></clipPath><clipPath id="865a91e682"><path d="M 235.699219 326.085938 L 514.699219 326.085938 L 514.699219 423.585938 L 235.699219 423.585938 Z M 235.699219 326.085938 " clip-rule="nonzero"/></clipPath><clipPath id="3fdae6cce1"><path d="M 242.449219 326.085938 L 508.023438 326.085938 C 511.75 326.085938 514.769531 329.105469 514.769531 332.835938 L 514.769531 416.800781 C 514.769531 420.527344 511.75 423.546875 508.023438 423.546875 L 242.449219 423.546875 C 238.722656 423.546875 235.699219 420.527344 235.699219 416.800781 L 235.699219 332.835938 C 235.699219 329.105469 238.722656 326.085938 242.449219 326.085938 Z M 242.449219 326.085938 " clip-rule="nonzero"/></clipPath><clipPath id="83607e88ce"><path d="M 236.527344 327.433594 L 513.679688 327.433594 L 513.679688 422.160156 L 236.527344 422.160156 Z M 236.527344 327.433594 " clip-rule="nonzero"/></clipPath><clipPath id="4223142e37"><path d="M 241.777344 327.433594 L 508.222656 327.433594 C 511.121094 327.433594 513.472656 329.785156 513.472656 332.683594 L 513.472656 416.910156 C 513.472656 419.8125 511.121094 422.160156 508.222656 422.160156 L 241.777344 422.160156 C 238.878906 422.160156 236.527344 419.8125 236.527344 416.910156 L 236.527344 332.683594 C 236.527344 329.785156 238.878906 327.433594 241.777344 327.433594 Z M 241.777344 327.433594 " clip-rule="nonzero"/></clipPath><clipPath id="a622f22018"><path d="M 236.53125 327.433594 L 513.277344 327.433594 L 513.277344 421.933594 L 236.53125 421.933594 Z M 236.53125 327.433594 " clip-rule="nonzero"/></clipPath><clipPath id="01b7ff08eb"><path d="M 241.78125 327.433594 L 508.210938 327.433594 C 511.113281 327.433594 513.460938 329.785156 513.460938 332.683594 L 513.460938 416.90625 C 513.460938 419.808594 511.113281 422.15625 508.210938 422.15625 L 241.78125 422.15625 C 238.882812 422.15625 236.53125 419.808594 236.53125 416.90625 L 236.53125 332.683594 C 236.53125 329.785156 238.882812 327.433594 241.78125 327.433594 Z M 241.78125 327.433594 " clip-rule="nonzero"/></clipPath><radialGradient gradientTransform="matrix(1.333333, 0, 0, 1.333333, 0.00000567396, 0.0000272575)" gradientUnits="userSpaceOnUse" r="146.343126" cx="138.467538" id="dec7be6298" cy="47.360973" fx="138.467538" fy="47.360973"><stop stop-opacity="1" stop-color="rgb(92.346191%, 93.62793%, 95.643616%)" offset="0"/><stop stop-opacity="1" stop-color="rgb(92.115784%, 93.519592%, 95.561218%)" offset="0.0078125"/><stop stop-opacity="1" stop-color="rgb(91.963196%, 93.44635%, 95.506287%)" offset="0.0117188"/><stop stop-opacity="1" stop-color="rgb(91.810608%, 93.374634%, 95.451355%)" offset="0.015625"/><stop stop-opacity="1" stop-color="rgb(91.656494%, 93.302917%, 95.396423%)" offset="0.0195312"/><stop stop-opacity="1" stop-color="rgb(91.503906%, 93.231201%, 95.341492%)" offset="0.0234375"/><stop stop-opacity="1" stop-color="rgb(91.349792%, 93.159485%, 95.28656%)" offset="0.0273438"/><stop stop-opacity="1" stop-color="rgb(91.197205%, 93.087769%, 95.231628%)" offset="0.03125"/><stop stop-opacity="1" stop-color="rgb(91.044617%, 93.016052%, 95.175171%)" offset="0.0351562"/><stop stop-opacity="1" stop-color="rgb(90.890503%, 92.944336%, 95.120239%)" offset="0.0390625"/><stop stop-opacity="1" stop-color="rgb(90.737915%, 92.87262%, 95.065308%)" offset="0.0429688"/><stop stop-opacity="1" stop-color="rgb(90.585327%, 92.799377%, 95.010376%)" offset="0.046875"/><stop stop-opacity="1" stop-color="rgb(90.431213%, 92.727661%, 94.955444%)" offset="0.0507812"/><stop stop-opacity="1" stop-color="rgb(90.278625%, 92.655945%, 94.900513%)" offset="0.0546875"/><stop stop-opacity="1" stop-color="rgb(90.126038%, 92.584229%, 94.845581%)" offset="0.0585938"/><stop stop-opacity="1" stop-color="rgb(89.971924%, 92.512512%, 94.790649%)" offset="0.0625"/><stop stop-opacity="1" stop-color="rgb(89.819336%, 92.440796%, 94.735718%)" offset="0.0664062"/><stop stop-opacity="1" stop-color="rgb(89.666748%, 92.36908%, 94.680786%)" offset="0.0703125"/><stop stop-opacity="1" stop-color="rgb(89.512634%, 92.297363%, 94.625854%)" offset="0.0742188"/><stop stop-opacity="1" stop-color="rgb(89.360046%, 92.225647%, 94.569397%)" offset="0.078125"/><stop stop-opacity="1" stop-color="rgb(89.207458%, 92.153931%, 94.514465%)" offset="0.0820312"/><stop stop-opacity="1" stop-color="rgb(89.053345%, 92.080688%, 94.459534%)" offset="0.0859375"/><stop stop-opacity="1" stop-color="rgb(88.900757%, 92.008972%, 94.404602%)" offset="0.0898438"/><stop stop-opacity="1" stop-color="rgb(88.748169%, 91.937256%, 94.34967%)" offset="0.09375"/><stop stop-opacity="1" stop-color="rgb(88.594055%, 91.86554%, 94.294739%)" offset="0.0976562"/><stop stop-opacity="1" stop-color="rgb(88.441467%, 91.793823%, 94.239807%)" offset="0.101562"/><stop stop-opacity="1" stop-color="rgb(88.287354%, 91.722107%, 94.184875%)" offset="0.105469"/><stop stop-opacity="1" stop-color="rgb(88.134766%, 91.650391%, 94.129944%)" offset="0.109375"/><stop stop-opacity="1" stop-color="rgb(87.982178%, 91.578674%, 94.075012%)" offset="0.113281"/><stop stop-opacity="1" stop-color="rgb(87.828064%, 91.506958%, 94.018555%)" offset="0.117188"/><stop stop-opacity="1" stop-color="rgb(87.675476%, 91.435242%, 93.963623%)" offset="0.121094"/><stop stop-opacity="1" stop-color="rgb(87.522888%, 91.362%, 93.908691%)" offset="0.125"/><stop stop-opacity="1" stop-color="rgb(87.368774%, 91.290283%, 93.85376%)" offset="0.128906"/><stop stop-opacity="1" stop-color="rgb(87.216187%, 91.218567%, 93.798828%)" offset="0.132812"/><stop stop-opacity="1" stop-color="rgb(87.063599%, 91.146851%, 93.743896%)" offset="0.136719"/><stop stop-opacity="1" stop-color="rgb(86.909485%, 91.075134%, 93.688965%)" offset="0.140625"/><stop stop-opacity="1" stop-color="rgb(86.756897%, 91.003418%, 93.634033%)" offset="0.144531"/><stop stop-opacity="1" stop-color="rgb(86.604309%, 90.931702%, 93.579102%)" offset="0.148438"/><stop stop-opacity="1" stop-color="rgb(86.450195%, 90.859985%, 93.52417%)" offset="0.152344"/><stop stop-opacity="1" stop-color="rgb(86.297607%, 90.788269%, 93.469238%)" offset="0.15625"/><stop stop-opacity="1" stop-color="rgb(86.14502%, 90.715027%, 93.412781%)" offset="0.160156"/><stop stop-opacity="1" stop-color="rgb(85.990906%, 90.643311%, 93.357849%)" offset="0.164062"/><stop stop-opacity="1" stop-color="rgb(85.838318%, 90.571594%, 93.302917%)" offset="0.167969"/><stop stop-opacity="1" stop-color="rgb(85.684204%, 90.499878%, 93.247986%)" offset="0.171875"/><stop stop-opacity="1" stop-color="rgb(85.531616%, 90.428162%, 93.193054%)" offset="0.175781"/><stop stop-opacity="1" stop-color="rgb(85.379028%, 90.356445%, 93.138123%)" offset="0.179688"/><stop stop-opacity="1" stop-color="rgb(85.224915%, 90.284729%, 93.083191%)" offset="0.183594"/><stop stop-opacity="1" stop-color="rgb(85.072327%, 90.213013%, 93.028259%)" offset="0.1875"/><stop stop-opacity="1" stop-color="rgb(84.919739%, 90.141296%, 92.973328%)" offset="0.191406"/><stop stop-opacity="1" stop-color="rgb(84.765625%, 90.06958%, 92.918396%)" offset="0.195312"/><stop stop-opacity="1" stop-color="rgb(84.613037%, 89.996338%, 92.861938%)" offset="0.199219"/><stop stop-opacity="1" stop-color="rgb(84.460449%, 89.924622%, 92.807007%)" offset="0.203125"/><stop stop-opacity="1" stop-color="rgb(84.306335%, 89.852905%, 92.752075%)" offset="0.207031"/><stop stop-opacity="1" stop-color="rgb(84.153748%, 89.781189%, 92.697144%)" offset="0.210938"/><stop stop-opacity="1" stop-color="rgb(84.00116%, 89.709473%, 92.642212%)" offset="0.214844"/><stop stop-opacity="1" stop-color="rgb(83.847046%, 89.637756%, 92.58728%)" offset="0.21875"/><stop stop-opacity="1" stop-color="rgb(83.694458%, 89.56604%, 92.532349%)" offset="0.222656"/><stop stop-opacity="1" stop-color="rgb(83.54187%, 89.494324%, 92.477417%)" offset="0.226562"/><stop stop-opacity="1" stop-color="rgb(83.387756%, 89.422607%, 92.422485%)" offset="0.230469"/><stop stop-opacity="1" stop-color="rgb(83.235168%, 89.349365%, 92.367554%)" offset="0.234375"/><stop stop-opacity="1" stop-color="rgb(83.081055%, 89.277649%, 92.312622%)" offset="0.238281"/><stop stop-opacity="1" stop-color="rgb(82.928467%, 89.205933%, 92.256165%)" offset="0.242188"/><stop stop-opacity="1" stop-color="rgb(82.775879%, 89.134216%, 92.201233%)" offset="0.246094"/><stop stop-opacity="1" stop-color="rgb(82.621765%, 89.0625%, 92.146301%)" offset="0.25"/><stop stop-opacity="1" stop-color="rgb(82.392883%, 88.955688%, 92.063904%)" offset="0.253906"/><stop stop-opacity="1" stop-color="rgb(82.086182%, 88.812256%, 91.954041%)" offset="0.261719"/><stop stop-opacity="1" stop-color="rgb(81.77948%, 88.667297%, 91.844177%)" offset="0.269531"/><stop stop-opacity="1" stop-color="rgb(81.474304%, 88.523865%, 91.732788%)" offset="0.277344"/><stop stop-opacity="1" stop-color="rgb(81.167603%, 88.380432%, 91.622925%)" offset="0.285156"/><stop stop-opacity="1" stop-color="rgb(80.860901%, 88.237%, 91.513062%)" offset="0.292969"/><stop stop-opacity="1" stop-color="rgb(80.554199%, 88.093567%, 91.403198%)" offset="0.300781"/><stop stop-opacity="1" stop-color="rgb(80.249023%, 87.948608%, 91.293335%)" offset="0.308594"/><stop stop-opacity="1" stop-color="rgb(79.942322%, 87.805176%, 91.181946%)" offset="0.316406"/><stop stop-opacity="1" stop-color="rgb(79.63562%, 87.661743%, 91.072083%)" offset="0.324219"/><stop stop-opacity="1" stop-color="rgb(79.330444%, 87.518311%, 90.962219%)" offset="0.332031"/><stop stop-opacity="1" stop-color="rgb(79.023743%, 87.373352%, 90.852356%)" offset="0.339844"/><stop stop-opacity="1" stop-color="rgb(78.717041%, 87.229919%, 90.742493%)" offset="0.347656"/><stop stop-opacity="1" stop-color="rgb(78.411865%, 87.086487%, 90.632629%)" offset="0.355469"/><stop stop-opacity="1" stop-color="rgb(78.105164%, 86.943054%, 90.52124%)" offset="0.363281"/><stop stop-opacity="1" stop-color="rgb(77.798462%, 86.799622%, 90.411377%)" offset="0.371094"/><stop stop-opacity="1" stop-color="rgb(77.49176%, 86.654663%, 90.301514%)" offset="0.378906"/><stop stop-opacity="1" stop-color="rgb(77.186584%, 86.51123%, 90.19165%)" offset="0.386719"/><stop stop-opacity="1" stop-color="rgb(76.879883%, 86.367798%, 90.081787%)" offset="0.394531"/><stop stop-opacity="1" stop-color="rgb(76.573181%, 86.224365%, 89.970398%)" offset="0.402344"/><stop stop-opacity="1" stop-color="rgb(76.268005%, 86.080933%, 89.860535%)" offset="0.410156"/><stop stop-opacity="1" stop-color="rgb(75.961304%, 85.935974%, 89.750671%)" offset="0.417969"/><stop stop-opacity="1" stop-color="rgb(75.654602%, 85.792542%, 89.640808%)" offset="0.425781"/><stop stop-opacity="1" stop-color="rgb(75.349426%, 85.649109%, 89.530945%)" offset="0.433594"/><stop stop-opacity="1" stop-color="rgb(75.042725%, 85.505676%, 89.419556%)" offset="0.441406"/><stop stop-opacity="1" stop-color="rgb(74.736023%, 85.362244%, 89.309692%)" offset="0.449219"/><stop stop-opacity="1" stop-color="rgb(74.429321%, 85.217285%, 89.199829%)" offset="0.457031"/><stop stop-opacity="1" stop-color="rgb(74.124146%, 85.073853%, 89.089966%)" offset="0.464844"/><stop stop-opacity="1" stop-color="rgb(73.817444%, 84.93042%, 88.980103%)" offset="0.472656"/><stop stop-opacity="1" stop-color="rgb(73.510742%, 84.786987%, 88.868713%)" offset="0.480469"/><stop stop-opacity="1" stop-color="rgb(73.205566%, 84.643555%, 88.75885%)" offset="0.488281"/><stop stop-opacity="1" stop-color="rgb(72.898865%, 84.498596%, 88.648987%)" offset="0.496094"/><stop stop-opacity="1" stop-color="rgb(72.669983%, 84.390259%, 88.566589%)" offset="0.503906"/><stop stop-opacity="1" stop-color="rgb(72.515869%, 84.318542%, 88.511658%)" offset="0.507812"/><stop stop-opacity="1" stop-color="rgb(72.363281%, 84.246826%, 88.456726%)" offset="0.511719"/><stop stop-opacity="1" stop-color="rgb(72.209167%, 84.17511%, 88.401794%)" offset="0.515625"/><stop stop-opacity="1" stop-color="rgb(72.05658%, 84.103394%, 88.346863%)" offset="0.519531"/><stop stop-opacity="1" stop-color="rgb(71.903992%, 84.031677%, 88.290405%)" offset="0.523438"/><stop stop-opacity="1" stop-color="rgb(71.749878%, 83.959961%, 88.235474%)" offset="0.527344"/><stop stop-opacity="1" stop-color="rgb(71.59729%, 83.888245%, 88.180542%)" offset="0.53125"/><stop stop-opacity="1" stop-color="rgb(71.444702%, 83.815002%, 88.12561%)" offset="0.535156"/><stop stop-opacity="1" stop-color="rgb(71.290588%, 83.743286%, 88.070679%)" offset="0.539062"/><stop stop-opacity="1" stop-color="rgb(71.138%, 83.67157%, 88.015747%)" offset="0.542969"/><stop stop-opacity="1" stop-color="rgb(70.985413%, 83.599854%, 87.960815%)" offset="0.546875"/><stop stop-opacity="1" stop-color="rgb(70.831299%, 83.528137%, 87.905884%)" offset="0.550781"/><stop stop-opacity="1" stop-color="rgb(70.678711%, 83.456421%, 87.850952%)" offset="0.554688"/><stop stop-opacity="1" stop-color="rgb(70.526123%, 83.384705%, 87.796021%)" offset="0.558594"/><stop stop-opacity="1" stop-color="rgb(70.372009%, 83.312988%, 87.741089%)" offset="0.5625"/><stop stop-opacity="1" stop-color="rgb(70.219421%, 83.241272%, 87.684631%)" offset="0.566406"/><stop stop-opacity="1" stop-color="rgb(70.066833%, 83.169556%, 87.6297%)" offset="0.570312"/><stop stop-opacity="1" stop-color="rgb(69.91272%, 83.096313%, 87.574768%)" offset="0.574219"/><stop stop-opacity="1" stop-color="rgb(69.760132%, 83.024597%, 87.519836%)" offset="0.578125"/><stop stop-opacity="1" stop-color="rgb(69.607544%, 82.952881%, 87.464905%)" offset="0.582031"/><stop stop-opacity="1" stop-color="rgb(69.45343%, 82.881165%, 87.409973%)" offset="0.585938"/><stop stop-opacity="1" stop-color="rgb(69.300842%, 82.809448%, 87.355042%)" offset="0.589844"/><stop stop-opacity="1" stop-color="rgb(69.146729%, 82.737732%, 87.30011%)" offset="0.59375"/><stop stop-opacity="1" stop-color="rgb(68.994141%, 82.666016%, 87.245178%)" offset="0.597656"/><stop stop-opacity="1" stop-color="rgb(68.841553%, 82.594299%, 87.190247%)" offset="0.601562"/><stop stop-opacity="1" stop-color="rgb(68.687439%, 82.522583%, 87.133789%)" offset="0.605469"/><stop stop-opacity="1" stop-color="rgb(68.534851%, 82.450867%, 87.078857%)" offset="0.609375"/><stop stop-opacity="1" stop-color="rgb(68.382263%, 82.377625%, 87.023926%)" offset="0.613281"/><stop stop-opacity="1" stop-color="rgb(68.228149%, 82.305908%, 86.968994%)" offset="0.617188"/><stop stop-opacity="1" stop-color="rgb(68.075562%, 82.234192%, 86.914062%)" offset="0.621094"/><stop stop-opacity="1" stop-color="rgb(67.922974%, 82.162476%, 86.859131%)" offset="0.625"/><stop stop-opacity="1" stop-color="rgb(67.692566%, 82.055664%, 86.776733%)" offset="0.628906"/><stop stop-opacity="1" stop-color="rgb(67.385864%, 81.912231%, 86.66687%)" offset="0.636719"/><stop stop-opacity="1" stop-color="rgb(67.080688%, 81.767273%, 86.555481%)" offset="0.644531"/><stop stop-opacity="1" stop-color="rgb(66.773987%, 81.62384%, 86.445618%)" offset="0.652344"/><stop stop-opacity="1" stop-color="rgb(66.467285%, 81.480408%, 86.335754%)" offset="0.660156"/><stop stop-opacity="1" stop-color="rgb(66.160583%, 81.336975%, 86.225891%)" offset="0.667969"/><stop stop-opacity="1" stop-color="rgb(65.855408%, 81.193542%, 86.116028%)" offset="0.675781"/><stop stop-opacity="1" stop-color="rgb(65.548706%, 81.048584%, 86.004639%)" offset="0.683594"/><stop stop-opacity="1" stop-color="rgb(65.242004%, 80.905151%, 85.894775%)" offset="0.691406"/><stop stop-opacity="1" stop-color="rgb(64.936829%, 80.761719%, 85.784912%)" offset="0.699219"/><stop stop-opacity="1" stop-color="rgb(64.630127%, 80.618286%, 85.675049%)" offset="0.707031"/><stop stop-opacity="1" stop-color="rgb(64.323425%, 80.473328%, 85.565186%)" offset="0.714844"/><stop stop-opacity="1" stop-color="rgb(64.016724%, 80.329895%, 85.455322%)" offset="0.722656"/><stop stop-opacity="1" stop-color="rgb(63.711548%, 80.186462%, 85.343933%)" offset="0.730469"/><stop stop-opacity="1" stop-color="rgb(63.404846%, 80.04303%, 85.23407%)" offset="0.738281"/><stop stop-opacity="1" stop-color="rgb(63.098145%, 79.899597%, 85.124207%)" offset="0.746094"/><stop stop-opacity="1" stop-color="rgb(62.869263%, 79.79126%, 85.041809%)" offset="0.753906"/><stop stop-opacity="1" stop-color="rgb(62.716675%, 79.719543%, 84.986877%)" offset="0.757812"/><stop stop-opacity="1" stop-color="rgb(62.562561%, 79.646301%, 84.931946%)" offset="0.761719"/><stop stop-opacity="1" stop-color="rgb(62.409973%, 79.574585%, 84.877014%)" offset="0.765625"/><stop stop-opacity="1" stop-color="rgb(62.257385%, 79.502869%, 84.820557%)" offset="0.769531"/><stop stop-opacity="1" stop-color="rgb(62.103271%, 79.431152%, 84.765625%)" offset="0.773438"/><stop stop-opacity="1" stop-color="rgb(61.950684%, 79.359436%, 84.710693%)" offset="0.777344"/><stop stop-opacity="1" stop-color="rgb(61.798096%, 79.28772%, 84.655762%)" offset="0.78125"/><stop stop-opacity="1" stop-color="rgb(61.643982%, 79.216003%, 84.60083%)" offset="0.785156"/><stop stop-opacity="1" stop-color="rgb(61.491394%, 79.144287%, 84.545898%)" offset="0.789062"/><stop stop-opacity="1" stop-color="rgb(61.33728%, 79.072571%, 84.490967%)" offset="0.792969"/><stop stop-opacity="1" stop-color="rgb(61.184692%, 79.000854%, 84.436035%)" offset="0.796875"/><stop stop-opacity="1" stop-color="rgb(61.032104%, 78.927612%, 84.381104%)" offset="0.800781"/><stop stop-opacity="1" stop-color="rgb(60.877991%, 78.855896%, 84.326172%)" offset="0.804688"/><stop stop-opacity="1" stop-color="rgb(60.725403%, 78.78418%, 84.269714%)" offset="0.808594"/><stop stop-opacity="1" stop-color="rgb(60.572815%, 78.712463%, 84.214783%)" offset="0.8125"/><stop stop-opacity="1" stop-color="rgb(60.342407%, 78.605652%, 84.132385%)" offset="0.816406"/><stop stop-opacity="1" stop-color="rgb(60.035706%, 78.462219%, 84.022522%)" offset="0.824219"/><stop stop-opacity="1" stop-color="rgb(59.73053%, 78.317261%, 83.912659%)" offset="0.832031"/><stop stop-opacity="1" stop-color="rgb(59.423828%, 78.173828%, 83.802795%)" offset="0.839844"/><stop stop-opacity="1" stop-color="rgb(59.117126%, 78.030396%, 83.691406%)" offset="0.847656"/><stop stop-opacity="1" stop-color="rgb(58.811951%, 77.886963%, 83.581543%)" offset="0.855469"/><stop stop-opacity="1" stop-color="rgb(58.505249%, 77.74353%, 83.47168%)" offset="0.863281"/><stop stop-opacity="1" stop-color="rgb(58.198547%, 77.598572%, 83.361816%)" offset="0.871094"/><stop stop-opacity="1" stop-color="rgb(57.969666%, 77.490234%, 83.279419%)" offset="0.878906"/><stop stop-opacity="1" stop-color="rgb(57.815552%, 77.418518%, 83.224487%)" offset="0.882812"/><stop stop-opacity="1" stop-color="rgb(57.662964%, 77.346802%, 83.169556%)" offset="0.886719"/><stop stop-opacity="1" stop-color="rgb(57.510376%, 77.275085%, 83.113098%)" offset="0.890625"/><stop stop-opacity="1" stop-color="rgb(57.356262%, 77.203369%, 83.058167%)" offset="0.894531"/><stop stop-opacity="1" stop-color="rgb(57.203674%, 77.131653%, 83.003235%)" offset="0.898438"/><stop stop-opacity="1" stop-color="rgb(57.051086%, 77.059937%, 82.948303%)" offset="0.902344"/><stop stop-opacity="1" stop-color="rgb(56.896973%, 76.98822%, 82.893372%)" offset="0.90625"/><stop stop-opacity="1" stop-color="rgb(56.668091%, 76.879883%, 82.810974%)" offset="0.910156"/><stop stop-opacity="1" stop-color="rgb(56.361389%, 76.73645%, 82.701111%)" offset="0.917969"/><stop stop-opacity="1" stop-color="rgb(56.054688%, 76.593018%, 82.591248%)" offset="0.925781"/><stop stop-opacity="1" stop-color="rgb(55.747986%, 76.449585%, 82.479858%)" offset="0.933594"/><stop stop-opacity="1" stop-color="rgb(55.519104%, 76.341248%, 82.397461%)" offset="0.941406"/><stop stop-opacity="1" stop-color="rgb(55.366516%, 76.269531%, 82.342529%)" offset="0.945312"/><stop stop-opacity="1" stop-color="rgb(55.212402%, 76.196289%, 82.287598%)" offset="0.949219"/><stop stop-opacity="1" stop-color="rgb(55.059814%, 76.124573%, 82.232666%)" offset="0.953125"/><stop stop-opacity="1" stop-color="rgb(54.829407%, 76.017761%, 82.150269%)" offset="0.957031"/><stop stop-opacity="1" stop-color="rgb(54.524231%, 75.874329%, 82.040405%)" offset="0.964844"/><stop stop-opacity="1" stop-color="rgb(54.293823%, 75.765991%, 81.956482%)" offset="0.972656"/><stop stop-opacity="1" stop-color="rgb(54.141235%, 75.694275%, 81.90155%)" offset="0.976562"/><stop stop-opacity="1" stop-color="rgb(53.910828%, 75.585938%, 81.819153%)" offset="0.980469"/><stop stop-opacity="1" stop-color="rgb(53.681946%, 75.4776%, 81.736755%)" offset="0.988281"/><stop stop-opacity="1" stop-color="rgb(53.451538%, 75.370789%, 81.654358%)" offset="0.992188"/><stop stop-opacity="1" stop-color="rgb(53.29895%, 75.299072%, 81.599426%)" offset="1"/></radialGradient></defs><g clip-path="url(#7fcf116311)"><g clip-path="url(#3cf5ec811c)"><path fill="#d9d9d9" d="M 228.117188 319.234375 L 521.761719 319.234375 L 521.761719 430.765625 L 228.117188 430.765625 Z M 228.117188 319.234375 " fill-opacity="1" fill-rule="nonzero"/></g></g><g clip-path="url(#42d20c31c6)"><g clip-path="url(#737b3445b3)"><path stroke-linecap="butt" transform="matrix(0.75, 0, 0, 0.75, 228.120666, 319.233756)" fill="none" stroke-linejoin="miter" d="M 9.000571 0.00082581 L 382.667256 0.00082581 C 387.636006 0.00082581 391.667256 4.026868 391.667256 9.000826 L 391.667256 139.703958 C 391.667256 144.672708 387.636006 148.703958 382.667256 148.703958 L 9.000571 148.703958 C 4.031821 148.703958 0.000570423 144.672708 0.000570423 139.703958 L 0.000570423 9.000826 C 0.000570423 4.026868 4.031821 0.00082581 9.000571 0.00082581 Z M 9.000571 0.00082581 " stroke="#000000" stroke-width="4" stroke-opacity="1" stroke-miterlimit="4"/></g></g><g clip-path="url(#78fe5c16fa)"><g clip-path="url(#cc3e661565)"><path fill="#88c0d0" d="M 235.699219 326.085938 L 514.773438 326.085938 L 514.773438 423.550781 L 235.699219 423.550781 Z M 235.699219 326.085938 " fill-opacity="1" fill-rule="nonzero"/></g></g><g clip-path="url(#865a91e682)"><g clip-path="url(#3fdae6cce1)"><path stroke-linecap="butt" transform="matrix(0.75, 0, 0, 0.75, 235.70107, 326.085004)" fill="none" stroke-linejoin="miter" d="M 8.997532 0.00124452 L 363.096507 0.00124452 C 368.065257 0.00124452 372.091299 4.027286 372.091299 9.001245 L 372.091299 120.954375 C 372.091299 125.923126 368.065257 129.949168 363.096507 129.949168 L 8.997532 129.949168 C 4.028781 129.949168 -0.00246882 125.923126 -0.00246882 120.954375 L -0.00246882 9.001245 C -0.00246882 4.027286 4.028781 0.00124452 8.997532 0.00124452 Z M 8.997532 0.00124452 " stroke="#000000" stroke-width="4" stroke-opacity="1" stroke-miterlimit="4"/></g></g><g clip-path="url(#83607e88ce)"><g clip-path="url(#4223142e37)"><path fill="#88c0d0" d="M 236.527344 327.433594 L 513.308594 327.433594 L 513.308594 422.160156 L 236.527344 422.160156 Z M 236.527344 327.433594 " fill-opacity="1" fill-rule="nonzero"/></g></g><g clip-path="url(#a622f22018)"><g clip-path="url(#01b7ff08eb)"><path stroke-linecap="butt" transform="matrix(0.75, 0, 0, 0.75, 236.531197, 327.434447)" fill="none" stroke-linejoin="miter" d="M 7.000071 -0.00113799 L 362.239649 -0.00113799 C 366.10944 -0.00113799 369.239649 3.134279 369.239649 6.998862 L 369.239649 119.295735 C 369.239649 123.165527 366.10944 126.295735 362.239649 126.295735 L 7.000071 126.295735 C 3.135488 126.295735 0.0000710359 123.165527 0.0000710359 119.295735 L 0.0000710359 6.998862 C 0.0000710359 3.134279 3.135488 -0.00113799 7.000071 -0.00113799 Z M 7.000071 -0.00113799 " stroke="url(#dec7be6298)" stroke-width="16" stroke-miterlimit="4"/></g></g><g fill="#eceff4" fill-opacity="1"><g transform="translate(303.00579, 390.92294)"><g><path d="M 16.609375 -32.859375 C 15.066406 -32.859375 13.804688 -32.460938 12.828125 -31.671875 C 11.859375 -30.878906 11.375 -29.78125 11.375 -28.375 C 11.375 -26.976562 11.734375 -25.882812 12.453125 -25.09375 C 13.171875 -24.300781 14.117188 -23.691406 15.296875 -23.265625 C 16.472656 -22.847656 17.757812 -22.472656 19.15625 -22.140625 C 20.5625 -21.804688 21.960938 -21.398438 23.359375 -20.921875 C 24.753906 -20.441406 26.039062 -19.851562 27.21875 -19.15625 C 28.394531 -18.457031 29.34375 -17.4375 30.0625 -16.09375 C 30.78125 -14.75 31.140625 -13.117188 31.140625 -11.203125 C 31.140625 -8.035156 29.878906 -5.3125 27.359375 -3.03125 C 24.835938 -0.75 21.488281 0.390625 17.3125 0.390625 C 13.132812 0.390625 9.753906 -0.59375 7.171875 -2.5625 C 4.597656 -4.53125 3.3125 -7.300781 3.3125 -10.875 L 11.59375 -10.875 C 11.882812 -7.488281 13.816406 -5.796875 17.390625 -5.796875 C 19.160156 -5.796875 20.5625 -6.253906 21.59375 -7.171875 C 22.625 -8.097656 23.140625 -9.320312 23.140625 -10.84375 C 23.140625 -12.375 22.457031 -13.582031 21.09375 -14.46875 C 19.726562 -15.351562 18.078125 -16.015625 16.140625 -16.453125 C 14.210938 -16.898438 12.273438 -17.4375 10.328125 -18.0625 C 8.378906 -18.6875 6.722656 -19.78125 5.359375 -21.34375 C 3.992188 -22.90625 3.3125 -24.972656 3.3125 -27.546875 C 3.3125 -31.046875 4.582031 -33.84375 7.125 -35.9375 C 9.664062 -38.039062 12.929688 -39.09375 16.921875 -39.09375 C 20.921875 -39.09375 24.132812 -38.179688 26.5625 -36.359375 C 28.988281 -34.535156 30.3125 -31.765625 30.53125 -28.046875 L 22.03125 -28.046875 C 21.882812 -29.523438 21.332031 -30.695312 20.375 -31.5625 C 19.414062 -32.425781 18.160156 -32.859375 16.609375 -32.859375 Z M 16.609375 -32.859375 "/></g></g></g><g fill="#eceff4" fill-opacity="1"><g transform="translate(337.454965, 390.92294)"><g><path d="M 17.0625 0.4375 C 12.601562 0.4375 8.972656 -1.003906 6.171875 -3.890625 C 3.378906 -6.785156 1.984375 -10.601562 1.984375 -15.34375 C 1.984375 -20.09375 3.390625 -23.894531 6.203125 -26.75 C 9.023438 -29.601562 12.671875 -31.03125 17.140625 -31.03125 C 21.617188 -31.03125 25.289062 -29.640625 28.15625 -26.859375 C 31.03125 -24.078125 32.46875 -20.367188 32.46875 -15.734375 C 32.46875 -14.671875 32.394531 -13.675781 32.25 -12.75 L 9.9375 -12.75 C 10.125 -10.769531 10.859375 -9.171875 12.140625 -7.953125 C 13.429688 -6.734375 15.070312 -6.125 17.0625 -6.125 C 19.75 -6.125 21.738281 -7.226562 23.03125 -9.4375 L 31.421875 -9.4375 C 30.535156 -6.53125 28.820312 -4.15625 26.28125 -2.3125 C 23.738281 -0.476562 20.664062 0.4375 17.0625 0.4375 Z M 24.40625 -17.78125 C 24.289062 -19.800781 23.539062 -21.421875 22.15625 -22.640625 C 20.78125 -23.859375 19.117188 -24.46875 17.171875 -24.46875 C 15.222656 -24.46875 13.59375 -23.859375 12.28125 -22.640625 C 10.976562 -21.421875 10.195312 -19.800781 9.9375 -17.78125 Z M 24.40625 -17.78125 "/></g></g></g><g fill="#eceff4" fill-opacity="1"><g transform="translate(371.90414, 390.92294)"><g><path d="M 11.921875 -30.59375 L 11.921875 -26.015625 C 13.878906 -29.359375 17.046875 -31.03125 21.421875 -31.03125 C 24.921875 -31.03125 27.773438 -29.878906 29.984375 -27.578125 C 32.191406 -25.273438 33.296875 -22.082031 33.296875 -18 L 33.296875 0 L 25.5625 0 L 25.5625 -16.890625 C 25.5625 -19.285156 24.953125 -21.117188 23.734375 -22.390625 C 22.523438 -23.660156 20.867188 -24.296875 18.765625 -24.296875 C 16.671875 -24.296875 15.003906 -23.660156 13.765625 -22.390625 C 12.535156 -21.117188 11.921875 -19.285156 11.921875 -16.890625 L 11.921875 0 L 4.140625 0 L 4.140625 -30.59375 Z M 11.921875 -30.59375 "/></g></g></g><g fill="#eceff4" fill-opacity="1"><g transform="translate(409.058458, 390.92294)"><g><path d="M 23.625 -8.6875 C 25.25 -10.289062 26.0625 -12.492188 26.0625 -15.296875 C 26.0625 -18.097656 25.25 -20.296875 23.625 -21.890625 C 22.007812 -23.492188 20.113281 -24.296875 17.9375 -24.296875 C 15.769531 -24.296875 13.882812 -23.503906 12.28125 -21.921875 C 10.6875 -20.335938 9.890625 -18.144531 9.890625 -15.34375 C 9.890625 -12.550781 10.695312 -10.34375 12.3125 -8.71875 C 13.9375 -7.101562 15.820312 -6.296875 17.96875 -6.296875 C 20.125 -6.296875 22.007812 -7.09375 23.625 -8.6875 Z M 6.09375 -4 C 3.351562 -6.96875 1.984375 -10.75 1.984375 -15.34375 C 1.984375 -19.945312 3.34375 -23.710938 6.0625 -26.640625 C 8.789062 -29.566406 12.253906 -31.03125 16.453125 -31.03125 C 20.648438 -31.03125 23.851562 -29.300781 26.0625 -25.84375 L 26.0625 -40.859375 L 33.796875 -40.859375 L 33.796875 0 L 26.0625 0 L 26.0625 -5.140625 C 23.738281 -1.421875 20.515625 0.4375 16.390625 0.4375 C 12.273438 0.4375 8.84375 -1.039062 6.09375 -4 Z M 6.09375 -4 "/></g></g></g></svg>