<svg xmlns="http://www.w3.org/2000/svg" xmlns:xlink="http://www.w3.org/1999/xlink" width="1000" zoomAndPan="magnify" viewBox="0 0 750 749.999995" height="1000" preserveAspectRatio="xMidYMid meet" version="1.0"><defs><g/><clipPath id="e1bea84e5f"><path d="M 205.019531 319.234375 L 545 319.234375 L 545 430.765625 L 205.019531 430.765625 Z M 205.019531 319.234375 " clip-rule="nonzero"/></clipPath><clipPath id="9066aa024d"><path d="M 211.769531 319.234375 L 538.230469 319.234375 C 541.957031 319.234375 544.980469 322.253906 544.980469 325.984375 L 544.980469 424.015625 C 544.980469 427.746094 541.957031 430.765625 538.230469 430.765625 L 211.769531 430.765625 C 208.042969 430.765625 205.019531 427.746094 205.019531 424.015625 L 205.019531 325.984375 C 205.019531 322.253906 208.042969 319.234375 211.769531 319.234375 Z M 211.769531 319.234375 " clip-rule="nonzero"/></clipPath><clipPath id="0b1f07661f"><path d="M 205.019531 319.234375 L 544.769531 319.234375 L 544.769531 430.984375 L 205.019531 430.984375 Z M 205.019531 319.234375 " clip-rule="nonzero"/></clipPath><clipPath id="c56d0cdd9f"><path d="M 211.773438 319.234375 L 538.21875 319.234375 C 541.945312 319.234375 544.964844 322.253906 544.964844 325.984375 L 544.964844 424.011719 C 544.964844 427.738281 541.945312 430.761719 538.21875 430.761719 L 211.773438 430.761719 C 208.046875 430.761719 205.023438 427.738281 205.023438 424.011719 L 205.023438 325.984375 C 205.023438 322.253906 208.046875 319.234375 211.773438 319.234375 Z M 211.773438 319.234375 " clip-rule="nonzero"/></clipPath><clipPath id="a9932911b1"><path d="M 211.085938 326.085938 L 539 326.085938 L 539 423.550781 L 211.085938 423.550781 Z M 211.085938 326.085938 " clip-rule="nonzero"/></clipPath><clipPath id="f1405a2efb"><path d="M 217.835938 326.085938 L 532.164062 326.085938 C 535.890625 326.085938 538.914062 329.105469 538.914062 332.835938 L 538.914062 416.800781 C 538.914062 420.527344 535.890625 423.550781 532.164062 423.550781 L 217.835938 423.550781 C 214.109375 423.550781 211.085938 420.527344 211.085938 416.800781 L 211.085938 332.835938 C 211.085938 329.105469 214.109375 326.085938 217.835938 326.085938 Z M 217.835938 326.085938 " clip-rule="nonzero"/></clipPath><clipPath id="7c2e843fef"><path d="M 211.085938 326.085938 L 538.835938 326.085938 L 538.835938 423.585938 L 211.085938 423.585938 Z M 211.085938 326.085938 " clip-rule="nonzero"/></clipPath><clipPath id="f9b14f046f"><path d="M 217.835938 326.085938 L 532.15625 326.085938 C 535.886719 326.085938 538.90625 329.105469 538.90625 332.835938 L 538.90625 416.800781 C 538.90625 420.527344 535.886719 423.550781 532.15625 423.550781 L 217.835938 423.550781 C 214.109375 423.550781 211.085938 420.527344 211.085938 416.800781 L 211.085938 332.835938 C 211.085938 329.105469 214.109375 326.085938 217.835938 326.085938 Z M 217.835938 326.085938 " clip-rule="nonzero"/></clipPath><clipPath id="d83736c545"><path d="M 212.046875 327.433594 L 538 327.433594 L 538 422.160156 L 212.046875 422.160156 Z M 212.046875 327.433594 " clip-rule="nonzero"/></clipPath><clipPath id="3e374979a8"><path d="M 217.296875 327.433594 L 532.675781 327.433594 C 535.578125 327.433594 537.925781 329.785156 537.925781 332.683594 L 537.925781 416.910156 C 537.925781 419.8125 535.578125 422.160156 532.675781 422.160156 L 217.296875 422.160156 C 214.398438 422.160156 212.046875 419.8125 212.046875 416.910156 L 212.046875 332.683594 C 212.046875 329.785156 214.398438 327.433594 217.296875 327.433594 Z M 217.296875 327.433594 " clip-rule="nonzero"/></clipPath><clipPath id="904faaaac5"><path d="M 212.054688 327.433594 L 538 327.433594 L 538 421.933594 L 212.054688 421.933594 Z M 212.054688 327.433594 " clip-rule="nonzero"/></clipPath><clipPath id="406392bb89"><path d="M 217.304688 327.433594 L 532.667969 327.433594 C 535.566406 327.433594 537.917969 329.785156 537.917969 332.683594 L 537.917969 416.90625 C 537.917969 419.808594 535.566406 422.15625 532.667969 422.15625 L 217.304688 422.15625 C 214.402344 422.15625 212.054688 419.808594 212.054688 416.90625 L 212.054688 332.683594 C 212.054688 329.785156 214.402344 327.433594 217.304688 327.433594 Z M 217.304688 327.433594 " clip-rule="nonzero"/></clipPath><radialGradient gradientTransform="matrix(1.333333, 0, 0, 1.333333, 0.0000032474, 0.0000272575)" gradientUnits="userSpaceOnUse" r="169.677555" cx="162.932582" id="b5c42e166c" cy="47.360973" fx="162.932582" fy="47.360973"><stop stop-opacity="1" stop-color="rgb(92.346191%, 93.62793%, 95.643616%)" offset="0"/><stop stop-opacity="1" stop-color="rgb(92.115784%, 93.519592%, 95.561218%)" offset="0.0078125"/><stop stop-opacity="1" stop-color="rgb(91.963196%, 93.44635%, 95.506287%)" offset="0.0117188"/><stop stop-opacity="1" stop-color="rgb(91.810608%, 93.374634%, 95.451355%)" offset="0.015625"/><stop stop-opacity="1" stop-color="rgb(91.656494%, 93.302917%, 95.396423%)" offset="0.0195312"/><stop stop-opacity="1" stop-color="rgb(91.503906%, 93.231201%, 95.341492%)" offset="0.0234375"/><stop stop-opacity="1" stop-color="rgb(91.349792%, 93.159485%, 95.28656%)" offset="0.0273438"/><stop stop-opacity="1" stop-color="rgb(91.197205%, 93.087769%, 95.231628%)" offset="0.03125"/><stop stop-opacity="1" stop-color="rgb(91.044617%, 93.016052%, 95.175171%)" offset="0.0351562"/><stop stop-opacity="1" stop-color="rgb(90.890503%, 92.944336%, 95.120239%)" offset="0.0390625"/><stop stop-opacity="1" stop-color="rgb(90.737915%, 92.87262%, 95.065308%)" offset="0.0429688"/><stop stop-opacity="1" stop-color="rgb(90.585327%, 92.799377%, 95.010376%)" offset="0.046875"/><stop stop-opacity="1" stop-color="rgb(90.431213%, 92.727661%, 94.955444%)" offset="0.0507812"/><stop stop-opacity="1" stop-color="rgb(90.278625%, 92.655945%, 94.900513%)" offset="0.0546875"/><stop stop-opacity="1" stop-color="rgb(90.126038%, 92.584229%, 94.845581%)" offset="0.0585938"/><stop stop-opacity="1" stop-color="rgb(89.971924%, 92.512512%, 94.790649%)" offset="0.0625"/><stop stop-opacity="1" stop-color="rgb(89.819336%, 92.440796%, 94.735718%)" offset="0.0664062"/><stop stop-opacity="1" stop-color="rgb(89.666748%, 92.36908%, 94.680786%)" offset="0.0703125"/><stop stop-opacity="1" stop-color="rgb(89.512634%, 92.297363%, 94.625854%)" offset="0.0742188"/><stop stop-opacity="1" stop-color="rgb(89.360046%, 92.225647%, 94.569397%)" offset="0.078125"/><stop stop-opacity="1" stop-color="rgb(89.207458%, 92.153931%, 94.514465%)" offset="0.0820312"/><stop stop-opacity="1" stop-color="rgb(89.053345%, 92.080688%, 94.459534%)" offset="0.0859375"/><stop stop-opacity="1" stop-color="rgb(88.900757%, 92.008972%, 94.404602%)" offset="0.0898438"/><stop stop-opacity="1" stop-color="rgb(88.748169%, 91.937256%, 94.34967%)" offset="0.09375"/><stop stop-opacity="1" stop-color="rgb(88.594055%, 91.86554%, 94.294739%)" offset="0.0976562"/><stop stop-opacity="1" stop-color="rgb(88.441467%, 91.793823%, 94.239807%)" offset="0.101562"/><stop stop-opacity="1" stop-color="rgb(88.287354%, 91.722107%, 94.184875%)" offset="0.105469"/><stop stop-opacity="1" stop-color="rgb(88.134766%, 91.650391%, 94.129944%)" offset="0.109375"/><stop stop-opacity="1" stop-color="rgb(87.982178%, 91.578674%, 94.075012%)" offset="0.113281"/><stop stop-opacity="1" stop-color="rgb(87.828064%, 91.506958%, 94.018555%)" offset="0.117188"/><stop stop-opacity="1" stop-color="rgb(87.675476%, 91.435242%, 93.963623%)" offset="0.121094"/><stop stop-opacity="1" stop-color="rgb(87.522888%, 91.362%, 93.908691%)" offset="0.125"/><stop stop-opacity="1" stop-color="rgb(87.368774%, 91.290283%, 93.85376%)" offset="0.128906"/><stop stop-opacity="1" stop-color="rgb(87.216187%, 91.218567%, 93.798828%)" offset="0.132812"/><stop stop-opacity="1" stop-color="rgb(87.063599%, 91.146851%, 93.743896%)" offset="0.136719"/><stop stop-opacity="1" stop-color="rgb(86.909485%, 91.075134%, 93.688965%)" offset="0.140625"/><stop stop-opacity="1" stop-color="rgb(86.756897%, 91.003418%, 93.634033%)" offset="0.144531"/><stop stop-opacity="1" stop-color="rgb(86.604309%, 90.931702%, 93.579102%)" offset="0.148438"/><stop stop-opacity="1" stop-color="rgb(86.450195%, 90.859985%, 93.52417%)" offset="0.152344"/><stop stop-opacity="1" stop-color="rgb(86.297607%, 90.788269%, 93.469238%)" offset="0.15625"/><stop stop-opacity="1" stop-color="rgb(86.14502%, 90.715027%, 93.412781%)" offset="0.160156"/><stop stop-opacity="1" stop-color="rgb(85.990906%, 90.643311%, 93.357849%)" offset="0.164062"/><stop stop-opacity="1" stop-color="rgb(85.838318%, 90.571594%, 93.302917%)" offset="0.167969"/><stop stop-opacity="1" stop-color="rgb(85.684204%, 90.499878%, 93.247986%)" offset="0.171875"/><stop stop-opacity="1" stop-color="rgb(85.531616%, 90.428162%, 93.193054%)" offset="0.175781"/><stop stop-opacity="1" stop-color="rgb(85.379028%, 90.356445%, 93.138123%)" offset="0.179688"/><stop stop-opacity="1" stop-color="rgb(85.224915%, 90.284729%, 93.083191%)" offset="0.183594"/><stop stop-opacity="1" stop-color="rgb(85.072327%, 90.213013%, 93.028259%)" offset="0.1875"/><stop stop-opacity="1" stop-color="rgb(84.919739%, 90.141296%, 92.973328%)" offset="0.191406"/><stop stop-opacity="1" stop-color="rgb(84.765625%, 90.06958%, 92.918396%)" offset="0.195312"/><stop stop-opacity="1" stop-color="rgb(84.613037%, 89.996338%, 92.861938%)" offset="0.199219"/><stop stop-opacity="1" stop-color="rgb(84.460449%, 89.924622%, 92.807007%)" offset="0.203125"/><stop stop-opacity="1" stop-color="rgb(84.306335%, 89.852905%, 92.752075%)" offset="0.207031"/><stop stop-opacity="1" stop-color="rgb(84.153748%, 89.781189%, 92.697144%)" offset="0.210938"/><stop stop-opacity="1" stop-color="rgb(84.00116%, 89.709473%, 92.642212%)" offset="0.214844"/><stop stop-opacity="1" stop-color="rgb(83.847046%, 89.637756%, 92.58728%)" offset="0.21875"/><stop stop-opacity="1" stop-color="rgb(83.694458%, 89.56604%, 92.532349%)" offset="0.222656"/><stop stop-opacity="1" stop-color="rgb(83.54187%, 89.494324%, 92.477417%)" offset="0.226562"/><stop stop-opacity="1" stop-color="rgb(83.387756%, 89.422607%, 92.422485%)" offset="0.230469"/><stop stop-opacity="1" stop-color="rgb(83.235168%, 89.349365%, 92.367554%)" offset="0.234375"/><stop stop-opacity="1" stop-color="rgb(83.081055%, 89.277649%, 92.312622%)" offset="0.238281"/><stop stop-opacity="1" stop-color="rgb(82.928467%, 89.205933%, 92.256165%)" offset="0.242188"/><stop stop-opacity="1" stop-color="rgb(82.775879%, 89.134216%, 92.201233%)" offset="0.246094"/><stop stop-opacity="1" stop-color="rgb(82.621765%, 89.0625%, 92.146301%)" offset="0.25"/><stop stop-opacity="1" stop-color="rgb(82.392883%, 88.955688%, 92.063904%)" offset="0.253906"/><stop stop-opacity="1" stop-color="rgb(82.086182%, 88.812256%, 91.954041%)" offset="0.261719"/><stop stop-opacity="1" stop-color="rgb(81.77948%, 88.667297%, 91.844177%)" offset="0.269531"/><stop stop-opacity="1" stop-color="rgb(81.474304%, 88.523865%, 91.732788%)" offset="0.277344"/><stop stop-opacity="1" stop-color="rgb(81.167603%, 88.380432%, 91.622925%)" offset="0.285156"/><stop stop-opacity="1" stop-color="rgb(80.860901%, 88.237%, 91.513062%)" offset="0.292969"/><stop stop-opacity="1" stop-color="rgb(80.554199%, 88.093567%, 91.403198%)" offset="0.300781"/><stop stop-opacity="1" stop-color="rgb(80.249023%, 87.948608%, 91.293335%)" offset="0.308594"/><stop stop-opacity="1" stop-color="rgb(79.942322%, 87.805176%, 91.181946%)" offset="0.316406"/><stop stop-opacity="1" stop-color="rgb(79.63562%, 87.661743%, 91.072083%)" offset="0.324219"/><stop stop-opacity="1" stop-color="rgb(79.330444%, 87.518311%, 90.962219%)" offset="0.332031"/><stop stop-opacity="1" stop-color="rgb(79.023743%, 87.373352%, 90.852356%)" offset="0.339844"/><stop stop-opacity="1" stop-color="rgb(78.717041%, 87.229919%, 90.742493%)" offset="0.347656"/><stop stop-opacity="1" stop-color="rgb(78.411865%, 87.086487%, 90.632629%)" offset="0.355469"/><stop stop-opacity="1" stop-color="rgb(78.105164%, 86.943054%, 90.52124%)" offset="0.363281"/><stop stop-opacity="1" stop-color="rgb(77.798462%, 86.799622%, 90.411377%)" offset="0.371094"/><stop stop-opacity="1" stop-color="rgb(77.49176%, 86.654663%, 90.301514%)" offset="0.378906"/><stop stop-opacity="1" stop-color="rgb(77.186584%, 86.51123%, 90.19165%)" offset="0.386719"/><stop stop-opacity="1" stop-color="rgb(76.879883%, 86.367798%, 90.081787%)" offset="0.394531"/><stop stop-opacity="1" stop-color="rgb(76.573181%, 86.224365%, 89.970398%)" offset="0.402344"/><stop stop-opacity="1" stop-color="rgb(76.268005%, 86.080933%, 89.860535%)" offset="0.410156"/><stop stop-opacity="1" stop-color="rgb(75.961304%, 85.935974%, 89.750671%)" offset="0.417969"/><stop stop-opacity="1" stop-color="rgb(75.654602%, 85.792542%, 89.640808%)" offset="0.425781"/><stop stop-opacity="1" stop-color="rgb(75.349426%, 85.649109%, 89.530945%)" offset="0.433594"/><stop stop-opacity="1" stop-color="rgb(75.042725%, 85.505676%, 89.419556%)" offset="0.441406"/><stop stop-opacity="1" stop-color="rgb(74.736023%, 85.362244%, 89.309692%)" offset="0.449219"/><stop stop-opacity="1" stop-color="rgb(74.429321%, 85.217285%, 89.199829%)" offset="0.457031"/><stop stop-opacity="1" stop-color="rgb(74.124146%, 85.073853%, 89.089966%)" offset="0.464844"/><stop stop-opacity="1" stop-color="rgb(73.817444%, 84.93042%, 88.980103%)" offset="0.472656"/><stop stop-opacity="1" stop-color="rgb(73.510742%, 84.786987%, 88.868713%)" offset="0.480469"/><stop stop-opacity="1" stop-color="rgb(73.205566%, 84.643555%, 88.75885%)" offset="0.488281"/><stop stop-opacity="1" stop-color="rgb(72.898865%, 84.498596%, 88.648987%)" offset="0.496094"/><stop stop-opacity="1" stop-color="rgb(72.669983%, 84.390259%, 88.566589%)" offset="0.503906"/><stop stop-opacity="1" stop-color="rgb(72.515869%, 84.318542%, 88.511658%)" offset="0.507812"/><stop stop-opacity="1" stop-color="rgb(72.363281%, 84.246826%, 88.456726%)" offset="0.511719"/><stop stop-opacity="1" stop-color="rgb(72.209167%, 84.17511%, 88.401794%)" offset="0.515625"/><stop stop-opacity="1" stop-color="rgb(72.05658%, 84.103394%, 88.346863%)" offset="0.519531"/><stop stop-opacity="1" stop-color="rgb(71.903992%, 84.031677%, 88.290405%)" offset="0.523438"/><stop stop-opacity="1" stop-color="rgb(71.749878%, 83.959961%, 88.235474%)" offset="0.527344"/><stop stop-opacity="1" stop-color="rgb(71.59729%, 83.888245%, 88.180542%)" offset="0.53125"/><stop stop-opacity="1" stop-color="rgb(71.444702%, 83.815002%, 88.12561%)" offset="0.535156"/><stop stop-opacity="1" stop-color="rgb(71.290588%, 83.743286%, 88.070679%)" offset="0.539062"/><stop stop-opacity="1" stop-color="rgb(71.138%, 83.67157%, 88.015747%)" offset="0.542969"/><stop stop-opacity="1" stop-color="rgb(70.985413%, 83.599854%, 87.960815%)" offset="0.546875"/><stop stop-opacity="1" stop-color="rgb(70.831299%, 83.528137%, 87.905884%)" offset="0.550781"/><stop stop-opacity="1" stop-color="rgb(70.678711%, 83.456421%, 87.850952%)" offset="0.554688"/><stop stop-opacity="1" stop-color="rgb(70.526123%, 83.384705%, 87.796021%)" offset="0.558594"/><stop stop-opacity="1" stop-color="rgb(70.372009%, 83.312988%, 87.741089%)" offset="0.5625"/><stop stop-opacity="1" stop-color="rgb(70.219421%, 83.241272%, 87.684631%)" offset="0.566406"/><stop stop-opacity="1" stop-color="rgb(70.066833%, 83.169556%, 87.6297%)" offset="0.570312"/><stop stop-opacity="1" stop-color="rgb(69.91272%, 83.096313%, 87.574768%)" offset="0.574219"/><stop stop-opacity="1" stop-color="rgb(69.760132%, 83.024597%, 87.519836%)" offset="0.578125"/><stop stop-opacity="1" stop-color="rgb(69.607544%, 82.952881%, 87.464905%)" offset="0.582031"/><stop stop-opacity="1" stop-color="rgb(69.45343%, 82.881165%, 87.409973%)" offset="0.585938"/><stop stop-opacity="1" stop-color="rgb(69.300842%, 82.809448%, 87.355042%)" offset="0.589844"/><stop stop-opacity="1" stop-color="rgb(69.146729%, 82.737732%, 87.30011%)" offset="0.59375"/><stop stop-opacity="1" stop-color="rgb(68.994141%, 82.666016%, 87.245178%)" offset="0.597656"/><stop stop-opacity="1" stop-color="rgb(68.841553%, 82.594299%, 87.190247%)" offset="0.601562"/><stop stop-opacity="1" stop-color="rgb(68.687439%, 82.522583%, 87.133789%)" offset="0.605469"/><stop stop-opacity="1" stop-color="rgb(68.534851%, 82.450867%, 87.078857%)" offset="0.609375"/><stop stop-opacity="1" stop-color="rgb(68.382263%, 82.377625%, 87.023926%)" offset="0.613281"/><stop stop-opacity="1" stop-color="rgb(68.228149%, 82.305908%, 86.968994%)" offset="0.617188"/><stop stop-opacity="1" stop-color="rgb(68.075562%, 82.234192%, 86.914062%)" offset="0.621094"/><stop stop-opacity="1" stop-color="rgb(67.922974%, 82.162476%, 86.859131%)" offset="0.625"/><stop stop-opacity="1" stop-color="rgb(67.692566%, 82.055664%, 86.776733%)" offset="0.628906"/><stop stop-opacity="1" stop-color="rgb(67.385864%, 81.912231%, 86.66687%)" offset="0.636719"/><stop stop-opacity="1" stop-color="rgb(67.080688%, 81.767273%, 86.555481%)" offset="0.644531"/><stop stop-opacity="1" stop-color="rgb(66.773987%, 81.62384%, 86.445618%)" offset="0.652344"/><stop stop-opacity="1" stop-color="rgb(66.467285%, 81.480408%, 86.335754%)" offset="0.660156"/><stop stop-opacity="1" stop-color="rgb(66.160583%, 81.336975%, 86.225891%)" offset="0.667969"/><stop stop-opacity="1" stop-color="rgb(65.855408%, 81.193542%, 86.116028%)" offset="0.675781"/><stop stop-opacity="1" stop-color="rgb(65.548706%, 81.048584%, 86.004639%)" offset="0.683594"/><stop stop-opacity="1" stop-color="rgb(65.242004%, 80.905151%, 85.894775%)" offset="0.691406"/><stop stop-opacity="1" stop-color="rgb(64.936829%, 80.761719%, 85.784912%)" offset="0.699219"/><stop stop-opacity="1" stop-color="rgb(64.630127%, 80.618286%, 85.675049%)" offset="0.707031"/><stop stop-opacity="1" stop-color="rgb(64.323425%, 80.473328%, 85.565186%)" offset="0.714844"/><stop stop-opacity="1" stop-color="rgb(64.016724%, 80.329895%, 85.455322%)" offset="0.722656"/><stop stop-opacity="1" stop-color="rgb(63.711548%, 80.186462%, 85.343933%)" offset="0.730469"/><stop stop-opacity="1" stop-color="rgb(63.404846%, 80.04303%, 85.23407%)" offset="0.738281"/><stop stop-opacity="1" stop-color="rgb(63.098145%, 79.899597%, 85.124207%)" offset="0.746094"/><stop stop-opacity="1" stop-color="rgb(62.869263%, 79.79126%, 85.041809%)" offset="0.753906"/><stop stop-opacity="1" stop-color="rgb(62.716675%, 79.719543%, 84.986877%)" offset="0.757812"/><stop stop-opacity="1" stop-color="rgb(62.562561%, 79.646301%, 84.931946%)" offset="0.761719"/><stop stop-opacity="1" stop-color="rgb(62.409973%, 79.574585%, 84.877014%)" offset="0.765625"/><stop stop-opacity="1" stop-color="rgb(62.257385%, 79.502869%, 84.820557%)" offset="0.769531"/><stop stop-opacity="1" stop-color="rgb(62.103271%, 79.431152%, 84.765625%)" offset="0.773438"/><stop stop-opacity="1" stop-color="rgb(61.950684%, 79.359436%, 84.710693%)" offset="0.777344"/><stop stop-opacity="1" stop-color="rgb(61.798096%, 79.28772%, 84.655762%)" offset="0.78125"/><stop stop-opacity="1" stop-color="rgb(61.643982%, 79.216003%, 84.60083%)" offset="0.785156"/><stop stop-opacity="1" stop-color="rgb(61.491394%, 79.144287%, 84.545898%)" offset="0.789062"/><stop stop-opacity="1" stop-color="rgb(61.33728%, 79.072571%, 84.490967%)" offset="0.792969"/><stop stop-opacity="1" stop-color="rgb(61.184692%, 79.000854%, 84.436035%)" offset="0.796875"/><stop stop-opacity="1" stop-color="rgb(61.032104%, 78.927612%, 84.381104%)" offset="0.800781"/><stop stop-opacity="1" stop-color="rgb(60.877991%, 78.855896%, 84.326172%)" offset="0.804688"/><stop stop-opacity="1" stop-color="rgb(60.725403%, 78.78418%, 84.269714%)" offset="0.808594"/><stop stop-opacity="1" stop-color="rgb(60.572815%, 78.712463%, 84.214783%)" offset="0.8125"/><stop stop-opacity="1" stop-color="rgb(60.342407%, 78.605652%, 84.132385%)" offset="0.816406"/><stop stop-opacity="1" stop-color="rgb(60.035706%, 78.462219%, 84.022522%)" offset="0.824219"/><stop stop-opacity="1" stop-color="rgb(59.73053%, 78.317261%, 83.912659%)" offset="0.832031"/><stop stop-opacity="1" stop-color="rgb(59.423828%, 78.173828%, 83.802795%)" offset="0.839844"/><stop stop-opacity="1" stop-color="rgb(59.117126%, 78.030396%, 83.691406%)" offset="0.847656"/><stop stop-opacity="1" stop-color="rgb(58.811951%, 77.886963%, 83.581543%)" offset="0.855469"/><stop stop-opacity="1" stop-color="rgb(58.505249%, 77.74353%, 83.47168%)" offset="0.863281"/><stop stop-opacity="1" stop-color="rgb(58.198547%, 77.598572%, 83.361816%)" offset="0.871094"/><stop stop-opacity="1" stop-color="rgb(57.969666%, 77.490234%, 83.279419%)" offset="0.878906"/><stop stop-opacity="1" stop-color="rgb(57.815552%, 77.418518%, 83.224487%)" offset="0.882812"/><stop stop-opacity="1" stop-color="rgb(57.662964%, 77.346802%, 83.169556%)" offset="0.886719"/><stop stop-opacity="1" stop-color="rgb(57.510376%, 77.275085%, 83.113098%)" offset="0.890625"/><stop stop-opacity="1" stop-color="rgb(57.356262%, 77.203369%, 83.058167%)" offset="0.894531"/><stop stop-opacity="1" stop-color="rgb(57.203674%, 77.131653%, 83.003235%)" offset="0.898438"/><stop stop-opacity="1" stop-color="rgb(57.051086%, 77.059937%, 82.948303%)" offset="0.902344"/><stop stop-opacity="1" stop-color="rgb(56.896973%, 76.98822%, 82.893372%)" offset="0.90625"/><stop stop-opacity="1" stop-color="rgb(56.668091%, 76.879883%, 82.810974%)" offset="0.910156"/><stop stop-opacity="1" stop-color="rgb(56.361389%, 76.73645%, 82.701111%)" offset="0.917969"/><stop stop-opacity="1" stop-color="rgb(56.054688%, 76.593018%, 82.591248%)" offset="0.925781"/><stop stop-opacity="1" stop-color="rgb(55.747986%, 76.449585%, 82.479858%)" offset="0.933594"/><stop stop-opacity="1" stop-color="rgb(55.519104%, 76.341248%, 82.397461%)" offset="0.941406"/><stop stop-opacity="1" stop-color="rgb(55.366516%, 76.269531%, 82.342529%)" offset="0.945312"/><stop stop-opacity="1" stop-color="rgb(55.212402%, 76.196289%, 82.287598%)" offset="0.949219"/><stop stop-opacity="1" stop-color="rgb(55.059814%, 76.124573%, 82.232666%)" offset="0.953125"/><stop stop-opacity="1" stop-color="rgb(54.829407%, 76.017761%, 82.150269%)" offset="0.957031"/><stop stop-opacity="1" stop-color="rgb(54.524231%, 75.874329%, 82.040405%)" offset="0.964844"/><stop stop-opacity="1" stop-color="rgb(54.293823%, 75.765991%, 81.956482%)" offset="0.972656"/><stop stop-opacity="1" stop-color="rgb(54.141235%, 75.694275%, 81.90155%)" offset="0.976562"/><stop stop-opacity="1" stop-color="rgb(53.910828%, 75.585938%, 81.819153%)" offset="0.980469"/><stop stop-opacity="1" stop-color="rgb(53.681946%, 75.4776%, 81.736755%)" offset="0.988281"/><stop stop-opacity="1" stop-color="rgb(53.451538%, 75.370789%, 81.654358%)" offset="0.992188"/><stop stop-opacity="1" stop-color="rgb(53.29895%, 75.299072%, 81.599426%)" offset="1"/></radialGradient></defs><g clip-path="url(#e1bea84e5f)"><g clip-path="url(#9066aa024d)"><path fill="#d9d9d9" d="M 205.019531 319.234375 L 544.847656 319.234375 L 544.847656 430.765625 L 205.019531 430.765625 Z M 205.019531 319.234375 " fill-opacity="1" fill-rule="nonzero"/></g></g><g clip-path="url(#0b1f07661f)"><g clip-path="url(#c56d0cdd9f)"><path stroke-linecap="butt" transform="matrix(0.75, 0, 0, 0.75, 205.023434, 319.233756)" fill="none" stroke-linejoin="miter" d="M 9.000005 0.00082581 L 444.260443 0.00082581 C 449.229193 0.00082581 453.255235 4.026868 453.255235 9.000826 L 453.255235 139.703958 C 453.255235 144.672708 449.229193 148.703958 444.260443 148.703958 L 9.000005 148.703958 C 4.031255 148.703958 0.00000432197 144.672708 0.00000432197 139.703958 L 0.00000432197 9.000826 C 0.00000432197 4.026868 4.031255 0.00082581 9.000005 0.00082581 Z M 9.000005 0.00082581 " stroke="#000000" stroke-width="4" stroke-opacity="1" stroke-miterlimit="4"/></g></g><g clip-path="url(#a9932911b1)"><g clip-path="url(#f1405a2efb)"><path fill="#bf616a" d="M 211.085938 326.085938 L 538.890625 326.085938 L 538.890625 423.550781 L 211.085938 423.550781 Z M 211.085938 326.085938 " fill-opacity="1" fill-rule="nonzero"/></g></g><g clip-path="url(#7c2e843fef)"><g clip-path="url(#f9b14f046f)"><path stroke-linecap="butt" transform="matrix(0.75, 0, 0, 0.75, 211.0872, 326.084829)" fill="none" stroke-linejoin="miter" d="M 8.998317 0.00147812 L 428.092061 0.00147812 C 433.066019 0.00147812 437.092061 4.02752 437.092061 9.001478 L 437.092061 120.954601 C 437.092061 125.923351 433.066019 129.954601 428.092061 129.954601 L 8.998317 129.954601 C 4.029567 129.954601 -0.00168275 125.923351 -0.00168275 120.954601 L -0.00168275 9.001478 C -0.00168275 4.02752 4.029567 0.00147812 8.998317 0.00147812 Z M 8.998317 0.00147812 " stroke="#000000" stroke-width="4" stroke-opacity="1" stroke-miterlimit="4"/></g></g><g clip-path="url(#d83736c545)"><g clip-path="url(#3e374979a8)"><path fill="#88c0d0" d="M 212.046875 327.433594 L 538.042969 327.433594 L 538.042969 422.160156 L 212.046875 422.160156 Z M 212.046875 327.433594 " fill-opacity="1" fill-rule="nonzero"/></g></g><g clip-path="url(#904faaaac5)"><g clip-path="url(#406392bb89)"><path stroke-linecap="butt" transform="matrix(0.75, 0, 0, 0.75, 212.053279, 327.434447)" fill="none" stroke-linejoin="miter" d="M 7.001878 -0.00113799 L 427.486247 -0.00113799 C 431.35083 -0.00113799 434.486247 3.134279 434.486247 6.998862 L 434.486247 119.295735 C 434.486247 123.165527 431.35083 126.295735 427.486247 126.295735 L 7.001878 126.295735 C 3.132087 126.295735 0.00187838 123.165527 0.00187838 119.295735 L 0.00187838 6.998862 C 0.00187838 3.134279 3.132087 -0.00113799 7.001878 -0.00113799 Z M 7.001878 -0.00113799 " stroke="url(#b5c42e166c)" stroke-width="16" stroke-miterlimit="4"/></g></g><g fill="#eceff4" fill-opacity="1"><g transform="translate(279.087822, 390.92294)"><g><path d="M 16.3125 -32.25 C 14.789062 -32.25 13.550781 -31.859375 12.59375 -31.078125 C 11.644531 -30.304688 11.171875 -29.234375 11.171875 -27.859375 C 11.171875 -26.484375 11.519531 -25.40625 12.21875 -24.625 C 12.925781 -23.851562 13.859375 -23.257812 15.015625 -22.84375 C 16.171875 -22.425781 17.4375 -22.054688 18.8125 -21.734375 C 20.1875 -21.410156 21.554688 -21.015625 22.921875 -20.546875 C 24.296875 -20.078125 25.5625 -19.5 26.71875 -18.8125 C 27.875 -18.125 28.804688 -17.117188 29.515625 -15.796875 C 30.222656 -14.484375 30.578125 -12.882812 30.578125 -11 C 30.578125 -7.894531 29.335938 -5.222656 26.859375 -2.984375 C 24.378906 -0.742188 21.085938 0.375 16.984375 0.375 C 12.890625 0.375 9.578125 -0.585938 7.046875 -2.515625 C 4.515625 -4.453125 3.25 -7.171875 3.25 -10.671875 L 11.375 -10.671875 C 11.664062 -7.347656 13.566406 -5.6875 17.078125 -5.6875 C 18.804688 -5.6875 20.175781 -6.140625 21.1875 -7.046875 C 22.207031 -7.953125 22.71875 -9.15625 22.71875 -10.65625 C 22.71875 -12.15625 22.046875 -13.335938 20.703125 -14.203125 C 19.367188 -15.066406 17.753906 -15.710938 15.859375 -16.140625 C 13.960938 -16.578125 12.054688 -17.101562 10.140625 -17.71875 C 8.222656 -18.332031 6.59375 -19.40625 5.25 -20.9375 C 3.914062 -22.476562 3.25 -24.515625 3.25 -27.046875 C 3.25 -30.484375 4.492188 -33.226562 6.984375 -35.28125 C 9.484375 -37.34375 12.691406 -38.375 16.609375 -38.375 C 20.535156 -38.375 23.691406 -37.476562 26.078125 -35.6875 C 28.460938 -33.90625 29.757812 -31.1875 29.96875 -27.53125 L 21.625 -27.53125 C 21.476562 -28.976562 20.9375 -30.125 20 -30.96875 C 19.0625 -31.820312 17.832031 -32.25 16.3125 -32.25 Z M 16.3125 -32.25 "/></g></g></g><g fill="#eceff4" fill-opacity="1"><g transform="translate(312.908133, 390.92294)"><g><path d="M 12.515625 -37.671875 C 12.515625 -36.367188 12.0625 -35.265625 11.15625 -34.359375 C 10.257812 -33.460938 9.171875 -33.015625 7.890625 -33.015625 C 6.609375 -33.015625 5.515625 -33.460938 4.609375 -34.359375 C 3.703125 -35.265625 3.25 -36.367188 3.25 -37.671875 C 3.25 -38.972656 3.703125 -40.070312 4.609375 -40.96875 C 5.515625 -41.875 6.609375 -42.328125 7.890625 -42.328125 C 9.171875 -42.328125 10.257812 -41.875 11.15625 -40.96875 C 12.0625 -40.070312 12.515625 -38.972656 12.515625 -37.671875 Z M 4.0625 0 L 4.0625 -30.03125 L 11.703125 -30.03125 L 11.703125 0 Z M 4.0625 0 "/></g></g></g><g fill="#eceff4" fill-opacity="1"><g transform="translate(328.680105, 390.92294)"><g><path d="M 5.984375 -3.921875 C 3.296875 -6.835938 1.953125 -10.550781 1.953125 -15.0625 C 1.953125 -19.582031 3.285156 -23.28125 5.953125 -26.15625 C 8.628906 -29.03125 12.023438 -30.46875 16.140625 -30.46875 C 20.265625 -30.46875 23.410156 -28.765625 25.578125 -25.359375 L 25.578125 -30.03125 L 33.171875 -30.03125 L 33.171875 0.21875 C 33.171875 4.519531 31.90625 8.035156 29.375 10.765625 C 26.84375 13.492188 23.289062 14.859375 18.71875 14.859375 C 14.15625 14.859375 10.523438 13.90625 7.828125 12 C 5.140625 10.101562 3.613281 7.40625 3.25 3.90625 L 10.734375 3.90625 C 11.203125 5.238281 12.101562 6.289062 13.4375 7.0625 C 14.78125 7.84375 16.460938 8.234375 18.484375 8.234375 C 20.503906 8.234375 22.191406 7.566406 23.546875 6.234375 C 24.898438 4.898438 25.578125 2.894531 25.578125 0.21875 L 25.578125 -5.046875 C 23.304688 -1.390625 20.144531 0.4375 16.09375 0.4375 C 12.050781 0.4375 8.679688 -1.015625 5.984375 -3.921875 Z M 23.1875 -8.53125 C 24.78125 -10.101562 25.578125 -12.265625 25.578125 -15.015625 C 25.578125 -17.765625 24.78125 -19.921875 23.1875 -21.484375 C 21.601562 -23.054688 19.742188 -23.84375 17.609375 -23.84375 C 15.484375 -23.84375 13.632812 -23.066406 12.0625 -21.515625 C 10.488281 -19.960938 9.703125 -17.8125 9.703125 -15.0625 C 9.703125 -12.320312 10.492188 -10.15625 12.078125 -8.5625 C 13.671875 -6.96875 15.523438 -6.171875 17.640625 -6.171875 C 19.753906 -6.171875 21.601562 -6.957031 23.1875 -8.53125 Z M 23.1875 -8.53125 "/></g></g></g><g fill="#eceff4" fill-opacity="1"><g transform="translate(365.914966, 390.92294)"><g><path d="M 11.703125 -30.03125 L 11.703125 -25.53125 C 13.617188 -28.820312 16.726562 -30.46875 21.03125 -30.46875 C 24.46875 -30.46875 27.269531 -29.335938 29.4375 -27.078125 C 31.601562 -24.816406 32.6875 -21.679688 32.6875 -17.671875 L 32.6875 0 L 25.09375 0 L 25.09375 -16.59375 C 25.09375 -18.9375 24.492188 -20.726562 23.296875 -21.96875 C 22.109375 -23.21875 20.484375 -23.84375 18.421875 -23.84375 C 16.367188 -23.84375 14.734375 -23.21875 13.515625 -21.96875 C 12.304688 -20.726562 11.703125 -18.9375 11.703125 -16.59375 L 11.703125 0 L 4.0625 0 L 4.0625 -30.03125 Z M 11.703125 -30.03125 "/></g></g></g><g fill="#eceff4" fill-opacity="1"><g transform="translate(402.391039, 390.92294)"><g/></g></g><g fill="#eceff4" fill-opacity="1"><g transform="translate(418.650804, 390.92294)"><g><path d="M 4.0625 0 L 4.0625 -37.828125 L 11.703125 -37.828125 L 11.703125 0 Z M 4.0625 0 "/></g></g></g><g fill="#eceff4" fill-opacity="1"><g transform="translate(434.422776, 390.92294)"><g><path d="M 11.703125 -30.03125 L 11.703125 -25.53125 C 13.617188 -28.820312 16.726562 -30.46875 21.03125 -30.46875 C 24.46875 -30.46875 27.269531 -29.335938 29.4375 -27.078125 C 31.601562 -24.816406 32.6875 -21.679688 32.6875 -17.671875 L 32.6875 0 L 25.09375 0 L 25.09375 -16.59375 C 25.09375 -18.9375 24.492188 -20.726562 23.296875 -21.96875 C 22.109375 -23.21875 20.484375 -23.84375 18.421875 -23.84375 C 16.367188 -23.84375 14.734375 -23.21875 13.515625 -21.96875 C 12.304688 -20.726562 11.703125 -18.9375 11.703125 -16.59375 L 11.703125 0 L 4.0625 0 L 4.0625 -30.03125 Z M 11.703125 -30.03125 "/></g></g></g></svg>