<svg xmlns="http://www.w3.org/2000/svg" xmlns:xlink="http://www.w3.org/1999/xlink" viewBox="0 0 606 149"><defs><style>.cls-1,.cls-18,.cls-7{fill:none;}.cls-2{clip-path:url(#clip-path);}.cls-3{clip-path:url(#clip-path-2);}.cls-4{fill:#d9d9d9;}.cls-5{clip-path:url(#clip-path-3);}.cls-6{clip-path:url(#clip-path-4);}.cls-7{stroke:#000;stroke-width:4px;}.cls-8{clip-path:url(#clip-path-5);}.cls-9{clip-path:url(#clip-path-6);}.cls-10{fill:#bf616a;}.cls-11{clip-path:url(#clip-path-7);}.cls-12{clip-path:url(#clip-path-8);}.cls-13{clip-path:url(#clip-path-9);}.cls-14{clip-path:url(#clip-path-10);}.cls-15{fill:#88c0d0;}.cls-16{clip-path:url(#clip-path-11);}.cls-17{clip-path:url(#clip-path-12);}.cls-18{stroke-width:16px;stroke:url(#radial-gradient);}.cls-19{fill:#eceff4;}</style><clipPath id="clip-path"><rect class="cls-1" width="605.88" height="148.71"/></clipPath><clipPath id="clip-path-2"><rect class="cls-1" width="605.65" height="148.71" rx="9"/></clipPath><clipPath id="clip-path-3"><rect class="cls-1" width="606" height="149"/></clipPath><clipPath id="clip-path-4"><rect class="cls-1" x="0.01" width="605.62" height="148.7" rx="9"/></clipPath><clipPath id="clip-path-5"><rect class="cls-1" x="10.35" y="9.14" width="585.3" height="129.95"/></clipPath><clipPath id="clip-path-6"><rect class="cls-1" x="10.35" y="9.14" width="584.95" height="129.95" rx="9"/></clipPath><clipPath id="clip-path-7"><rect class="cls-1" x="10.35" y="9.14" width="585" height="130"/></clipPath><clipPath id="clip-path-8"><rect class="cls-1" x="10.35" y="9.14" width="584.94" height="129.95" rx="9"/></clipPath><clipPath id="clip-path-9"><rect class="cls-1" x="12.06" y="10.93" width="581.68" height="126.3"/></clipPath><clipPath id="clip-path-10"><rect class="cls-1" x="12.06" y="10.93" width="581.48" height="126.3" rx="7"/></clipPath><clipPath id="clip-path-11"><rect class="cls-1" x="12.07" y="10.93" width="580.99" height="126"/></clipPath><clipPath id="clip-path-12"><rect class="cls-1" x="12.07" y="10.93" width="581.45" height="126.3" rx="7"/></clipPath><radialGradient id="radial-gradient" cx="69.37" cy="500.99" r="223.13" gradientTransform="matrix(1.33, 0, 0, -1.33, 210.31, 742.07)" gradientUnits="userSpaceOnUse"><stop offset="0" stop-color="#ebeff4"/><stop offset="0.01" stop-color="#ebeef4"/><stop offset="0.01" stop-color="#ebeef4"/><stop offset="0.02" stop-color="#eaeef3"/><stop offset="0.02" stop-color="#eaeef3"/><stop offset="0.02" stop-color="#e9eef3"/><stop offset="0.03" stop-color="#e9eef3"/><stop offset="0.03" stop-color="#e9edf3"/><stop offset="0.04" stop-color="#e8edf3"/><stop offset="0.04" stop-color="#e8edf3"/><stop offset="0.04" stop-color="#e7edf2"/><stop offset="0.05" stop-color="#e7edf2"/><stop offset="0.05" stop-color="#e7ecf2"/><stop offset="0.05" stop-color="#e6ecf2"/><stop offset="0.06" stop-color="#e6ecf2"/><stop offset="0.06" stop-color="#e5ecf2"/><stop offset="0.07" stop-color="#e5ecf2"/><stop offset="0.07" stop-color="#e5ecf1"/><stop offset="0.07" stop-color="#e4ebf1"/><stop offset="0.08" stop-color="#e4ebf1"/><stop offset="0.08" stop-color="#e3ebf1"/><stop offset="0.09" stop-color="#e3ebf1"/><stop offset="0.09" stop-color="#e3ebf1"/><stop offset="0.09" stop-color="#e2eaf1"/><stop offset="0.1" stop-color="#e2eaf0"/><stop offset="0.1" stop-color="#e2eaf0"/><stop offset="0.11" stop-color="#e1eaf0"/><stop offset="0.11" stop-color="#e1eaf0"/><stop offset="0.11" stop-color="#e0eaf0"/><stop offset="0.12" stop-color="#e0e9f0"/><stop offset="0.12" stop-color="#e0e9f0"/><stop offset="0.13" stop-color="#dfe9ef"/><stop offset="0.13" stop-color="#dfe9ef"/><stop offset="0.13" stop-color="#dee9ef"/><stop offset="0.14" stop-color="#dee8ef"/><stop offset="0.14" stop-color="#dee8ef"/><stop offset="0.14" stop-color="#dde8ef"/><stop offset="0.15" stop-color="#dde8ef"/><stop offset="0.15" stop-color="#dce8ee"/><stop offset="0.16" stop-color="#dce8ee"/><stop offset="0.16" stop-color="#dce7ee"/><stop offset="0.16" stop-color="#dbe7ee"/><stop offset="0.17" stop-color="#dbe7ee"/><stop offset="0.17" stop-color="#dae7ee"/><stop offset="0.18" stop-color="#dae7ee"/><stop offset="0.18" stop-color="#dae6ee"/><stop offset="0.18" stop-color="#d9e6ed"/><stop offset="0.19" stop-color="#d9e6ed"/><stop offset="0.19" stop-color="#d9e6ed"/><stop offset="0.2" stop-color="#d8e6ed"/><stop offset="0.2" stop-color="#d8e5ed"/><stop offset="0.2" stop-color="#d7e5ed"/><stop offset="0.21" stop-color="#d7e5ed"/><stop offset="0.21" stop-color="#d7e5ec"/><stop offset="0.21" stop-color="#d6e5ec"/><stop offset="0.22" stop-color="#d6e5ec"/><stop offset="0.22" stop-color="#d5e4ec"/><stop offset="0.23" stop-color="#d5e4ec"/><stop offset="0.23" stop-color="#d5e4ec"/><stop offset="0.23" stop-color="#d4e4ec"/><stop offset="0.24" stop-color="#d4e4eb"/><stop offset="0.24" stop-color="#d3e3eb"/><stop offset="0.25" stop-color="#d3e3eb"/><stop offset="0.25" stop-color="#d3e3eb"/><stop offset="0.25" stop-color="#d2e3eb"/><stop offset="0.26" stop-color="#d1e2ea"/><stop offset="0.27" stop-color="#d1e2ea"/><stop offset="0.28" stop-color="#d0e2ea"/><stop offset="0.29" stop-color="#cfe1ea"/><stop offset="0.29" stop-color="#cee1e9"/><stop offset="0.3" stop-color="#cde1e9"/><stop offset="0.31" stop-color="#cde0e9"/><stop offset="0.32" stop-color="#cce0e9"/><stop offset="0.32" stop-color="#cbe0e8"/><stop offset="0.33" stop-color="#cadfe8"/><stop offset="0.34" stop-color="#cadfe8"/><stop offset="0.35" stop-color="#c9dee7"/><stop offset="0.36" stop-color="#c8dee7"/><stop offset="0.36" stop-color="#c7dee7"/><stop offset="0.37" stop-color="#c6dde7"/><stop offset="0.38" stop-color="#c6dde6"/><stop offset="0.39" stop-color="#c5dde6"/><stop offset="0.39" stop-color="#c4dce6"/><stop offset="0.4" stop-color="#c3dce5"/><stop offset="0.41" stop-color="#c2dce5"/><stop offset="0.42" stop-color="#c2dbe5"/><stop offset="0.43" stop-color="#c1dbe5"/><stop offset="0.43" stop-color="#c0dae4"/><stop offset="0.44" stop-color="#bfdae4"/><stop offset="0.45" stop-color="#bfdae4"/><stop offset="0.46" stop-color="#bed9e3"/><stop offset="0.46" stop-color="#bdd9e3"/><stop offset="0.47" stop-color="#bcd9e3"/><stop offset="0.48" stop-color="#bbd8e3"/><stop offset="0.49" stop-color="#bbd8e2"/><stop offset="0.5" stop-color="#bad7e2"/><stop offset="0.5" stop-color="#b9d7e2"/><stop offset="0.51" stop-color="#b9d7e2"/><stop offset="0.51" stop-color="#b9d7e2"/><stop offset="0.52" stop-color="#b8d7e1"/><stop offset="0.52" stop-color="#b8d6e1"/><stop offset="0.52" stop-color="#b7d6e1"/><stop offset="0.53" stop-color="#b7d6e1"/><stop offset="0.53" stop-color="#b7d6e1"/><stop offset="0.54" stop-color="#b6d6e1"/><stop offset="0.54" stop-color="#b6d6e1"/><stop offset="0.54" stop-color="#b5d5e0"/><stop offset="0.55" stop-color="#b5d5e0"/><stop offset="0.55" stop-color="#b5d5e0"/><stop offset="0.55" stop-color="#b4d5e0"/><stop offset="0.56" stop-color="#b4d5e0"/><stop offset="0.56" stop-color="#b3d4e0"/><stop offset="0.57" stop-color="#b3d4e0"/><stop offset="0.57" stop-color="#b3d4df"/><stop offset="0.57" stop-color="#b2d4df"/><stop offset="0.58" stop-color="#b2d4df"/><stop offset="0.58" stop-color="#b1d4df"/><stop offset="0.59" stop-color="#b1d3df"/><stop offset="0.59" stop-color="#b1d3df"/><stop offset="0.59" stop-color="#b0d3df"/><stop offset="0.6" stop-color="#b0d3de"/><stop offset="0.6" stop-color="#b0d3de"/><stop offset="0.61" stop-color="#afd2de"/><stop offset="0.61" stop-color="#afd2de"/><stop offset="0.61" stop-color="#aed2de"/><stop offset="0.62" stop-color="#aed2de"/><stop offset="0.62" stop-color="#aed2de"/><stop offset="0.63" stop-color="#add2dd"/><stop offset="0.63" stop-color="#add1dd"/><stop offset="0.64" stop-color="#acd1dd"/><stop offset="0.64" stop-color="#abd1dd"/><stop offset="0.65" stop-color="#aad0dc"/><stop offset="0.66" stop-color="#a9d0dc"/><stop offset="0.67" stop-color="#a9cfdc"/><stop offset="0.68" stop-color="#a8cfdc"/><stop offset="0.68" stop-color="#a7cfdb"/><stop offset="0.69" stop-color="#a6cedb"/><stop offset="0.7" stop-color="#a6cedb"/><stop offset="0.71" stop-color="#a5ceda"/><stop offset="0.71" stop-color="#a4cdda"/><stop offset="0.72" stop-color="#a3cdda"/><stop offset="0.73" stop-color="#a2ccda"/><stop offset="0.74" stop-color="#a2ccd9"/><stop offset="0.75" stop-color="#a1ccd9"/><stop offset="0.75" stop-color="#a0cbd9"/><stop offset="0.76" stop-color="#a0cbd9"/><stop offset="0.76" stop-color="#a0cbd9"/><stop offset="0.77" stop-color="#9fcbd8"/><stop offset="0.77" stop-color="#9fcbd8"/><stop offset="0.77" stop-color="#9ecbd8"/><stop offset="0.78" stop-color="#9ecad8"/><stop offset="0.78" stop-color="#9ecad8"/><stop offset="0.79" stop-color="#9dcad8"/><stop offset="0.79" stop-color="#9dcad8"/><stop offset="0.79" stop-color="#9ccad7"/><stop offset="0.8" stop-color="#9cc9d7"/><stop offset="0.8" stop-color="#9cc9d7"/><stop offset="0.8" stop-color="#9bc9d7"/><stop offset="0.81" stop-color="#9bc9d7"/><stop offset="0.81" stop-color="#9ac9d7"/><stop offset="0.82" stop-color="#9ac8d7"/><stop offset="0.82" stop-color="#99c8d6"/><stop offset="0.83" stop-color="#98c8d6"/><stop offset="0.84" stop-color="#98c7d6"/><stop offset="0.85" stop-color="#97c7d5"/><stop offset="0.86" stop-color="#96c7d5"/><stop offset="0.86" stop-color="#95c6d5"/><stop offset="0.87" stop-color="#94c6d5"/><stop offset="0.88" stop-color="#94c6d4"/><stop offset="0.88" stop-color="#93c5d4"/><stop offset="0.89" stop-color="#93c5d4"/><stop offset="0.89" stop-color="#93c5d4"/><stop offset="0.89" stop-color="#92c5d4"/><stop offset="0.9" stop-color="#92c5d4"/><stop offset="0.9" stop-color="#91c5d4"/><stop offset="0.91" stop-color="#91c4d3"/><stop offset="0.91" stop-color="#91c4d3"/><stop offset="0.92" stop-color="#90c4d3"/><stop offset="0.93" stop-color="#8fc3d3"/><stop offset="0.93" stop-color="#8ec3d2"/><stop offset="0.94" stop-color="#8ec3d2"/><stop offset="0.95" stop-color="#8dc2d2"/><stop offset="0.95" stop-color="#8dc2d2"/><stop offset="0.95" stop-color="#8cc2d2"/><stop offset="0.96" stop-color="#8cc2d1"/><stop offset="0.96" stop-color="#8bc1d1"/><stop offset="0.97" stop-color="#8ac1d1"/><stop offset="0.98" stop-color="#8ac1d1"/><stop offset="0.98" stop-color="#89c1d1"/><stop offset="0.99" stop-color="#89c0d0"/><stop offset="0.99" stop-color="#88c0d0"/><stop offset="1" stop-color="#88c0d0"/></radialGradient></defs><g id="Layer_2" data-name="Layer 2"><g id="Layer_1-2" data-name="Layer 1"><g class="cls-2"><g class="cls-3"><path class="cls-4" d="M0,0H605.88V148.71H0Z"/></g></g><g class="cls-5"><g class="cls-6"><path class="cls-7" d="M9,0H596.63a9,9,0,0,1,9,9V139.7a9,9,0,0,1-9,9H9a9,9,0,0,1-9-9V9A9,9,0,0,1,9,0Z"/></g></g><g class="cls-8"><g class="cls-9"><path class="cls-10" d="M10.35,9.14H595.14v130H10.35Z"/></g></g><g class="cls-11"><g class="cls-12"><path class="cls-7" d="M19.35,9.14H586.29a9,9,0,0,1,9,9V130.08a9,9,0,0,1-9,9H19.35a9,9,0,0,1-9-9V18.14A9,9,0,0,1,19.35,9.14Z"/></g></g><g class="cls-13"><g class="cls-14"><path class="cls-15" d="M12.06,10.93H593.74v126.3H12.06Z"/></g></g><g class="cls-16"><g class="cls-17"><path class="cls-18" d="M19.07,10.93H586.52a7,7,0,0,1,7,7v112.3a7,7,0,0,1-7,7H19.07a7,7,0,0,1-7-7V17.93A7,7,0,0,1,19.07,10.93Z"/></g></g><path class="cls-19" d="M76.66,77.33v16.4H68.35V52.56H83.51q7.13,0,11,3.59a11.43,11.43,0,0,1,3.88,8.79A12.46,12.46,0,0,1,96,72.21a12.18,12.18,0,0,1-7.43,4.6l10.5,16.92H89.22l-9.83-16.4Zm0-18.39V71h6.85a6.58,6.58,0,0,0,4.78-1.6,6.72,6.72,0,0,0,0-8.8,6.54,6.54,0,0,0-4.78-1.62Z"/><path class="cls-19" d="M120.43,94.21a15.43,15.43,0,0,1-11.62-4.63q-4.49-4.64-4.48-12.25t4.5-12.16a15.7,15.7,0,0,1,11.68-4.59A16.27,16.27,0,0,1,132.29,65q4.59,4.44,4.6,11.88a18.85,18.85,0,0,1-.25,3.19H112.83a7.79,7.79,0,0,0,2.35,5.14,7.39,7.39,0,0,0,5.25,1.94,6.91,6.91,0,0,0,6.38-3.54h8.95a14.34,14.34,0,0,1-5.5,7.62A16.31,16.31,0,0,1,120.43,94.21Zm7.83-19.48a7.05,7.05,0,0,0-2.39-5.17,7.79,7.79,0,0,0-5.33-2,7.39,7.39,0,0,0-5.23,2,8.15,8.15,0,0,0-2.48,5.17Z"/><path class="cls-19" d="M141.6,70.61a8.81,8.81,0,0,1,3.59-7.13q3.6-2.9,9.56-2.9t9.54,2.88a10.06,10.06,0,0,1,3.85,7.75h-8.5c-.24-2.76-1.93-4.15-5.08-4.15a6,6,0,0,0-3.64,1,3,3,0,0,0-1.3,2.61,2.87,2.87,0,0,0,1.94,2.58,19.52,19.52,0,0,0,4.71,1.48A55.41,55.41,0,0,1,161.79,76a10.31,10.31,0,0,1,4.69,2.84,7.41,7.41,0,0,1,2,5.37,8.57,8.57,0,0,1-3.75,7.21,17.88,17.88,0,0,1-19.09,0,10.13,10.13,0,0,1-4.06-7.88H150q.48,4.13,5.25,4.13a6.26,6.26,0,0,0,3.73-1A3.23,3.23,0,0,0,160.42,84a3,3,0,0,0-2-2.67,18,18,0,0,0-4.71-1.5q-2.77-.54-5.52-1.29a10.27,10.27,0,0,1-4.69-2.75A7.07,7.07,0,0,1,141.6,70.61Z"/><path class="cls-19" d="M189.31,94.21a15.45,15.45,0,0,1-11.63-4.63q-4.49-4.64-4.48-12.25t4.5-12.16a15.72,15.72,0,0,1,11.69-4.59A16.23,16.23,0,0,1,201.16,65q4.6,4.44,4.6,11.88a18.85,18.85,0,0,1-.25,3.19H181.7a7.8,7.8,0,0,0,2.36,5.14,7.35,7.35,0,0,0,5.25,1.94,6.89,6.89,0,0,0,6.37-3.54h9a14.4,14.4,0,0,1-5.5,7.62A16.33,16.33,0,0,1,189.31,94.21Zm7.83-19.48a7,7,0,0,0-2.4-5.17,7.77,7.77,0,0,0-5.33-2,7.4,7.4,0,0,0-5.23,2,8.15,8.15,0,0,0-2.48,5.17Z"/><path class="cls-19" d="M225,86.77h4v7h-5.25q-5,0-7.73-2.29t-2.71-7.63v-16h-3.48V61.06h3.48V53h8.31v8.08h7.31v6.77h-7.31v16a3,3,0,0,0,.75,2.3A4.14,4.14,0,0,0,225,86.77Z"/><path class="cls-19" d="M280,73.08a10.5,10.5,0,0,1-4.62,3.11,20.24,20.24,0,0,1-7.11,1.14h-6.85v16.4H253.1V52.56h15.16q7.13,0,11,3.59a11,11,0,0,1,3.88,8.39A12.8,12.8,0,0,1,280,73.08ZM261.41,71h6.85a6.53,6.53,0,0,0,4.77-1.6,6.69,6.69,0,0,0,0-8.8,6.5,6.5,0,0,0-4.77-1.62h-6.85Z"/><path class="cls-19" d="M310.18,84.44a9.44,9.44,0,0,0,2.6-7,9.43,9.43,0,0,0-2.6-7,8.43,8.43,0,0,0-12.11,0,9.45,9.45,0,0,0-2.56,7,9.64,9.64,0,0,0,2.58,7.09,8.39,8.39,0,0,0,12.09,0Zm-18.71,5a17.12,17.12,0,0,1-4.4-12.13,17,17,0,0,1,4.36-12.06,14.5,14.5,0,0,1,11.08-4.69,11.47,11.47,0,0,1,10.27,5.55V61.06h8.27V93.73h-8.27V88.25q-3.7,6-10.31,6A14.32,14.32,0,0,1,291.47,89.46Z"/><path class="cls-19" d="M328.06,70.61a8.78,8.78,0,0,1,3.59-7.13q3.6-2.9,9.56-2.9t9.54,2.88a10.06,10.06,0,0,1,3.85,7.75h-8.5c-.24-2.76-1.93-4.15-5.08-4.15a6.1,6.1,0,0,0-3.65,1,3.06,3.06,0,0,0-1.29,2.61A2.87,2.87,0,0,0,338,73.21a19.52,19.52,0,0,0,4.71,1.48A55.41,55.41,0,0,1,348.25,76a10.31,10.31,0,0,1,4.69,2.84,7.41,7.41,0,0,1,2,5.37,8.57,8.57,0,0,1-3.75,7.21,17.88,17.88,0,0,1-19.09,0A10.13,10.13,0,0,1,328,83.58h8.48q.48,4.13,5.25,4.13a6.26,6.26,0,0,0,3.73-1A3.22,3.22,0,0,0,346.87,84a3,3,0,0,0-1.95-2.67,18.12,18.12,0,0,0-4.71-1.5q-2.77-.54-5.52-1.29A10.27,10.27,0,0,1,330,75.77,7.07,7.07,0,0,1,328.06,70.61Z"/><path class="cls-19" d="M360.14,70.61a8.8,8.8,0,0,1,3.58-7.13c2.41-1.93,5.59-2.9,9.57-2.9s7.15,1,9.54,2.88a10.06,10.06,0,0,1,3.85,7.75h-8.5c-.24-2.76-1.93-4.15-5.08-4.15a6.1,6.1,0,0,0-3.65,1,3.06,3.06,0,0,0-1.29,2.61,2.87,2.87,0,0,0,1.94,2.58,19.52,19.52,0,0,0,4.71,1.48A55.41,55.41,0,0,1,380.33,76,10.36,10.36,0,0,1,385,78.86a7.4,7.4,0,0,1,2,5.37,8.57,8.57,0,0,1-3.75,7.21,17.87,17.87,0,0,1-19.08,0,10.13,10.13,0,0,1-4.06-7.88h8.48q.48,4.13,5.25,4.13a6.26,6.26,0,0,0,3.73-1A3.22,3.22,0,0,0,379,84,3,3,0,0,0,377,81.31a18.12,18.12,0,0,0-4.71-1.5q-2.78-.54-5.52-1.29a10.27,10.27,0,0,1-4.69-2.75A7.07,7.07,0,0,1,360.14,70.61Z"/><path class="cls-19" d="M431.07,61.06h8L429,93.73h-8.85l-5.59-21.94-5.66,21.94h-8.86L390,61.06h8.38l6,24.82,6-24.82h8.73l5.89,24.77Z"/><path class="cls-19" d="M458.32,87.19a8.08,8.08,0,0,0,6-2.56c1.67-1.72,2.5-4.15,2.5-7.27s-.83-5.53-2.48-7.21a8,8,0,0,0-6-2.54,7.82,7.82,0,0,0-5.91,2.54c-1.62,1.68-2.42,4.1-2.42,7.25s.8,5.55,2.42,7.25A7.83,7.83,0,0,0,458.32,87.19Zm-12,2.35c-3.18-3.11-4.77-7.17-4.77-12.21s1.61-9.07,4.84-12.14a17.92,17.92,0,0,1,24,0,16,16,0,0,1,4.83,12.14,16.12,16.12,0,0,1-4.88,12.21,16.7,16.7,0,0,1-12.06,4.67A16.38,16.38,0,0,1,446.34,89.54Z"/><path class="cls-19" d="M490.15,61.06v5.77q3.32-6.24,9.56-6.25v8.5h-2.06a7.68,7.68,0,0,0-5.6,1.86q-1.91,1.86-1.9,6.39v16.4h-8.31V61.06Z"/><path class="cls-19" d="M526.41,84.44a9.41,9.41,0,0,0,2.61-7,9.39,9.39,0,0,0-2.61-7,8.42,8.42,0,0,0-12.1,0,9.45,9.45,0,0,0-2.56,7,9.64,9.64,0,0,0,2.58,7.09,8.38,8.38,0,0,0,12.08,0Zm-18.7,5a17.12,17.12,0,0,1-4.4-12.13,17,17,0,0,1,4.35-12.06,14.53,14.53,0,0,1,11.09-4.69A11.47,11.47,0,0,1,529,66.13v-16h8.27V93.73H529V88.25q-3.72,6-10.31,6A14.32,14.32,0,0,1,507.71,89.46Z"/></g></g></svg>